NunitoSans-CondensedExtraBold.ufo
<glyph name="exclam" format="2">
  <advance width="226.36746987951807"/>
  <unicode hex="0021"/>
  <outline>
    <contour>
      <point x="72.12048192771084" y="215.81325301204822" type="line"/>
      <point x="154.90361445783134" y="215.81325301204822" type="line"/>
      <point x="198.42168674698794" y="705.0" type="line"/>
      <point x="28.60240963855422" y="705.0" type="line"/>
    </contour>
    <contour>
      <point x="40.98795180722892" y="0.0" type="line"/>
      <point x="186.03614457831324" y="0.0" type="line"/>
      <point x="186.03614457831324" y="148.70481927710844" type="line"/>
      <point x="40.98795180722892" y="148.70481927710844" type="line"/>
    </contour>
  </outline>
</glyph>
<glyph name="numbersign" format="2">
  <advance width="528.5060240963855"/>
  <unicode hex="0023"/>
  <outline>
    <contour>
      <point x="71.49397590361447" y="0.0" type="line"/>
      <point x="161.02409638554218" y="0.0" type="line"/>
      <point x="188.42771084337346" y="168.70481927710844" type="line"/>
      <point x="283.2289156626506" y="168.70481927710844" type="line"/>
      <point x="255.82530120481928" y="0.0" type="line"/>
      <point x="346.01204819277103" y="0.0" type="line"/>
      <point x="373.0722891566265" y="168.70481927710844" type="line"/>
      <point x="475.96987951807233" y="168.70481927710844" type="line"/>
      <point x="475.96987951807233" y="255.60843373493975" type="line"/>
      <point x="385.6084337349398" y="255.60843373493975" type="line"/>
      <point x="417.72891566265065" y="457.3915662650602" type="line"/>
      <point x="493.5963855421688" y="457.3915662650602" type="line"/>
      <point x="493.5963855421688" y="544.2951807228916" type="line"/>
      <point x="430.921686746988" y="544.2951807228916" type="line"/>
      <point x="457.0120481927711" y="705.0" type="line"/>
      <point x="366.8253012048193" y="705.0" type="line"/>
      <point x="341.0783132530121" y="544.2951807228916" type="line"/>
      <point x="246.6204819277108" y="544.2951807228916" type="line"/>
      <point x="272.36746987951807" y="705.0" type="line"/>
      <point x="182.49397590361446" y="705.0" type="line"/>
      <point x="157.09036144578312" y="544.2951807228916" type="line"/>
      <point x="52.53614457831325" y="544.2951807228916" type="line"/>
      <point x="52.53614457831325" y="457.3915662650602" type="line"/>
      <point x="143.8975903614458" y="457.3915662650602" type="line"/>
      <point x="111.77710843373495" y="255.60843373493975" type="line"/>
      <point x="34.90963855421687" y="255.60843373493975" type="line"/>
      <point x="34.90963855421687" y="168.70481927710844" type="line"/>
      <point x="98.55421686746989" y="168.70481927710844" type="line"/>
    </contour>
    <contour>
      <point x="201.30722891566265" y="255.60843373493975" type="line"/>
      <point x="233.7710843373494" y="457.3915662650602" type="line"/>
      <point x="327.5421686746988" y="457.3915662650602" type="line"/>
      <point x="295.078313253012" y="255.60843373493975" type="line"/>
    </contour>
  </outline>
</glyph>
<glyph name="dollar" format="2">
  <advance width="498.0"/>
  <unicode hex="0024"/>
  <outline>
    <contour>
      <point x="203.22891566265062" y="-115.0" type="line"/>
      <point x="310.144578313253" y="-115.0" type="line"/>
      <point x="310.144578313253" y="18.222891566265062" type="line"/>
      <point x="273.5361445783132" y="-5.656626506024097" type="line"/>
      <point x="397.578313253012" y="5.596385542168674"/>
      <point x="478.144578313253" y="86.72891566265059"/>
      <point x="478.144578313253" y="210.5481927710843" type="curve" smooth="yes"/>
      <point x="478.144578313253" y="308.8313253012048"/>
      <point x="428.4879518072289" y="369.0240963855422"/>
      <point x="328.3975903614458" y="395.05421686746985" type="curve" smooth="yes"/>
      <point x="236.921686746988" y="417.9939759036144" type="line" smooth="yes"/>
      <point x="195.90361445783134" y="429.11445783132535"/>
      <point x="173.03614457831324" y="455.6686746987952"/>
      <point x="173.03614457831324" y="499.5240963855421" type="curve" smooth="yes"/>
      <point x="173.03614457831324" y="556.1265060240963"/>
      <point x="212.36746987951807" y="592.5481927710842"/>
      <point x="270.69879518072287" y="592.5481927710842" type="curve" smooth="yes"/>
      <point x="322.9096385542169" y="592.5481927710842"/>
      <point x="380.8192771084337" y="570.1746987951807"/>
      <point x="417.93975903614455" y="530.5000000000001" type="curve"/>
      <point x="455.2951807228916" y="636.0421686746988" type="line"/>
      <point x="414.5783132530121" y="679.656626506024"/>
      <point x="354.20481927710847" y="704.6867469879518"/>
      <point x="292.95180722891564" y="709.9698795180724" type="curve"/>
      <point x="310.144578313253" y="693.7168674698794" type="line"/>
      <point x="310.144578313253" y="820.0" type="line"/>
      <point x="203.22891566265062" y="820.0" type="line"/>
      <point x="203.22891566265062" y="693.7168674698794" type="line"/>
      <point x="219.39156626506025" y="707.6867469879518" type="line"/>
      <point x="106.45180722891568" y="692.5843373493975"/>
      <point x="33.795180722891565" y="607.3012048192771"/>
      <point x="33.795180722891565" y="488.7048192771084" type="curve" smooth="yes"/>
      <point x="33.795180722891565" y="387.73493975903614"/>
      <point x="84.13855421686746" y="326.855421686747"/>
      <point x="181.07831325301206" y="301.54216867469876" type="curve" smooth="yes"/>
      <point x="271.86746987951807" y="277.6024096385542" type="line" smooth="yes"/>
      <point x="320.0963855421687" y="264.45180722891564"/>
      <point x="339.9036144578313" y="238.89759036144576"/>
      <point x="339.9036144578313" y="195.3855421686747" type="curve" smooth="yes"/>
      <point x="339.9036144578313" y="143.87349397590364"/>
      <point x="306.28915662650604" y="112.45180722891565"/>
      <point x="242.80722891566268" y="112.45180722891565" type="curve" smooth="yes"/>
      <point x="178.56626506024097" y="112.45180722891565"/>
      <point x="110.18072289156626" y="137.10843373493975"/>
      <point x="61.12048192771084" y="179.34939759036143" type="curve"/>
      <point x="23.42168674698795" y="67.5843373493976" type="line"/>
      <point x="75.76506024096386" y="23.0"/>
      <point x="150.01807228915663" y="-2.6867469879518073"/>
      <point x="225.04819277108433" y="-6.313253012048193" type="curve"/>
      <point x="203.22891566265062" y="17.53614457831325" type="line"/>
    </contour>
  </outline>
</glyph>
<glyph name="ampersand" format="2">
  <advance width="624.5722891566264"/>
  <unicode hex="0026"/>
  <outline>
    <contour>
      <point x="253.60843373493975" y="-10.626506024096384" type="curve" smooth="yes"/>
      <point x="327.4156626506024" y="-10.626506024096384"/>
      <point x="391.7590361445783" y="18.867469879518072"/>
      <point x="440.98192771084337" y="72.85542168674698" type="curve"/>
      <point x="425.3855421686747" y="72.19879518072288" type="line"/>
      <point x="482.31325301204816" y="0.0" type="line"/>
      <point x="648.7891566265059" y="0.0" type="line"/>
      <point x="495.6024096385542" y="176.45783132530119" type="line"/>
      <point x="493.6626506024097" y="133.22289156626508" type="line"/>
      <point x="540.4518072289155" y="207.1024096385542"/>
      <point x="568.3012048192771" y="308.32530120481925"/>
      <point x="570.644578313253" y="425.9819277108434" type="curve"/>
      <point x="458.8192771084337" y="425.9819277108434" type="line"/>
      <point x="455.5060240963856" y="344.93373493975906"/>
      <point x="441.81927710843377" y="277.03614457831327"/>
      <point x="421.1024096385542" y="223.57228915662648" type="curve"/>
      <point x="448.51807228915663" y="228.19879518072287" type="line"/>
      <point x="316.94578313253015" y="390.0602409638554" type="line"/>
      <point x="299.21686746987956" y="352.67469879518075" type="line"/>
      <point x="393.27710843373495" y="409.9156626506024"/>
      <point x="439.81325301204816" y="476.88554216867465"/>
      <point x="439.81325301204816" y="560.7650602409639" type="curve" smooth="yes"/>
      <point x="439.81325301204816" y="655.4939759036145"/>
      <point x="382.39759036144574" y="715.6265060240964"/>
      <point x="276.2951807228916" y="715.6265060240964" type="curve" smooth="yes"/>
      <point x="172.77710843373495" y="715.6265060240964"/>
      <point x="103.07831325301206" y="647.5240963855422"/>
      <point x="103.07831325301206" y="547.1686746987953" type="curve" smooth="yes"/>
      <point x="103.07831325301206" y="489.8855421686747"/>
      <point x="126.73493975903617" y="434.19879518072287"/>
      <point x="176.82530120481928" y="372.6144578313253" type="curve"/>
      <point x="184.39156626506028" y="401.3734939759036" type="line"/>
      <point x="171.42168674698797" y="393.03012048192767" type="line" smooth="yes"/>
      <point x="86.80722891566265" y="336.0120481927711"/>
      <point x="46.867469879518076" y="267.2951807228916"/>
      <point x="46.867469879518076" y="184.60843373493972" type="curve" smooth="yes"/>
      <point x="46.867469879518076" y="68.44578313253012"/>
      <point x="129.87951807228916" y="-10.626506024096384"/>
    </contour>
    <contour>
      <point x="272.9939759036145" y="95.63253012048192" type="curve" smooth="yes"/>
      <point x="216.2289156626506" y="95.63253012048192"/>
      <point x="182.67469879518072" y="132.50000000000003"/>
      <point x="182.67469879518072" y="196.83132530120483" type="curve" smooth="yes"/>
      <point x="182.67469879518072" y="240.84939759036146"/>
      <point x="196.48192771084337" y="275.6867469879518"/>
      <point x="241.2650602409638" y="314.19879518072287" type="curve" smooth="yes"/>
      <point x="254.9819277108434" y="327.855421686747" type="line"/>
      <point x="217.4036144578313" y="325.03614457831327" type="line"/>
      <point x="375.0481927710843" y="129.81927710843374" type="line"/>
      <point x="376.01807228915663" y="151.1024096385542" type="line"/>
      <point x="349.5240963855422" y="113.87349397590361"/>
      <point x="315.53614457831327" y="95.63253012048192"/>
    </contour>
    <contour>
      <point x="279.26506024096386" y="621.4698795180724" type="curve" smooth="yes"/>
      <point x="309.566265060241" y="621.4698795180724"/>
      <point x="326.77710843373495" y="598.6626506024096"/>
      <point x="326.77710843373495" y="556.7650602409639" type="curve" smooth="yes"/>
      <point x="326.77710843373495" y="491.07831325301197"/>
      <point x="297.8072289156627" y="468.24096385542174"/>
      <point x="235.25301204819277" y="428.1927710843373" type="curve"/>
      <point x="285.5602409638554" y="424.789156626506" type="line"/>
      <point x="253.289156626506" y="465.58433734939763"/>
      <point x="227.40963855421685" y="501.7048192771085"/>
      <point x="227.40963855421685" y="552.3614457831325" type="curve" smooth="yes"/>
      <point x="227.40963855421685" y="594.9759036144578"/>
      <point x="246.96385542168673" y="621.4698795180724"/>
    </contour>
  </outline>
</glyph>
<glyph name="parenleft" format="2">
  <advance width="332.64457831325296"/>
  <unicode hex="0028"/>
  <outline>
    <contour>
      <point x="210.8313253012048" y="-196.56626506024097" type="curve"/>
      <point x="301.27108433734935" y="-159.64457831325302" type="line"/>
      <point x="249.5843373493976" y="-12.391566265060243"/>
      <point x="228.83734939759037" y="109.40361445783132"/>
      <point x="228.83734939759037" y="263.0" type="curve" smooth="yes"/>
      <point x="228.83734939759037" y="417.2831325301205"/>
      <point x="249.5843373493976" y="538.3915662650603"/>
      <point x="301.27108433734935" y="685.6445783132531" type="curve"/>
      <point x="210.8313253012048" y="722.5662650602409" type="line"/>
      <point x="125.22289156626506" y="583.6987951807229"/>
      <point x="83.43373493975903" y="434.75903614457826"/>
      <point x="83.43373493975903" y="263.0" type="curve" smooth="yes"/>
      <point x="83.43373493975903" y="91.92771084337349"/>
      <point x="125.22289156626506" y="-58.042168674698786"/>
    </contour>
  </outline>
</glyph>
<glyph name="parenright" format="2">
  <advance width="332.64457831325296"/>
  <unicode hex="0029"/>
  <outline>
    <contour>
      <point x="121.81325301204818" y="-195.90963855421688" type="line"/>
      <point x="207.42168674698792" y="-57.38554216867469"/>
      <point x="249.21084337349396" y="91.92771084337349"/>
      <point x="249.21084337349396" y="263.0" type="curve" smooth="yes"/>
      <point x="249.21084337349396" y="434.4156626506024"/>
      <point x="207.42168674698792" y="583.3855421686746"/>
      <point x="121.81325301204818" y="721.9096385542168" type="curve"/>
      <point x="31.373493975903614" y="684.987951807229" type="line"/>
      <point x="82.71686746987952" y="537.7349397590361"/>
      <point x="104.49397590361447" y="416.93975903614455"/>
      <point x="104.49397590361447" y="263.0" type="curve" smooth="yes"/>
      <point x="104.49397590361447" y="109.06024096385542"/>
      <point x="82.71686746987952" y="-11.734939759036147"/>
      <point x="31.373493975903614" y="-158.98795180722894" type="curve"/>
    </contour>
  </outline>
</glyph>
<glyph name="asterisk" format="2">
  <advance width="431.5361445783132"/>
  <unicode hex="002A"/>
  <outline>
    <contour>
      <point x="162.98192771084337" y="346.289156626506" type="line"/>
      <point x="224.53614457831324" y="479.6927710843374" type="line"/>
      <point x="207.6867469879518" y="479.6927710843374" type="line"/>
      <point x="268.2710843373494" y="345.66265060240966" type="line"/>
      <point x="352.77108433734946" y="394.83734939759034" type="line"/>
      <point x="266.83132530120486" y="522.9578313253012" type="line"/>
      <point x="247.3855421686747" y="495.60240963855426" type="line"/>
      <point x="402.4759036144578" y="485.37951807228916" type="line"/>
      <point x="402.4759036144578" y="581.4759036144578" type="line"/>
      <point x="247.3855421686747" y="570.566265060241" type="line"/>
      <point x="266.83132530120486" y="543.8975903614457" type="line"/>
      <point x="352.77108433734946" y="671.0180722891566" type="line"/>
      <point x="268.2710843373494" y="720.8795180722892" type="line"/>
      <point x="207.6867469879518" y="588.132530120482" type="line"/>
      <point x="224.53614457831324" y="588.132530120482" type="line"/>
      <point x="164.29518072289156" y="720.8795180722892" type="line"/>
      <point x="80.10843373493975" y="672.3313253012047" type="line"/>
      <point x="165.04819277108436" y="542.5843373493976" type="line"/>
      <point x="185.15060240963854" y="570.566265060241" type="line"/>
      <point x="29.74698795180723" y="581.4759036144578" type="line"/>
      <point x="29.74698795180723" y="485.6927710843374" type="line"/>
      <point x="184.83734939759034" y="495.60240963855426" type="line"/>
      <point x="163.73493975903617" y="522.9578313253012" type="line"/>
      <point x="79.10843373493975" y="394.83734939759034" type="line"/>
    </contour>
  </outline>
</glyph>
<glyph name="plus" format="2">
  <advance width="498.0"/>
  <unicode hex="002B"/>
  <outline>
    <contour>
      <point x="199.45180722891567" y="67.0" type="line"/>
      <point x="298.5481927710843" y="67.0" type="line"/>
      <point x="298.5481927710843" y="239.42168674698797" type="line"/>
      <point x="466.0" y="239.42168674698797" type="line"/>
      <point x="466.0" y="333.20481927710847" type="line"/>
      <point x="298.5481927710843" y="333.20481927710847" type="line"/>
      <point x="298.5481927710843" y="501.0" type="line"/>
      <point x="199.45180722891567" y="501.0" type="line"/>
      <point x="199.45180722891567" y="333.20481927710847" type="line"/>
      <point x="32.0" y="333.20481927710847" type="line"/>
      <point x="32.0" y="239.42168674698797" type="line"/>
      <point x="199.45180722891567" y="239.42168674698797" type="line"/>
    </contour>
  </outline>
</glyph>
<glyph name="comma" format="2">
  <advance width="227.02409638554215"/>
  <unicode hex="002C"/>
  <outline>
    <contour>
      <point x="106.01204819277109" y="-139.36746987951807" type="line"/>
      <point x="162.87349397590364" y="-78.84939759036143"/>
      <point x="186.03614457831324" y="-23.15060240963855"/>
      <point x="186.03614457831324" y="51.054216867469876" type="curve" smooth="yes"/>
      <point x="186.03614457831324" y="148.70481927710844" type="line"/>
      <point x="40.98795180722892" y="148.70481927710844" type="line"/>
      <point x="40.98795180722892" y="0.0" type="line"/>
      <point x="139.710843373494" y="0.0" type="line"/>
      <point x="109.04216867469879" y="33.295180722891565" type="line"/>
      <point x="109.04216867469879" y="-14.927710843373493"/>
      <point x="93.19277108433735" y="-51.373493975903614"/>
      <point x="52.15060240963856" y="-96.7590361445783" type="curve"/>
    </contour>
  </outline>
</glyph>
<glyph name="hyphen" format="2">
  <advance width="369.0421686746988"/>
  <unicode hex="002D"/>
  <outline>
    <contour>
      <point x="56.493975903614455" y="213.54216867469881" type="line"/>
      <point x="312.54819277108436" y="213.54216867469881" type="line"/>
      <point x="312.54819277108436" y="322.42771084337346" type="line"/>
      <point x="56.493975903614455" y="322.42771084337346" type="line"/>
    </contour>
  </outline>
</glyph>
<glyph name="period" format="2">
  <advance width="227.02409638554215"/>
  <unicode hex="002E"/>
  <outline>
    <contour>
      <point x="40.98795180722892" y="0.0" type="line"/>
      <point x="186.03614457831324" y="0.0" type="line"/>
      <point x="186.03614457831324" y="148.70481927710844" type="line"/>
      <point x="40.98795180722892" y="148.70481927710844" type="line"/>
    </contour>
  </outline>
</glyph>
<glyph name="slash" format="2">
  <advance width="287.66265060240966"/>
  <unicode hex="002F"/>
  <outline>
    <contour>
      <point x="88.34939759036143" y="-76.01204819277108" type="line"/>
      <point x="301.94578313253015" y="737.9698795180724" type="line"/>
      <point x="199.3132530120482" y="764.6987951807229" type="line"/>
      <point x="-14.283132530120483" y="-49.28313253012048" type="line"/>
    </contour>
  </outline>
</glyph>
<glyph name="zero" format="2">
  <advance width="498.0"/>
  <unicode hex="0030"/>
  <outline>
    <contour>
      <point x="249.0" y="-10.626506024096384" type="curve" smooth="yes"/>
      <point x="396.1024096385542" y="-10.626506024096384"/>
      <point x="466.32530120481925" y="108.06024096385542"/>
      <point x="466.32530120481925" y="353.3433734939759" type="curve" smooth="yes"/>
      <point x="466.32530120481925" y="597.6265060240963"/>
      <point x="396.1024096385542" y="715.6265060240964"/>
      <point x="249.0" y="715.6265060240964" type="curve" smooth="yes"/>
      <point x="102.24096385542168" y="715.6265060240964"/>
      <point x="31.67469879518073" y="597.6265060240963"/>
      <point x="31.67469879518073" y="352.0" type="curve" smooth="yes"/>
      <point x="31.67469879518073" y="107.71686746987952"/>
      <point x="102.24096385542168" y="-10.626506024096384"/>
    </contour>
    <contour>
      <point x="249.0" y="104.48192771084337" type="curve" smooth="yes"/>
      <point x="190.24698795180726" y="104.48192771084337"/>
      <point x="166.5722891566265" y="173.53012048192772"/>
      <point x="166.5722891566265" y="352.3433734939759" type="curve" smooth="yes"/>
      <point x="166.5722891566265" y="530.4397590361447"/>
      <point x="190.24698795180726" y="600.5180722891566"/>
      <point x="249.0" y="600.5180722891566" type="curve" smooth="yes"/>
      <point x="308.09638554216866" y="600.5180722891566"/>
      <point x="331.4277108433735" y="530.7831325301204"/>
      <point x="331.4277108433735" y="353.3433734939759" type="curve" smooth="yes"/>
      <point x="331.4277108433735" y="173.87349397590364"/>
      <point x="307.7530120481928" y="104.48192771084337"/>
    </contour>
  </outline>
</glyph>
<glyph name="one" format="2">
  <advance width="498.0"/>
  <unicode hex="0031"/>
  <outline>
    <contour>
      <point x="79.2289156626506" y="0.0" type="line"/>
      <point x="467.78313253012044" y="0.0" type="line"/>
      <point x="467.78313253012044" y="113.76506024096385" type="line"/>
      <point x="349.0361445783132" y="113.76506024096385" type="line"/>
      <point x="349.0361445783132" y="705.0" type="line"/>
      <point x="237.5542168674699" y="705.0" type="line"/>
      <point x="54.50000000000001" y="597.8373493975904" type="line"/>
      <point x="105.67469879518075" y="495.95180722891564" type="line"/>
      <point x="261.7469879518072" y="587.6385542168674" type="line"/>
      <point x="206.97590361445785" y="587.6385542168674" type="line"/>
      <point x="206.97590361445785" y="113.76506024096385" type="line"/>
      <point x="79.2289156626506" y="113.76506024096385" type="line"/>
    </contour>
  </outline>
</glyph>
<glyph name="two" format="2">
  <advance width="498.0"/>
  <unicode hex="0032"/>
  <outline>
    <contour>
      <point x="63.33132530120483" y="0.0" type="line"/>
      <point x="457.3554216867469" y="0.0" type="line"/>
      <point x="457.3554216867469" y="113.76506024096385" type="line"/>
      <point x="193.34939759036143" y="113.76506024096385" type="line"/>
      <point x="199.25903614457832" y="85.34939759036143" type="line"/>
      <point x="331.69879518072287" y="267.5240963855422" type="line" smooth="yes"/>
      <point x="379.16265060240966" y="333.10843373493975"/>
      <point x="436.66867469879514" y="421.0783132530121"/>
      <point x="436.66867469879514" y="523.1204819277108" type="curve" smooth="yes"/>
      <point x="436.66867469879514" y="643.6867469879518"/>
      <point x="364.84939759036143" y="715.6265060240964"/>
      <point x="237.15060240963854" y="715.6265060240964" type="curve" smooth="yes"/>
      <point x="159.8975903614458" y="715.6265060240964"/>
      <point x="84.95783132530121" y="688.566265060241"/>
      <point x="35.765060240963855" y="642.5060240963855" type="curve"/>
      <point x="77.09036144578313" y="537.3072289156627" type="line"/>
      <point x="115.21084337349397" y="574.8614457831325"/>
      <point x="165.8975903614458" y="596.8915662650602"/>
      <point x="210.48192771084337" y="596.8915662650602" type="curve" smooth="yes"/>
      <point x="267.96385542168673" y="596.8915662650602"/>
      <point x="297.1746987951807" y="563.6506024096385"/>
      <point x="297.1746987951807" y="500.8253012048193" type="curve" smooth="yes"/>
      <point x="297.1746987951807" y="447.1204819277109"/>
      <point x="272.6204819277109" y="393.07228915662654"/>
      <point x="234.7831325301205" y="340.48795180722885" type="curve" smooth="yes"/>
      <point x="63.33132530120483" y="104.82530120481927" type="line"/>
    </contour>
  </outline>
</glyph>
<glyph name="three" format="2">
  <advance width="498.0"/>
  <unicode hex="0033"/>
  <outline>
    <contour>
      <point x="229.37349397590359" y="-10.626506024096384" type="curve" smooth="yes"/>
      <point x="368.4156626506024" y="-10.626506024096384"/>
      <point x="454.6084337349398" y="71.96987951807229"/>
      <point x="454.6084337349398" y="194.56626506024097" type="curve" smooth="yes"/>
      <point x="454.6084337349398" y="288.9397590361446"/>
      <point x="405.98192771084337" y="354.2831325301205"/>
      <point x="325.9518072289157" y="371.2831325301205" type="curve"/>
      <point x="325.9518072289157" y="359.0" type="line"/>
      <point x="394.2951807228916" y="380.65662650602405"/>
      <point x="436.9518072289156" y="444.0602409638554"/>
      <point x="436.9518072289156" y="529.777108433735" type="curve" smooth="yes"/>
      <point x="436.9518072289156" y="642.0301204819276"/>
      <point x="362.7590361445783" y="715.6265060240964"/>
      <point x="237.43373493975903" y="715.6265060240964" type="curve" smooth="yes"/>
      <point x="160.52409638554215" y="715.6265060240964"/>
      <point x="85.30120481927712" y="688.2530120481928"/>
      <point x="36.765060240963855" y="641.1626506024096" type="curve"/>
      <point x="78.06024096385542" y="534.6204819277109" type="line"/>
      <point x="120.80722891566265" y="574.5180722891566"/>
      <point x="166.18072289156626" y="596.5481927710842"/>
      <point x="214.36144578313255" y="596.5481927710842" type="curve" smooth="yes"/>
      <point x="273.4698795180723" y="596.5481927710842"/>
      <point x="301.0843373493976" y="565.3072289156627"/>
      <point x="301.0843373493976" y="508.76506024096386" type="curve" smooth="yes"/>
      <point x="301.0843373493976" y="447.84939759036143"/>
      <point x="270.09638554216866" y="413.45783132530124"/>
      <point x="213.9879518072289" y="413.45783132530124" type="curve" smooth="yes"/>
      <point x="138.01807228915663" y="413.45783132530124" type="line"/>
      <point x="138.01807228915663" y="297.94578313253015" type="line"/>
      <point x="222.89759036144582" y="297.94578313253015" type="line" smooth="yes"/>
      <point x="281.8132530120482" y="297.94578313253015"/>
      <point x="318.39759036144574" y="268.3012048192771"/>
      <point x="318.39759036144574" y="204.4156626506024" type="curve" smooth="yes"/>
      <point x="318.39759036144574" y="145.12650602409641"/>
      <point x="285.6927710843374" y="108.45180722891565"/>
      <point x="219.52409638554212" y="108.45180722891565" type="curve" smooth="yes"/>
      <point x="165.77710843373492" y="108.45180722891565"/>
      <point x="110.21084337349397" y="131.45180722891567"/>
      <point x="67.74698795180723" y="168.00602409638554" type="curve"/>
      <point x="27.42168674698795" y="60.150602409638566" type="line"/>
      <point x="72.10843373493977" y="17.060240963855424"/>
      <point x="149.210843373494" y="-10.626506024096384"/>
    </contour>
  </outline>
</glyph>
<glyph name="four" format="2">
  <advance width="498.0"/>
  <unicode hex="0034"/>
  <outline>
    <contour>
      <point x="275.43975903614455" y="0.0" type="line"/>
      <point x="405.1746987951807" y="0.0" type="line"/>
      <point x="405.1746987951807" y="130.7951807228916" type="line"/>
      <point x="479.7289156626506" y="130.7951807228916" type="line"/>
      <point x="479.7289156626506" y="242.83132530120483" type="line"/>
      <point x="405.1746987951807" y="242.83132530120483" type="line"/>
      <point x="405.1746987951807" y="705.0" type="line"/>
      <point x="289.37951807228916" y="705.0" type="line"/>
      <point x="26.33132530120482" y="232.4578313253012" type="line"/>
      <point x="26.33132530120482" y="130.7951807228916" type="line"/>
      <point x="275.43975903614455" y="130.7951807228916" type="line"/>
    </contour>
    <contour>
      <point x="275.43975903614455" y="242.83132530120483" type="line"/>
      <point x="131.7710843373494" y="242.83132530120483" type="line"/>
      <point x="131.7710843373494" y="216.32530120481928" type="line"/>
      <point x="302.7831325301205" y="534.2710843373494" type="line"/>
      <point x="275.43975903614455" y="534.2710843373494" type="line"/>
    </contour>
  </outline>
</glyph>
<glyph name="five" format="2">
  <advance width="498.0"/>
  <unicode hex="0035"/>
  <outline>
    <contour>
      <point x="242.98795180722888" y="-10.626506024096384" type="curve" smooth="yes"/>
      <point x="384.9698795180723" y="-10.626506024096384"/>
      <point x="470.4156626506023" y="79.62650602409639"/>
      <point x="470.4156626506023" y="236.1024096385542" type="curve" smooth="yes"/>
      <point x="470.4156626506023" y="370.1024096385542"/>
      <point x="406.3855421686747" y="451.4156626506024"/>
      <point x="295.0120481927711" y="451.4156626506024" type="curve" smooth="yes"/>
      <point x="237.17469879518072" y="451.4156626506024"/>
      <point x="195.36746987951807" y="428.60843373493975"/>
      <point x="167.65060240963857" y="382.6807228915663" type="curve"/>
      <point x="191.2168674698795" y="382.6807228915663" type="line"/>
      <point x="191.2168674698795" y="590.8915662650602" type="line"/>
      <point x="432.4156626506025" y="590.8915662650602" type="line"/>
      <point x="432.4156626506025" y="705.0" type="line"/>
      <point x="61.82530120481928" y="705.0" type="line"/>
      <point x="61.82530120481928" y="275.0783132530121" type="line"/>
      <point x="152.66867469879517" y="275.0783132530121" type="line"/>
      <point x="178.75903614457832" y="317.12650602409644"/>
      <point x="207.96987951807228" y="335.3072289156626"/>
      <point x="247.61445783132527" y="335.3072289156626" type="curve" smooth="yes"/>
      <point x="304.5602409638554" y="335.3072289156626"/>
      <point x="334.89156626506025" y="295.5722891566265"/>
      <point x="334.89156626506025" y="226.19277108433735" type="curve" smooth="yes"/>
      <point x="334.89156626506025" y="148.84337349397592"/>
      <point x="298.96385542168673" y="108.45180722891565"/>
      <point x="233.10843373493975" y="108.45180722891565" type="curve" smooth="yes"/>
      <point x="185.24096385542168" y="108.45180722891565"/>
      <point x="135.55421686746988" y="128.82530120481928"/>
      <point x="88.15060240963855" y="168.00602409638554" type="curve"/>
      <point x="47.51204819277109" y="60.150602409638566" type="line"/>
      <point x="94.1686746987952" y="15.746987951807231"/>
      <point x="166.73493975903617" y="-10.626506024096384"/>
    </contour>
  </outline>
</glyph>
<glyph name="six" format="2">
  <advance width="498.0"/>
  <unicode hex="0036"/>
  <outline>
    <contour>
      <point x="261.6566265060241" y="-10.626506024096384" type="curve" smooth="yes"/>
      <point x="392.41566265060237" y="-10.626506024096384"/>
      <point x="468.2951807228916" y="81.28313253012048"/>
      <point x="468.2951807228916" y="228.78915662650604" type="curve" smooth="yes"/>
      <point x="468.2951807228916" y="365.4156626506024"/>
      <point x="403.29518072289153" y="454.6686746987952"/>
      <point x="302.5180722891567" y="454.6686746987952" type="curve" smooth="yes"/>
      <point x="220.5" y="454.6686746987952"/>
      <point x="170.6024096385542" y="398.62048192771084"/>
      <point x="160.37951807228916" y="298.2289156626506" type="curve"/>
      <point x="171.6024096385542" y="298.2289156626506" type="line"/>
      <point x="171.6024096385542" y="365.144578313253" type="line" smooth="yes"/>
      <point x="171.6024096385542" y="486.1144578313253"/>
      <point x="193.23493975903617" y="596.5481927710842"/>
      <point x="301.07228915662654" y="596.5481927710842" type="curve" smooth="yes"/>
      <point x="346.22289156626505" y="596.5481927710842"/>
      <point x="391.9096385542169" y="577.4578313253012"/>
      <point x="429.9397590361446" y="540.2469879518072" type="curve"/>
      <point x="470.54819277108436" y="646.132530120482" type="line"/>
      <point x="426.01204819277115" y="690.566265060241"/>
      <point x="365.0421686746988" y="715.6265060240964"/>
      <point x="294.4759036144578" y="715.6265060240964" type="curve" smooth="yes"/>
      <point x="130.83734939759034" y="715.6265060240964"/>
      <point x="39.39156626506024" y="585.566265060241"/>
      <point x="39.39156626506024" y="335.6566265060241" type="curve" smooth="yes"/>
      <point x="39.39156626506024" y="109.93975903614458"/>
      <point x="113.2710843373494" y="-10.626506024096384"/>
    </contour>
    <contour>
      <point x="264.34337349397595" y="100.9156626506024" type="curve" smooth="yes"/>
      <point x="217.05421686746988" y="100.9156626506024"/>
      <point x="190.66265060240963" y="142.96385542168676"/>
      <point x="190.66265060240963" y="221.84939759036146" type="curve" smooth="yes"/>
      <point x="190.66265060240963" y="302.0481927710843"/>
      <point x="218.39759036144576" y="344.4698795180723"/>
      <point x="265.0301204819277" y="344.4698795180723" type="curve" smooth="yes"/>
      <point x="311.9759036144578" y="344.4698795180723"/>
      <point x="338.68072289156623" y="302.7349397590361"/>
      <point x="338.68072289156623" y="223.19277108433735" type="curve" smooth="yes"/>
      <point x="338.68072289156623" y="144.27710843373495"/>
      <point x="312.28915662650604" y="100.9156626506024"/>
    </contour>
  </outline>
</glyph>
<glyph name="seven" format="2">
  <advance width="498.0"/>
  <unicode hex="0037"/>
  <outline>
    <contour>
      <point x="53.59036144578313" y="0.0" type="line"/>
      <point x="209.53012048192772" y="0.0" type="line"/>
      <point x="458.89156626506025" y="598.5481927710842" type="line"/>
      <point x="458.89156626506025" y="705.0" type="line"/>
      <point x="40.10843373493976" y="705.0" type="line"/>
      <point x="40.10843373493976" y="581.0120481927711" type="line"/>
      <point x="330.36746987951807" y="581.0120481927711" type="line"/>
      <point x="330.36746987951807" y="633.9939759036146" type="line"/>
    </contour>
  </outline>
</glyph>
<glyph name="eight" format="2">
  <advance width="498.0"/>
  <unicode hex="0038"/>
  <outline>
    <contour>
      <point x="249.0" y="-10.626506024096384" type="curve" smooth="yes"/>
      <point x="389.7590361445783" y="-10.626506024096384"/>
      <point x="470.98192771084337" y="64.0"/>
      <point x="470.98192771084337" y="188.90963855421688" type="curve" smooth="yes"/>
      <point x="470.98192771084337" y="296.7590361445783"/>
      <point x="411.13253012048193" y="371.32530120481925"/>
      <point x="322.566265060241" y="372.50602409638554" type="curve"/>
      <point x="322.566265060241" y="346.46385542168673" type="line"/>
      <point x="402.1024096385542" y="355.27108433734935"/>
      <point x="456.35542168674704" y="426.18072289156623"/>
      <point x="456.35542168674704" y="523.1204819277108" type="curve" smooth="yes"/>
      <point x="456.35542168674704" y="643.0"/>
      <point x="378.13253012048193" y="715.6265060240964"/>
      <point x="249.0" y="715.6265060240964" type="curve" smooth="yes"/>
      <point x="120.55421686746988" y="715.6265060240964"/>
      <point x="42.33132530120482" y="643.0"/>
      <point x="42.33132530120482" y="523.1204819277108" type="curve" smooth="yes"/>
      <point x="42.33132530120482" y="426.5240963855422"/>
      <point x="96.5843373493976" y="355.6144578313253"/>
      <point x="175.43373493975906" y="346.4638554216868" type="curve"/>
      <point x="175.43373493975906" y="372.50602409638554" type="line"/>
      <point x="87.55421686746989" y="370.9819277108434"/>
      <point x="27.01807228915663" y="296.4156626506024"/>
      <point x="27.01807228915663" y="188.90963855421688" type="curve" smooth="yes"/>
      <point x="27.01807228915663" y="64.0"/>
      <point x="108.24096385542168" y="-10.626506024096384"/>
    </contour>
    <contour>
      <point x="249.0" y="98.9156626506024" type="curve" smooth="yes"/>
      <point x="189.02409638554218" y="98.9156626506024"/>
      <point x="156.31927710843374" y="134.56024096385545"/>
      <point x="156.31927710843374" y="201.44578313253012" type="curve" smooth="yes"/>
      <point x="156.31927710843374" y="268.3313253012048"/>
      <point x="187.99397590361448" y="301.9156626506024"/>
      <point x="249.0" y="301.9156626506024" type="curve" smooth="yes"/>
      <point x="310.6927710843374" y="301.9156626506024"/>
      <point x="341.68072289156623" y="268.3313253012048"/>
      <point x="341.68072289156623" y="201.44578313253012" type="curve" smooth="yes"/>
      <point x="341.68072289156623" y="134.56024096385545"/>
      <point x="310.00602409638554" y="98.9156626506024"/>
    </contour>
    <contour>
      <point x="249.0" y="411.4578313253012" type="curve" smooth="yes"/>
      <point x="200.02409638554218" y="411.4578313253012"/>
      <point x="171.94578313253012" y="446.13253012048193"/>
      <point x="171.94578313253012" y="509.61445783132524" type="curve" smooth="yes"/>
      <point x="171.94578313253012" y="572.4397590361446"/>
      <point x="199.6807228915663" y="606.0843373493975"/>
      <point x="249.0" y="606.0843373493975" type="curve" smooth="yes"/>
      <point x="298.31927710843377" y="606.0843373493975"/>
      <point x="326.7409638554217" y="572.4397590361446"/>
      <point x="326.7409638554217" y="509.61445783132524" type="curve" smooth="yes"/>
      <point x="326.7409638554217" y="446.13253012048193"/>
      <point x="297.9759036144578" y="411.4578313253012"/>
    </contour>
  </outline>
</glyph>
<glyph name="nine" format="2">
  <advance width="498.0"/>
  <unicode hex="0039"/>
  <outline>
    <contour>
      <point x="204.86746987951807" y="-10.626506024096384" type="curve" smooth="yes"/>
      <point x="367.81927710843377" y="-10.626506024096384"/>
      <point x="459.2650602409639" y="120.12048192771084"/>
      <point x="459.2650602409639" y="369.3433734939759" type="curve" smooth="yes"/>
      <point x="459.2650602409639" y="595.0602409638556"/>
      <point x="386.0722891566265" y="715.6265060240964"/>
      <point x="236.99999999999997" y="715.6265060240964" type="curve" smooth="yes"/>
      <point x="106.92771084337349" y="715.6265060240964"/>
      <point x="30.361445783132538" y="624.4036144578313"/>
      <point x="30.361445783132538" y="476.21084337349396" type="curve" smooth="yes"/>
      <point x="30.361445783132538" y="339.5843373493976"/>
      <point x="96.04819277108435" y="250.33132530120483"/>
      <point x="196.13855421686745" y="250.33132530120483" type="curve" smooth="yes"/>
      <point x="278.8433734939759" y="250.33132530120483"/>
      <point x="328.7409638554217" y="306.37951807228916"/>
      <point x="338.27710843373495" y="406.7710843373494" type="curve"/>
      <point x="327.7409638554217" y="406.7710843373494" type="line"/>
      <point x="327.7409638554217" y="339.855421686747" type="line" smooth="yes"/>
      <point x="327.7409638554217" y="218.8855421686747"/>
      <point x="306.10843373493975" y="108.45180722891565"/>
      <point x="197.5843373493976" y="108.45180722891565" type="curve" smooth="yes"/>
      <point x="152.43373493975903" y="108.45180722891565"/>
      <point x="106.74698795180723" y="128.2289156626506"/>
      <point x="69.40361445783132" y="165.43975903614458" type="curve"/>
      <point x="28.10843373493976" y="59.55421686746989" type="line"/>
      <point x="73.33132530120483" y="15.120481927710843"/>
      <point x="133.6144578313253" y="-10.626506024096384"/>
    </contour>
    <contour>
      <point x="234.3132530120482" y="361.21686746987956" type="curve" smooth="yes"/>
      <point x="187.3674698795181" y="361.21686746987956"/>
      <point x="160.66265060240963" y="402.2650602409639"/>
      <point x="160.66265060240963" y="481.8072289156626" type="curve" smooth="yes"/>
      <point x="160.66265060240963" y="560.7228915662652"/>
      <point x="187.0542168674699" y="604.7710843373494"/>
      <point x="235.0" y="604.7710843373494" type="curve" smooth="yes"/>
      <point x="282.289156626506" y="604.7710843373494"/>
      <point x="308.6807228915663" y="562.0361445783133"/>
      <point x="308.6807228915663" y="483.15060240963857" type="curve" smooth="yes"/>
      <point x="308.6807228915663" y="402.9518072289157"/>
      <point x="280.9457831325301" y="361.21686746987956"/>
    </contour>
  </outline>
</glyph>
<glyph name="colon" format="2">
  <advance width="227.02409638554215"/>
  <unicode hex="003A"/>
  <outline>
    <contour>
      <point x="40.98795180722892" y="342.2048192771084" type="line"/>
      <point x="186.03614457831324" y="342.2048192771084" type="line"/>
      <point x="186.03614457831324" y="490.566265060241" type="line"/>
      <point x="40.98795180722892" y="490.566265060241" type="line"/>
    </contour>
    <contour>
      <point x="40.98795180722892" y="0.0" type="line"/>
      <point x="186.03614457831324" y="0.0" type="line"/>
      <point x="186.03614457831324" y="149.04819277108433" type="line"/>
      <point x="40.98795180722892" y="149.04819277108433" type="line"/>
    </contour>
  </outline>
</glyph>
<glyph name="semicolon" format="2">
  <advance width="227.02409638554215"/>
  <unicode hex="003B"/>
  <outline>
    <contour>
      <point x="106.01204819277109" y="-143.96385542168673" type="line"/>
      <point x="162.87349397590364" y="-83.44578313253011"/>
      <point x="186.03614457831324" y="-27.746987951807228"/>
      <point x="186.03614457831324" y="46.4578313253012" type="curve" smooth="yes"/>
      <point x="186.03614457831324" y="148.70481927710844" type="line"/>
      <point x="40.98795180722892" y="148.70481927710844" type="line"/>
      <point x="40.98795180722892" y="0.0" type="line"/>
      <point x="140.05421686746988" y="0.0" type="line"/>
      <point x="109.04216867469879" y="28.698795180722893" type="line"/>
      <point x="109.04216867469879" y="-19.524096385542165"/>
      <point x="93.19277108433735" y="-55.626506024096386"/>
      <point x="52.15060240963856" y="-101.01204819277108" type="curve"/>
    </contour>
    <contour>
      <point x="40.98795180722892" y="342.2048192771084" type="line"/>
      <point x="186.03614457831324" y="342.2048192771084" type="line"/>
      <point x="186.03614457831324" y="490.566265060241" type="line"/>
      <point x="40.98795180722892" y="490.566265060241" type="line"/>
    </contour>
  </outline>
</glyph>
<glyph name="less" format="2">
  <advance width="498.0"/>
  <unicode hex="003C"/>
  <outline>
    <contour>
      <point x="466.0" y="35.524096385542165" type="line"/>
      <point x="466.0" y="140.21686746987953" type="line"/>
      <point x="67.84939759036143" y="320.98192771084337" type="line"/>
      <point x="67.84939759036143" y="253.36144578313255" type="line"/>
      <point x="466.0" y="433.7831325301205" type="line"/>
      <point x="466.0" y="539.1626506024096" type="line"/>
      <point x="32.0" y="338.8012048192771" type="line"/>
      <point x="32.0" y="235.5421686746988" type="line"/>
    </contour>
  </outline>
</glyph>
<glyph name="equal" format="2">
  <advance width="498.0"/>
  <unicode hex="003D"/>
  <outline>
    <contour>
      <point x="32.0" y="340.76506024096386" type="line"/>
      <point x="466.0" y="340.76506024096386" type="line"/>
      <point x="466.0" y="434.54819277108436" type="line"/>
      <point x="32.0" y="434.54819277108436" type="line"/>
    </contour>
    <contour>
      <point x="32.0" y="140.13855421686748" type="line"/>
      <point x="466.0" y="140.13855421686748" type="line"/>
      <point x="466.0" y="233.23493975903614" type="line"/>
      <point x="32.0" y="233.23493975903614" type="line"/>
    </contour>
  </outline>
</glyph>
<glyph name="greater" format="2">
  <advance width="498.0"/>
  <unicode hex="003E"/>
  <outline>
    <contour>
      <point x="32.0" y="35.524096385542165" type="line"/>
      <point x="466.0" y="235.5421686746988" type="line"/>
      <point x="466.0" y="338.8012048192771" type="line"/>
      <point x="32.0" y="539.1626506024096" type="line"/>
      <point x="32.0" y="433.7831325301205" type="line"/>
      <point x="430.83734939759034" y="254.67469879518075" type="line"/>
      <point x="430.83734939759034" y="319.66867469879514" type="line"/>
      <point x="32.0" y="140.21686746987953" type="line"/>
    </contour>
  </outline>
</glyph>
<glyph name="question" format="2">
  <advance width="394.48795180722885"/>
  <unicode hex="003F"/>
  <outline>
    <contour>
      <point x="153.6566265060241" y="215.81325301204822" type="line"/>
      <point x="235.46987951807228" y="215.81325301204822" type="line"/>
      <point x="238.7530120481928" y="246.31927710843374" type="line" smooth="yes"/>
      <point x="243.40963855421685" y="285.4698795180722"/>
      <point x="255.2590361445783" y="316.2469879518072"/>
      <point x="307.8734939759036" y="376.566265060241" type="curve" smooth="yes"/>
      <point x="356.9759036144578" y="427.56626506024094"/>
      <point x="384.84337349397595" y="474.31325301204816"/>
      <point x="384.84337349397595" y="542.9277108433735" type="curve" smooth="yes"/>
      <point x="384.84337349397595" y="651.7771084337351"/>
      <point x="313.7710843373494" y="715.6265060240964"/>
      <point x="201.75903614457832" y="715.6265060240964" type="curve" smooth="yes"/>
      <point x="127.84939759036145" y="715.6265060240964"/>
      <point x="53.93975903614457" y="687.2530120481928"/>
      <point x="6.373493975903614" y="642.5060240963855" type="curve"/>
      <point x="46.325301204819276" y="537.3072289156627" type="line"/>
      <point x="93.66867469879519" y="578.8012048192771"/>
      <point x="135.16265060240966" y="596.8915662650602"/>
      <point x="177.40361445783134" y="596.8915662650602" type="curve" smooth="yes"/>
      <point x="223.45180722891567" y="596.8915662650602"/>
      <point x="245.03614457831327" y="574.3373493975903"/>
      <point x="245.03614457831327" y="527.5120481927711" type="curve" smooth="yes"/>
      <point x="245.03614457831327" y="487.9096385542168"/>
      <point x="229.73493975903614" y="460.9518072289157"/>
      <point x="207.9879518072289" y="427.17469879518075" type="curve" smooth="yes"/>
      <point x="159.25301204819277" y="351.22891566265054"/>
      <point x="153.6566265060241" y="304.5722891566265"/>
      <point x="153.6566265060241" y="259.078313253012" type="curve" smooth="yes"/>
    </contour>
    <contour>
      <point x="121.86746987951807" y="0.0" type="line"/>
      <point x="267.2590361445783" y="0.0" type="line"/>
      <point x="267.2590361445783" y="148.70481927710844" type="line"/>
      <point x="121.86746987951807" y="148.70481927710844" type="line"/>
    </contour>
  </outline>
</glyph>
<glyph name="at" format="2">
  <advance width="810.9518072289156"/>
  <unicode hex="0040"/>
  <outline>
    <contour>
      <point x="412.13253012048193" y="-165.2831325301205" type="curve" smooth="yes"/>
      <point x="504.6265060240963" y="-165.2831325301205"/>
      <point x="587.3132530120481" y="-135.47590361445785"/>
      <point x="641.0" y="-82.86144578313254" type="curve"/>
      <point x="599.5542168674699" y="-16.80722891566265" type="line"/>
      <point x="554.2409638554217" y="-59.13855421686747"/>
      <point x="489.7168674698795" y="-82.31927710843374"/>
      <point x="414.4457831325301" y="-82.31927710843374" type="curve" smooth="yes"/>
      <point x="238.921686746988" y="-82.31927710843374"/>
      <point x="136.77108433734938" y="42.35542168674698"/>
      <point x="136.77108433734938" y="261.15060240963857" type="curve" smooth="yes"/>
      <point x="136.77108433734938" y="490.8253012048193"/>
      <point x="250.48795180722894" y="632.0060240963855"/>
      <point x="436.5783132530121" y="632.0060240963855" type="curve" smooth="yes"/>
      <point x="592.8493975903615" y="632.0060240963855"/>
      <point x="677.1506024096386" y="530.2710843373494"/>
      <point x="677.1506024096386" y="333.0301204819277" type="curve" smooth="yes"/>
      <point x="677.1506024096386" y="215.60843373493975"/>
      <point x="646.9096385542169" y="138.30722891566265"/>
      <point x="600.8313253012047" y="138.30722891566265" type="curve" smooth="yes"/>
      <point x="578.9638554216867" y="138.30722891566265"/>
      <point x="567.5602409638553" y="156.05421686746988"/>
      <point x="567.5602409638553" y="190.63855421686745" type="curve" smooth="yes"/>
      <point x="567.5602409638553" y="204.60843373493975"/>
      <point x="569.8734939759037" y="224.86144578313252"/>
      <point x="573.8433734939758" y="253.93373493975903" type="curve" smooth="yes"/>
      <point x="605.277108433735" y="489.9096385542169" type="line"/>
      <point x="505.24096385542174" y="489.9096385542169" type="line"/>
      <point x="491.2710843373493" y="396.22289156626505" type="line"/>
      <point x="509.40361445783134" y="396.22289156626505" type="line"/>
      <point x="493.8072289156626" y="467.81927710843377"/>
      <point x="460.40361445783134" y="500.53614457831327"/>
      <point x="402.0602409638554" y="500.53614457831327" type="curve" smooth="yes"/>
      <point x="299.03012048192767" y="500.53614457831327"/>
      <point x="228.65662650602408" y="398.13253012048193"/>
      <point x="228.65662650602408" y="249.47590361445785" type="curve" smooth="yes"/>
      <point x="228.65662650602408" y="126.28313253012048"/>
      <point x="276.59638554216866" y="58.68674698795181"/>
      <point x="364.8192771084337" y="58.68674698795181" type="curve" smooth="yes"/>
      <point x="436.6385542168675" y="58.68674698795181"/>
      <point x="484.95180722891564" y="104.53614457831326"/>
      <point x="512.6686746987953" y="199.8313253012048" type="curve"/>
      <point x="477.40361445783134" y="185.7168674698795" type="line"/>
      <point x="482.84939759036143" y="104.37349397590361"/>
      <point x="522.698795180723" y="58.68674698795181"/>
      <point x="590.9819277108434" y="58.68674698795181" type="curve" smooth="yes"/>
      <point x="697.801204819277" y="58.68674698795181"/>
      <point x="768.0240963855422" y="170.3132530120482"/>
      <point x="768.0240963855422" y="341.96987951807233" type="curve" smooth="yes"/>
      <point x="768.0240963855422" y="574.2831325301205"/>
      <point x="637.5180722891566" y="715.6265060240964"/>
      <point x="434.32530120481925" y="715.6265060240964" type="curve" smooth="yes"/>
      <point x="198.3132530120482" y="715.6265060240964"/>
      <point x="42.92771084337349" y="526.2409638554218"/>
      <point x="42.92771084337349" y="258.5240963855422" type="curve" smooth="yes"/>
      <point x="42.92771084337349" y="-0.9397590361445785"/>
      <point x="186.7168674698795" y="-165.2831325301205"/>
    </contour>
    <contour>
      <point x="391.4578313253012" y="144.24698795180723" type="curve" smooth="yes"/>
      <point x="353.1265060240964" y="144.24698795180723"/>
      <point x="335.25903614457826" y="178.4578313253012"/>
      <point x="335.25903614457826" y="252.1024096385542" type="curve" smooth="yes"/>
      <point x="335.25903614457826" y="353.55421686746985"/>
      <point x="368.9638554216868" y="413.31927710843377"/>
      <point x="425.13253012048193" y="413.31927710843377" type="curve" smooth="yes"/>
      <point x="463.4638554216868" y="413.31927710843377"/>
      <point x="478.9578313253012" y="385.1385542168675"/>
      <point x="478.9578313253012" y="314.49397590361446" type="curve" smooth="yes"/>
      <point x="478.9578313253012" y="209.35542168674698"/>
      <point x="445.25301204819266" y="144.24698795180723"/>
    </contour>
  </outline>
</glyph>
<glyph name="A" format="2">
  <advance width="624.4879518072289"/>
  <unicode hex="0041"/>
  <anchor x="312.4156626506024" y="0.0" name="bottom"/>
  <anchor x="576.4457831325302" y="0.0" name="ogonek"/>
  <anchor x="312.7590361445783" y="705.0" name="top"/>
  <outline>
    <contour>
      <point x="-10.710843373493974" y="0.0" type="line"/>
      <point x="131.40963855421685" y="0.0" type="line"/>
      <point x="194.81325301204822" y="196.46385542168673" type="line"/>
      <point x="143.60843373493975" y="158.25903614457832" type="line"/>
      <point x="479.56626506024094" y="158.25903614457832" type="line"/>
      <point x="428.3614457831325" y="196.46385542168673" type="line"/>
      <point x="492.1084337349397" y="0.0" type="line"/>
      <point x="635.8855421686746" y="0.0" type="line"/>
      <point x="370.18674698795184" y="705.0" type="line"/>
      <point x="254.9879518072289" y="705.0" type="line"/>
    </contour>
    <contour>
      <point x="310.7590361445783" y="552.9698795180723" type="line"/>
      <point x="311.7590361445783" y="552.9698795180723" type="line"/>
      <point x="415.76506024096386" y="233.90963855421688" type="line"/>
      <point x="432.04819277108436" y="269.1144578313253" type="line"/>
      <point x="190.4698795180723" y="269.1144578313253" type="line"/>
      <point x="207.09638554216866" y="233.90963855421688" type="line"/>
    </contour>
  </outline>
</glyph>
<glyph name="B" format="2">
  <advance width="576.6385542168675"/>
  <unicode hex="0042"/>
  <anchor x="287.53614457831327" y="0.0" name="bottom"/>
  <anchor x="287.87951807228916" y="705.0" name="top"/>
  <outline>
    <contour>
      <point x="58.391566265060234" y="0.0" type="line"/>
      <point x="329.20481927710847" y="0.0" type="line" smooth="yes"/>
      <point x="456.45783132530113" y="0.0"/>
      <point x="538.2771084337348" y="75.22289156626506"/>
      <point x="538.2771084337348" y="199.16265060240963" type="curve" smooth="yes"/>
      <point x="538.2771084337348" y="293.00000000000006"/>
      <point x="494.5903614457831" y="354.9698795180723"/>
      <point x="414.7831325301205" y="370.9096385542169" type="curve"/>
      <point x="414.7831325301205" y="355.28313253012044" type="line"/>
      <point x="483.3072289156626" y="375.6265060240964"/>
      <point x="522.3072289156627" y="437.2228915662651"/>
      <point x="522.3072289156627" y="522.0602409638554" type="curve" smooth="yes"/>
      <point x="522.3072289156627" y="636.7168674698795"/>
      <point x="445.1144578313253" y="705.0"/>
      <point x="321.17469879518075" y="705.0" type="curve" smooth="yes"/>
      <point x="58.391566265060234" y="705.0" type="line"/>
    </contour>
    <contour>
      <point x="193.8855421686747" y="106.22891566265059" type="line"/>
      <point x="193.8855421686747" y="304.5421686746988" type="line"/>
      <point x="309.84939759036143" y="304.5421686746988" type="line" smooth="yes"/>
      <point x="371.5120481927711" y="304.5421686746988"/>
      <point x="402.066265060241" y="271.01807228915663"/>
      <point x="402.066265060241" y="205.38554216867468" type="curve" smooth="yes"/>
      <point x="402.066265060241" y="141.4698795180723"/>
      <point x="370.1385542168675" y="106.22891566265059"/>
      <point x="308.4759036144578" y="106.22891566265059" type="curve" smooth="yes"/>
    </contour>
    <contour>
      <point x="193.8855421686747" y="410.77108433734935" type="line"/>
      <point x="193.8855421686747" y="598.7710843373494" type="line"/>
      <point x="294.1927710843374" y="598.7710843373494" type="line" smooth="yes"/>
      <point x="355.1385542168675" y="598.7710843373494"/>
      <point x="386.4397590361446" y="566.5000000000001"/>
      <point x="386.4397590361446" y="505.9578313253012" type="curve" smooth="yes"/>
      <point x="386.4397590361446" y="444.7590361445784"/>
      <point x="354.10843373493975" y="410.77108433734935"/>
      <point x="295.22289156626505" y="410.77108433734935" type="curve" smooth="yes"/>
    </contour>
  </outline>
</glyph>
<glyph name="C" format="2">
  <advance width="565.132530120482"/>
  <unicode hex="0043"/>
  <anchor x="326.5060240963856" y="0.0" name="bottom"/>
  <anchor x="326.1927710843373" y="705.0" name="top"/>
  <outline>
    <contour>
      <point x="337.6686746987952" y="-10.626506024096384" type="curve" smooth="yes"/>
      <point x="419.63855421686753" y="-10.626506024096384"/>
      <point x="489.26506024096386" y="15.433734939759038"/>
      <point x="537.234939759036" y="63.180722891566276" type="curve"/>
      <point x="497.5662650602409" y="175.25903614457832" type="line"/>
      <point x="451.5361445783132" y="134.07831325301206"/>
      <point x="404.1024096385542" y="114.67469879518072"/>
      <point x="349.54819277108436" y="114.67469879518072" type="curve" smooth="yes"/>
      <point x="241.94578313253012" y="114.67469879518072"/>
      <point x="192.58433734939757" y="189.50000000000003"/>
      <point x="192.58433734939757" y="353.0" type="curve" smooth="yes"/>
      <point x="192.58433734939757" y="516.1867469879518"/>
      <point x="241.6024096385542" y="590.3253012048193"/>
      <point x="349.20481927710847" y="590.3253012048193" type="curve" smooth="yes"/>
      <point x="403.44578313253015" y="590.3253012048193"/>
      <point x="451.5361445783132" y="570.9216867469879"/>
      <point x="498.222891566265" y="529.7409638554217" type="curve"/>
      <point x="537.234939759036" y="641.8192771084338" type="line"/>
      <point x="489.921686746988" y="690.2530120481928"/>
      <point x="420.2951807228916" y="715.6265060240964"/>
      <point x="338.3253012048193" y="715.6265060240964" type="curve" smooth="yes"/>
      <point x="151.6265060240964" y="715.6265060240964"/>
      <point x="42.92771084337349" y="582.7469879518072"/>
      <point x="42.92771084337349" y="352.6566265060241" type="curve" smooth="yes"/>
      <point x="42.92771084337349" y="122.25301204819277"/>
      <point x="150.9698795180723" y="-10.626506024096384"/>
    </contour>
  </outline>
</glyph>
<glyph name="D" format="2">
  <advance width="643.3373493975903"/>
  <unicode hex="0044"/>
  <anchor x="318.7289156626506" y="0.0" name="bottom"/>
  <anchor x="169.60843373493975" y="358.0" name="center"/>
  <anchor x="319.07228915662654" y="705.0" name="top"/>
  <outline>
    <contour>
      <point x="58.391566265060234" y="0.0" type="line"/>
      <point x="296.5783132530121" y="0.0" type="line" smooth="yes"/>
      <point x="495.3373493975903" y="0.0"/>
      <point x="601.0963855421686" y="122.59638554216868"/>
      <point x="601.0963855421686" y="353.0" type="curve" smooth="yes"/>
      <point x="601.0963855421686" y="583.0903614457832"/>
      <point x="495.3373493975903" y="705.0"/>
      <point x="296.5783132530121" y="705.0" type="curve" smooth="yes"/>
      <point x="58.391566265060234" y="705.0" type="line"/>
    </contour>
    <contour>
      <point x="200.45180722891567" y="118.04819277108433" type="line"/>
      <point x="200.45180722891567" y="586.9518072289156" type="line"/>
      <point x="288.32530120481925" y="586.9518072289156" type="line" smooth="yes"/>
      <point x="403.39156626506025" y="586.9518072289156"/>
      <point x="453.4096385542169" y="517.1867469879518"/>
      <point x="453.4096385542169" y="353.0" type="curve" smooth="yes"/>
      <point x="453.4096385542169" y="188.81325301204822"/>
      <point x="404.39156626506025" y="118.04819277108433"/>
      <point x="288.32530120481925" y="118.04819277108433" type="curve" smooth="yes"/>
    </contour>
  </outline>
</glyph>
<glyph name="E" format="2">
  <advance width="504.5481927710843"/>
  <unicode hex="0045"/>
  <anchor x="273.87951807228916" y="0.0" name="bottom"/>
  <anchor x="409.9096385542169" y="0.0" name="ogonek"/>
  <anchor x="273.87951807228916" y="705.0" name="top"/>
  <anchor x="21.120481927710845" y="705.0" name="topleft"/>
  <outline>
    <contour>
      <point x="58.391566265060234" y="0.0" type="line"/>
      <point x="457.8915662650603" y="0.0" type="line"/>
      <point x="457.8915662650603" y="111.51204819277108" type="line"/>
      <point x="193.8855421686747" y="111.51204819277108" type="line"/>
      <point x="193.8855421686747" y="301.9156626506024" type="line"/>
      <point x="436.8313253012048" y="301.9156626506024" type="line"/>
      <point x="436.8313253012048" y="413.42771084337346" type="line"/>
      <point x="193.8855421686747" y="413.42771084337346" type="line"/>
      <point x="193.8855421686747" y="593.4879518072289" type="line"/>
      <point x="457.8915662650603" y="593.4879518072289" type="line"/>
      <point x="457.8915662650603" y="705.0" type="line"/>
      <point x="58.391566265060234" y="705.0" type="line"/>
    </contour>
  </outline>
</glyph>
<glyph name="F" format="2">
  <advance width="475.8915662650603"/>
  <unicode hex="0046"/>
  <anchor x="250.90963855421688" y="0.0" name="bottom"/>
  <anchor x="254.19277108433732" y="705.0" name="top"/>
  <outline>
    <contour>
      <point x="58.391566265060234" y="0.0" type="line"/>
      <point x="200.45180722891567" y="0.0" type="line"/>
      <point x="200.45180722891567" y="296.31927710843377" type="line"/>
      <point x="435.2048192771085" y="296.31927710843377" type="line"/>
      <point x="435.2048192771085" y="407.83132530120486" type="line"/>
      <point x="200.45180722891567" y="407.83132530120486" type="line"/>
      <point x="200.45180722891567" y="593.4879518072289" type="line"/>
      <point x="452.83132530120486" y="593.4879518072289" type="line"/>
      <point x="452.83132530120486" y="705.0" type="line"/>
      <point x="58.391566265060234" y="705.0" type="line"/>
    </contour>
  </outline>
</glyph>
<glyph name="G" format="2">
  <advance width="613.0421686746988"/>
  <unicode hex="0047"/>
  <anchor x="343.355421686747" y="0.0" name="bottom"/>
  <anchor x="337.355421686747" y="705.0" name="top"/>
  <outline>
    <contour>
      <point x="347.38554216867465" y="-10.626506024096384" type="curve" smooth="yes"/>
      <point x="421.29518072289153" y="-10.626506024096384"/>
      <point x="500.92168674698786" y="8.03012048192771"/>
      <point x="559.0240963855421" y="37.93975903614458" type="curve"/>
      <point x="559.0240963855421" y="384.8614457831325" type="line"/>
      <point x="326.0" y="384.8614457831325" type="line"/>
      <point x="326.0" y="282.5120481927711" type="line"/>
      <point x="442.2289156626505" y="282.5120481927711" type="line"/>
      <point x="442.2289156626505" y="93.40963855421687" type="line"/>
      <point x="477.58433734939763" y="134.2289156626506" type="line"/>
      <point x="431.83734939759034" y="118.48192771084337"/>
      <point x="389.9698795180723" y="110.07831325301204"/>
      <point x="353.355421686747" y="110.07831325301204" type="curve" smooth="yes"/>
      <point x="241.25903614457832" y="110.07831325301204"/>
      <point x="190.61445783132527" y="186.43975903614458"/>
      <point x="190.61445783132527" y="352.6566265060241" type="curve" smooth="yes"/>
      <point x="190.61445783132527" y="519.156626506024"/>
      <point x="241.9156626506024" y="592.2951807228916"/>
      <point x="358.3975903614458" y="592.2951807228916" type="curve" smooth="yes"/>
      <point x="416.5783132530121" y="592.2951807228916"/>
      <point x="466.98192771084337" y="574.5481927710844"/>
      <point x="517.3253012048192" y="535.9939759036145" type="curve"/>
      <point x="557.3373493975904" y="646.1024096385541" type="line"/>
      <point x="507.02409638554207" y="690.9096385542168"/>
      <point x="434.7710843373494" y="715.6265060240964"/>
      <point x="351.4879518072289" y="715.6265060240964" type="curve" smooth="yes"/>
      <point x="154.5963855421687" y="715.6265060240964"/>
      <point x="42.92771084337349" y="584.0602409638553"/>
      <point x="42.92771084337349" y="350.68674698795184" type="curve" smooth="yes"/>
      <point x="42.92771084337349" y="117.90963855421687"/>
      <point x="151.6265060240964" y="-10.626506024096384"/>
    </contour>
  </outline>
</glyph>
<glyph name="H" format="2">
  <advance width="643.9819277108434"/>
  <unicode hex="0048"/>
  <anchor x="322.16265060240966" y="0.0" name="bottom"/>
  <anchor x="322.16265060240966" y="563.0722891566265" name="center"/>
  <anchor x="321.81927710843377" y="705.0" name="top"/>
  <anchor x="21.120481927710845" y="705.0" name="topleft"/>
  <outline>
    <contour>
      <point x="58.391566265060234" y="0.0" type="line"/>
      <point x="200.45180722891567" y="0.0" type="line"/>
      <point x="200.45180722891567" y="298.31927710843377" type="line"/>
      <point x="443.5301204819277" y="298.31927710843377" type="line"/>
      <point x="443.5301204819277" y="0.0" type="line"/>
      <point x="585.5903614457831" y="0.0" type="line"/>
      <point x="585.5903614457831" y="705.0" type="line"/>
      <point x="443.5301204819277" y="705.0" type="line"/>
      <point x="443.5301204819277" y="416.367469879518" type="line"/>
      <point x="200.45180722891567" y="416.367469879518" type="line"/>
      <point x="200.45180722891567" y="705.0" type="line"/>
      <point x="58.391566265060234" y="705.0" type="line"/>
    </contour>
  </outline>
</glyph>
<glyph name="I" format="2">
  <advance width="258.1566265060241"/>
  <unicode hex="0049"/>
  <anchor x="129.26506024096383" y="0.0" name="bottom"/>
  <anchor x="161.3975903614458" y="0.0" name="ogonek"/>
  <anchor x="129.26506024096383" y="705.0" name="top"/>
  <anchor x="20.777108433734938" y="705.0" name="topleft"/>
  <outline>
    <contour>
      <point x="58.391566265060234" y="0.0" type="line"/>
      <point x="200.45180722891567" y="0.0" type="line"/>
      <point x="200.45180722891567" y="705.0" type="line"/>
      <point x="58.391566265060234" y="705.0" type="line"/>
    </contour>
  </outline>
</glyph>
<glyph name="J" format="2">
  <advance width="322.00602409638554"/>
  <unicode hex="004A"/>
  <anchor x="192.0843373493976" y="0.0" name="bottom"/>
  <anchor x="191.7409638554217" y="705.0" name="top"/>
  <outline>
    <contour>
      <point x="6.253012048192771" y="-9.93975903614458" type="line"/>
      <point x="86.02409638554217" y="-4.96987951807229" type="line" smooth="yes"/>
      <point x="207.16867469879517" y="3.716867469879519"/>
      <point x="263.6144578313253" y="65.56626506024097"/>
      <point x="263.6144578313253" y="186.57831325301203" type="curve" smooth="yes"/>
      <point x="263.6144578313253" y="705.0" type="line"/>
      <point x="121.55421686746988" y="705.0" type="line"/>
      <point x="121.55421686746988" y="186.95180722891564" type="line" smooth="yes"/>
      <point x="121.55421686746988" y="136.8433734939759"/>
      <point x="104.0" y="113.51204819277108"/>
      <point x="62.32530120481927" y="110.13855421686746" type="curve" smooth="yes"/>
      <point x="-3.9999999999999996" y="105.82530120481927" type="line"/>
    </contour>
  </outline>
</glyph>
<glyph name="K" format="2">
  <advance width="579.9879518072289"/>
  <unicode hex="004B"/>
  <anchor x="286.8012048192771" y="0.0" name="bottom"/>
  <anchor x="287.144578313253" y="705.0" name="top"/>
  <anchor x="21.120481927710845" y="705.0" name="topleft"/>
  <outline>
    <contour>
      <point x="58.391566265060234" y="0.0" type="line"/>
      <point x="200.45180722891567" y="0.0" type="line"/>
      <point x="200.45180722891567" y="323.8975903614458" type="line"/>
      <point x="202.45180722891567" y="323.8975903614458" type="line"/>
      <point x="436.0301204819276" y="0.0" type="line"/>
      <point x="607.566265060241" y="0.0" type="line"/>
      <point x="311.4096385542168" y="398.6084337349398" type="line"/>
      <point x="311.72289156626505" y="337.0903614457831" type="line"/>
      <point x="597.0722891566265" y="705.0" type="line"/>
      <point x="428.8795180722891" y="705.0" type="line"/>
      <point x="202.45180722891567" y="395.3855421686747" type="line"/>
      <point x="200.45180722891567" y="395.3855421686747" type="line"/>
      <point x="200.45180722891567" y="705.0" type="line"/>
      <point x="58.391566265060234" y="705.0" type="line"/>
    </contour>
  </outline>
</glyph>
<glyph name="L" format="2">
  <advance width="480.710843373494"/>
  <unicode hex="004C"/>
  <anchor x="257.5963855421687" y="0.0" name="bottom"/>
  <anchor x="167.23493975903614" y="387.0" name="center"/>
  <anchor x="366.62048192771084" y="394.84939759036143" name="dot"/>
  <anchor x="129.26506024096383" y="705.0" name="top"/>
  <anchor x="278.7530120481928" y="705.0" name="topright"/>
  <outline>
    <contour>
      <point x="58.391566265060234" y="0.0" type="line"/>
      <point x="457.48795180722885" y="0.0" type="line"/>
      <point x="457.48795180722885" y="120.04819277108433" type="line"/>
      <point x="200.45180722891567" y="120.04819277108433" type="line"/>
      <point x="200.45180722891567" y="705.0" type="line"/>
      <point x="58.391566265060234" y="705.0" type="line"/>
    </contour>
  </outline>
</glyph>
<glyph name="M" format="2">
  <advance width="729.1746987951808"/>
  <unicode hex="004D"/>
  <anchor x="365.1024096385542" y="0.0" name="bottom"/>
  <anchor x="365.1024096385542" y="705.0" name="top"/>
  <outline>
    <contour>
      <point x="60.391566265060234" y="0.0" type="line"/>
      <point x="191.25903614457832" y="0.0" type="line"/>
      <point x="191.25903614457832" y="495.4397590361446" type="line"/>
      <point x="173.6024096385542" y="495.4397590361446" type="line"/>
      <point x="326.46385542168673" y="116.90963855421687" type="line"/>
      <point x="401.4277108433735" y="116.90963855421687" type="line"/>
      <point x="554.289156626506" y="494.7530120481928" type="line"/>
      <point x="538.6024096385543" y="494.7530120481928" type="line"/>
      <point x="538.6024096385543" y="0.0" type="line"/>
      <point x="669.4698795180723" y="0.0" type="line"/>
      <point x="669.4698795180723" y="705.0" type="line"/>
      <point x="531.4096385542169" y="705.0" type="line"/>
      <point x="346.9096385542169" y="246.68674698795178" type="line"/>
      <point x="386.26506024096386" y="246.68674698795178" type="line"/>
      <point x="201.07831325301206" y="705.0" type="line"/>
      <point x="60.391566265060234" y="705.0" type="line"/>
    </contour>
  </outline>
</glyph>
<glyph name="N" format="2">
  <advance width="622.1024096385541"/>
  <unicode hex="004E"/>
  <anchor x="310.87951807228916" y="0.0" name="bottom"/>
  <anchor x="311.22289156626505" y="705.0" name="top"/>
  <outline>
    <contour>
      <point x="58.391566265060234" y="0.0" type="line"/>
      <point x="189.25903614457832" y="0.0" type="line"/>
      <point x="189.25903614457832" y="514.6927710843374" type="line"/>
      <point x="146.27710843373492" y="514.6927710843374" type="line"/>
      <point x="458.48192771084325" y="0.0" type="line"/>
      <point x="563.710843373494" y="0.0" type="line"/>
      <point x="563.710843373494" y="705.0" type="line"/>
      <point x="432.84337349397595" y="705.0" type="line"/>
      <point x="432.84337349397595" y="190.99397590361446" type="line"/>
      <point x="475.8253012048193" y="190.99397590361446" type="line"/>
      <point x="163.96385542168676" y="705.0" type="line"/>
      <point x="58.391566265060234" y="705.0" type="line"/>
    </contour>
  </outline>
</glyph>
<glyph name="O" format="2">
  <advance width="661.0542168674699"/>
  <unicode hex="004F"/>
  <anchor x="330.6987951807229" y="-10.626506024096384" name="Qtail"/>
  <anchor x="330.6987951807229" y="0.0" name="bottom"/>
  <anchor x="330.3855421686747" y="353.0" name="center"/>
  <anchor x="380.29518072289153" y="0.0" name="ogonek"/>
  <anchor x="331.0421686746988" y="705.0" name="top"/>
  <anchor x="25.686746987951807" y="705.0" name="topleft"/>
  <anchor x="387.7289156626506" y="705.0" name="topright"/>
  <outline>
    <contour>
      <point x="331.04216867469876" y="-10.626506024096384" type="curve" smooth="yes"/>
      <point x="510.7710843373494" y="-10.626506024096384"/>
      <point x="618.8132530120482" y="125.59638554216868"/>
      <point x="618.8132530120482" y="353.34337349397595" type="curve" smooth="yes"/>
      <point x="618.8132530120482" y="580.433734939759"/>
      <point x="510.42771084337346" y="715.6265060240964"/>
      <point x="331.04216867469876" y="715.6265060240964" type="curve" smooth="yes"/>
      <point x="150.9698795180723" y="715.6265060240964"/>
      <point x="42.92771084337349" y="580.0903614457831"/>
      <point x="42.92771084337349" y="352.0" type="curve" smooth="yes"/>
      <point x="42.92771084337349" y="124.90963855421687"/>
      <point x="150.9698795180723" y="-10.626506024096384"/>
    </contour>
    <contour>
      <point x="331.04216867469876" y="110.07831325301204" type="curve" smooth="yes"/>
      <point x="238.00602409638554" y="110.07831325301204"/>
      <point x="190.61445783132527" y="191.87349397590364"/>
      <point x="190.61445783132527" y="352.0" type="curve" smooth="yes"/>
      <point x="190.61445783132527" y="513.156626506024"/>
      <point x="238.00602409638554" y="594.9216867469879"/>
      <point x="331.04216867469876" y="594.9216867469879" type="curve" smooth="yes"/>
      <point x="424.0783132530121" y="594.9216867469879"/>
      <point x="471.12650602409644" y="513.8132530120482"/>
      <point x="471.12650602409644" y="353.0" type="curve" smooth="yes"/>
      <point x="471.12650602409644" y="192.53012048192772"/>
      <point x="423.7349397590362" y="110.07831325301204"/>
    </contour>
  </outline>
</glyph>
<glyph name="P" format="2">
  <advance width="554.0240963855421"/>
  <unicode hex="0050"/>
  <anchor x="280.7289156626506" y="0.0" name="bottom"/>
  <anchor x="281.0722891566265" y="705.0" name="top"/>
  <outline>
    <contour>
      <point x="58.391566265060234" y="0.0" type="line"/>
      <point x="200.45180722891567" y="0.0" type="line"/>
      <point x="200.45180722891567" y="258.9457831325301" type="line"/>
      <point x="324.4277108433735" y="258.9457831325301" type="line" smooth="yes"/>
      <point x="453.3072289156626" y="258.9457831325301"/>
      <point x="530.5301204819276" y="342.48192771084337"/>
      <point x="530.5301204819276" y="481.9879518072289" type="curve" smooth="yes"/>
      <point x="530.5301204819276" y="622.1506024096385"/>
      <point x="453.65060240963857" y="705.0"/>
      <point x="324.4277108433735" y="705.0" type="curve" smooth="yes"/>
      <point x="58.391566265060234" y="705.0" type="line"/>
    </contour>
    <contour>
      <point x="200.45180722891567" y="369.7710843373494" type="line"/>
      <point x="200.45180722891567" y="594.1746987951807" type="line"/>
      <point x="299.78915662650604" y="594.1746987951807" type="line" smooth="yes"/>
      <point x="361.04819277108436" y="594.1746987951807"/>
      <point x="394.66265060240966" y="553.5602409638554"/>
      <point x="394.66265060240966" y="481.9879518072289" type="curve" smooth="yes"/>
      <point x="394.66265060240966" y="410.4156626506024"/>
      <point x="361.04819277108436" y="369.7710843373494"/>
      <point x="299.78915662650604" y="369.7710843373494" type="curve" smooth="yes"/>
    </contour>
  </outline>
</glyph>
<glyph name="R" format="2">
  <advance width="579.1144578313254"/>
  <unicode hex="0052"/>
  <anchor x="293.7590361445783" y="0.0" name="bottom"/>
  <anchor x="293.4156626506024" y="705.0" name="top"/>
  <outline>
    <contour>
      <point x="58.391566265060234" y="0.0" type="line"/>
      <point x="200.45180722891567" y="0.0" type="line"/>
      <point x="200.45180722891567" y="271.9759036144579" type="line"/>
      <point x="248.8795180722892" y="271.9759036144579" type="line" smooth="yes"/>
      <point x="283.39156626506025" y="271.9759036144579"/>
      <point x="301.6024096385542" y="257.19879518072287"/>
      <point x="318.1265060240964" y="219.43373493975903" type="curve" smooth="yes"/>
      <point x="411.84337349397595" y="0.0" type="line"/>
      <point x="569.4096385542169" y="0.0" type="line"/>
      <point x="481.1385542168675" y="207.57228915662654" type="line" smooth="yes"/>
      <point x="457.4518072289157" y="262.94578313253015"/>
      <point x="420.1987951807229" y="290.91566265060237"/>
      <point x="373.94578313253015" y="290.91566265060237" type="curve" smooth="yes"/>
      <point x="334.42771084337346" y="290.91566265060237" type="line"/>
      <point x="326.144578313253" y="274.66265060240966" type="line"/>
      <point x="454.3072289156627" y="274.66265060240966"/>
      <point x="530.5301204819276" y="355.5421686746988"/>
      <point x="530.5301204819276" y="490.33132530120486" type="curve" smooth="yes"/>
      <point x="530.5301204819276" y="623.8373493975904"/>
      <point x="452.33734939759034" y="705.0"/>
      <point x="322.80120481927713" y="705.0" type="curve" smooth="yes"/>
      <point x="58.391566265060234" y="705.0" type="line"/>
    </contour>
    <contour>
      <point x="200.45180722891567" y="375.60843373493975" type="line"/>
      <point x="200.45180722891567" y="594.1746987951807" type="line"/>
      <point x="297.13253012048193" y="594.1746987951807" type="line" smooth="yes"/>
      <point x="359.7048192771084" y="594.1746987951807"/>
      <point x="394.66265060240966" y="555.5903614457832"/>
      <point x="394.66265060240966" y="486.0783132530121" type="curve" smooth="yes"/>
      <point x="394.66265060240966" y="415.22289156626505"/>
      <point x="359.3614457831325" y="375.60843373493975"/>
      <point x="297.13253012048193" y="375.60843373493975" type="curve" smooth="yes"/>
    </contour>
  </outline>
</glyph>
<glyph name="S" format="2">
  <advance width="534.1144578313254"/>
  <unicode hex="0053"/>
  <anchor x="272.13253012048193" y="0.0" name="bottom"/>
  <anchor x="276.98192771084337" y="705.0" name="top"/>
  <outline>
    <contour>
      <point x="265.13253012048193" y="-10.626506024096384" type="curve" smooth="yes"/>
      <point x="411.51807228915663" y="-10.626506024096384"/>
      <point x="507.5903614457831" y="71.81927710843374"/>
      <point x="507.5903614457831" y="205.144578313253" type="curve" smooth="yes"/>
      <point x="507.5903614457831" y="302.71084337349396"/>
      <point x="455.5903614457831" y="364.933734939759"/>
      <point x="351.1566265060241" y="392.99397590361446" type="curve" smooth="yes"/>
      <point x="259.65060240963857" y="417.6506024096385" type="line" smooth="yes"/>
      <point x="213.1987951807229" y="430.8012048192771"/>
      <point x="188.9879518072289" y="460.10240963855426"/>
      <point x="188.9879518072289" y="503.5843373493976" type="curve" smooth="yes"/>
      <point x="188.9879518072289" y="561.5301204819277"/>
      <point x="228.63253012048196" y="596.5481927710842"/>
      <point x="295.1746987951807" y="596.5481927710842" type="curve" smooth="yes"/>
      <point x="349.0120481927711" y="596.5481927710842"/>
      <point x="408.54819277108436" y="574.5180722891566"/>
      <point x="448.6987951807229" y="537.9337349397591" type="curve"/>
      <point x="485.71084337349396" y="643.4759036144578" type="line"/>
      <point x="439.710843373494" y="688.5963855421686"/>
      <point x="365.51807228915663" y="715.6265060240964"/>
      <point x="287.5783132530121" y="715.6265060240964" type="curve" smooth="yes"/>
      <point x="144.25301204819277" y="715.6265060240964"/>
      <point x="49.18072289156627" y="626.8373493975903"/>
      <point x="49.18072289156627" y="492.0783132530121" type="curve" smooth="yes"/>
      <point x="49.18072289156627" y="391.7951807228916"/>
      <point x="100.15060240963855" y="329.2289156626506"/>
      <point x="202.46385542168676" y="300.8554216867469" type="curve" smooth="yes"/>
      <point x="294.9698795180723" y="275.5421686746988" type="line" smooth="yes"/>
      <point x="344.8855421686747" y="261.3614457831325"/>
      <point x="368.4397590361446" y="234.46385542168673"/>
      <point x="368.4397590361446" y="192.0120481927711" type="curve" smooth="yes"/>
      <point x="368.4397590361446" y="137.0963855421687"/>
      <point x="332.10843373493975" y="108.45180722891565"/>
      <point x="263.84939759036143" y="108.45180722891565" type="curve" smooth="yes"/>
      <point x="200.32530120481925" y="108.45180722891565"/>
      <point x="127.56626506024097" y="133.07831325301206"/>
      <point x="76.16265060240963" y="172.25903614457832" type="curve"/>
      <point x="39.15060240963856" y="60.150602409638566" type="line"/>
      <point x="93.40361445783132" y="17.060240963855424"/>
      <point x="181.19277108433735" y="-10.626506024096384"/>
    </contour>
  </outline>
</glyph>
<glyph name="T" format="2">
  <advance width="527.710843373494"/>
  <unicode hex="0054"/>
  <anchor x="264.355421686747" y="0.0" name="bottom"/>
  <anchor x="264.69879518072287" y="358.0" name="center"/>
  <anchor x="264.69879518072287" y="705.0" name="top"/>
  <outline>
    <contour>
      <point x="193.1686746987952" y="0.0" type="line"/>
      <point x="335.2289156626506" y="0.0" type="line"/>
      <point x="335.2289156626506" y="586.9216867469879" type="line"/>
      <point x="518.7409638554217" y="586.9216867469879" type="line"/>
      <point x="518.7409638554217" y="705.0" type="line"/>
      <point x="9.656626506024097" y="705.0" type="line"/>
      <point x="9.656626506024097" y="586.9216867469879" type="line"/>
      <point x="193.1686746987952" y="586.9216867469879" type="line"/>
    </contour>
  </outline>
</glyph>
<glyph name="U" format="2">
  <advance width="615.0722891566265"/>
  <unicode hex="0055"/>
  <anchor x="307.5361445783132" y="0.0" name="bottom"/>
  <anchor x="355.16265060240966" y="0.0" name="ogonek"/>
  <anchor x="307.5361445783132" y="705.0" name="top"/>
  <anchor x="461.644578313253" y="705.0" name="topright"/>
  <outline>
    <contour>
      <point x="308.1927710843373" y="-10.626506024096384" type="curve" smooth="yes"/>
      <point x="479.8313253012048" y="-10.626506024096384"/>
      <point x="560.6807228915661" y="76.96987951807229"/>
      <point x="560.6807228915661" y="263.1024096385542" type="curve" smooth="yes"/>
      <point x="560.6807228915661" y="705.0" type="line"/>
      <point x="420.5602409638554" y="705.0" type="line"/>
      <point x="420.5602409638554" y="263.1927710843374" type="line" smooth="yes"/>
      <point x="420.5602409638554" y="155.7530120481928"/>
      <point x="386.91566265060237" y="110.07831325301204"/>
      <point x="308.84939759036143" y="110.07831325301204" type="curve" smooth="yes"/>
      <point x="231.4397590361446" y="110.07831325301204"/>
      <point x="196.45180722891567" y="156.40963855421688"/>
      <point x="196.45180722891567" y="263.1927710843374" type="curve" smooth="yes"/>
      <point x="196.45180722891567" y="705.0" type="line"/>
      <point x="54.391566265060234" y="705.0" type="line"/>
      <point x="54.391566265060234" y="263.1024096385542" type="line" smooth="yes"/>
      <point x="54.391566265060234" y="77.62650602409639"/>
      <point x="136.55421686746988" y="-10.626506024096384"/>
    </contour>
  </outline>
</glyph>
<glyph name="V" format="2">
  <advance width="606.5301204819278"/>
  <unicode hex="0056"/>
  <anchor x="303.2650602409639" y="0.0" name="bottom"/>
  <anchor x="303.2650602409639" y="705.0" name="top"/>
  <outline>
    <contour>
      <point x="246.83734939759037" y="0.0" type="line"/>
      <point x="359.6927710843373" y="0.0" type="line"/>
      <point x="618.8253012048193" y="705.0" type="line"/>
      <point x="474.10843373493975" y="705.0" type="line"/>
      <point x="282.44578313253015" y="133.90963855421688" type="line"/>
      <point x="330.36746987951807" y="133.90963855421688" type="line"/>
      <point x="138.01807228915663" y="705.0" type="line"/>
      <point x="-12.295180722891565" y="705.0" type="line"/>
    </contour>
  </outline>
</glyph>
<glyph name="W" format="2">
  <advance width="920.6084337349398"/>
  <unicode hex="0057"/>
  <anchor x="460.8192771084337" y="0.0" name="bottom"/>
  <anchor x="460.4759036144578" y="705.0" name="top"/>
  <outline>
    <contour>
      <point x="217.24096385542165" y="0.0" type="line"/>
      <point x="334.34939759036143" y="0.0" type="line"/>
      <point x="469.4457831325302" y="521.4096385542168" type="line"/>
      <point x="451.50602409638554" y="521.4096385542168" type="line"/>
      <point x="586.94578313253" y="0.0" type="line"/>
      <point x="703.710843373494" y="0.0" type="line"/>
      <point x="906.6506024096384" y="705.0" type="line"/>
      <point x="769.4698795180722" y="705.0" type="line"/>
      <point x="631.7168674698795" y="143.66867469879517" type="line"/>
      <point x="661.9096385542168" y="143.66867469879517" type="line"/>
      <point x="516.2168674698795" y="705.0" type="line"/>
      <point x="412.61445783132535" y="705.0" type="line"/>
      <point x="266.5783132530121" y="143.66867469879517" type="line"/>
      <point x="297.8012048192771" y="143.66867469879517" type="line"/>
      <point x="160.04819277108433" y="705.0" type="line"/>
      <point x="14.987951807228917" y="705.0" type="line"/>
    </contour>
  </outline>
</glyph>
<glyph name="X" format="2">
  <advance width="571.6204819277108"/>
  <unicode hex="0058"/>
  <anchor x="286.63855421686753" y="0.0" name="bottom"/>
  <anchor x="285.98192771084337" y="705.0" name="top"/>
  <outline>
    <contour>
      <point x="-13.42771084337349" y="0.0" type="line"/>
      <point x="152.42168674698794" y="0.0" type="line"/>
      <point x="309.1144578313253" y="288.8734939759036" type="line"/>
      <point x="263.1927710843374" y="288.8734939759036" type="line"/>
      <point x="419.88554216867465" y="0.0" type="line"/>
      <point x="585.0481927710844" y="0.0" type="line"/>
      <point x="345.6927710843374" y="388.6686746987952" type="line"/>
      <point x="345.6927710843374" y="326.82530120481925" type="line"/>
      <point x="580.6144578313254" y="705.0" type="line"/>
      <point x="415.1084337349397" y="705.0" type="line"/>
      <point x="262.25301204819283" y="426.68072289156623" type="line"/>
      <point x="309.39759036144574" y="426.68072289156623" type="line"/>
      <point x="157.16867469879517" y="705.0" type="line"/>
      <point x="-7.993975903614452" y="705.0" type="line"/>
      <point x="226.6144578313253" y="326.82530120481925" type="line"/>
      <point x="226.6144578313253" y="388.6686746987952" type="line"/>
    </contour>
  </outline>
</glyph>
<glyph name="Y" format="2">
  <advance width="527.5903614457831"/>
  <unicode hex="0059"/>
  <anchor x="264.9518072289157" y="0.0" name="bottom"/>
  <anchor x="263.98192771084337" y="705.0" name="top"/>
  <anchor x="18.373493975903614" y="705.0" name="topleft"/>
  <outline>
    <contour>
      <point x="193.10843373493978" y="0.0" type="line"/>
      <point x="335.16867469879514" y="0.0" type="line"/>
      <point x="335.82530120481925" y="362.40361445783134" type="line"/>
      <point x="306.4698795180723" y="279.4698795180723" type="line"/>
      <point x="554.4819277108435" y="705.0" type="line"/>
      <point x="397.9457831325301" y="705.0" type="line"/>
      <point x="252.72891566265065" y="426.43975903614455" type="line"/>
      <point x="280.4879518072289" y="426.43975903614455" type="line"/>
      <point x="136.6144578313253" y="705.0" type="line"/>
      <point x="-26.891566265060234" y="705.0" type="line"/>
      <point x="223.46385542168676" y="279.4698795180723" type="line"/>
      <point x="193.76506024096386" y="362.40361445783134" type="line"/>
    </contour>
  </outline>
</glyph>
<glyph name="Z" format="2">
  <advance width="512.8012048192772"/>
  <unicode hex="005A"/>
  <anchor x="264.13253012048193" y="0.0" name="bottom"/>
  <anchor x="263.78915662650604" y="705.0" name="top"/>
  <outline>
    <contour>
      <point x="41.74698795180723" y="0.0" type="line"/>
      <point x="491.7710843373494" y="0.0" type="line"/>
      <point x="491.7710843373494" y="116.73493975903614" type="line"/>
      <point x="171.95783132530119" y="116.73493975903614" type="line"/>
      <point x="171.95783132530119" y="77.06626506024095" type="line"/>
      <point x="478.4578313253012" y="601.5180722891566" type="line"/>
      <point x="478.4578313253012" y="705.0" type="line"/>
      <point x="41.74698795180723" y="705.0" type="line"/>
      <point x="41.74698795180723" y="588.2650602409639" type="line"/>
      <point x="348.2469879518073" y="588.2650602409639" type="line"/>
      <point x="348.2469879518073" y="628.6204819277109" type="line"/>
      <point x="41.74698795180723" y="103.48192771084337" type="line"/>
    </contour>
  </outline>
</glyph>
<glyph name="bracketleft" format="2">
  <advance width="328.3614457831325"/>
  <unicode hex="005B"/>
  <outline>
    <contour>
      <point x="87.46385542168674" y="-180.0" type="line"/>
      <point x="310.48192771084337" y="-180.0" type="line"/>
      <point x="310.48192771084337" y="-77.0843373493976" type="line"/>
      <point x="225.2710843373494" y="-77.0843373493976" type="line"/>
      <point x="225.2710843373494" y="602.0843373493975" type="line"/>
      <point x="310.48192771084337" y="602.0843373493975" type="line"/>
      <point x="310.48192771084337" y="705.0" type="line"/>
      <point x="87.46385542168674" y="705.0" type="line"/>
    </contour>
  </outline>
</glyph>
<glyph name="bracketright" format="2">
  <advance width="328.3614457831325"/>
  <unicode hex="005D"/>
  <outline>
    <contour>
      <point x="17.879518072289155" y="-180.0" type="line"/>
      <point x="241.24096385542165" y="-180.0" type="line"/>
      <point x="241.24096385542165" y="705.0" type="line"/>
      <point x="17.879518072289155" y="705.0" type="line"/>
      <point x="17.879518072289155" y="602.0843373493975" type="line"/>
      <point x="103.43373493975903" y="602.0843373493975" type="line"/>
      <point x="103.43373493975903" y="-77.0843373493976" type="line"/>
      <point x="17.879518072289155" y="-77.0843373493976" type="line"/>
    </contour>
  </outline>
</glyph>
<glyph name="asciicircum" format="2">
  <advance width="498.0"/>
  <unicode hex="005E"/>
  <outline>
    <contour>
      <point x="2.9879518072289226" y="162.15060240963857" type="line"/>
      <point x="111.96385542168673" y="162.15060240963857" type="line"/>
      <point x="281.66867469879514" y="589.8674698795181" type="line"/>
      <point x="217.0180722891566" y="589.8674698795181" type="line"/>
      <point x="386.03614457831327" y="162.15060240963857" type="line"/>
      <point x="495.012048192771" y="162.15060240963857" type="line"/>
      <point x="300.45783132530124" y="628.0" type="line"/>
      <point x="197.5421686746988" y="628.0" type="line"/>
    </contour>
  </outline>
</glyph>
<glyph name="underscore" format="2">
  <advance width="414.3734939759036"/>
  <unicode hex="005F"/>
  <outline>
    <contour>
      <point x="20.686746987951807" y="-80.90361445783131" type="line"/>
      <point x="393.68674698795184" y="-80.90361445783131" type="line"/>
      <point x="393.68674698795184" y="0.0" type="line"/>
      <point x="20.686746987951807" y="0.0" type="line"/>
    </contour>
  </outline>
</glyph>
<glyph name="a" format="2">
  <advance width="467.4277108433734"/>
  <unicode hex="0061"/>
  <anchor x="233.44578313253015" y="0.0" name="bottom"/>
  <anchor x="388.2048192771084" y="0.0" name="ogonek"/>
  <anchor x="236.75903614457832" y="484.0" name="top"/>
  <outline>
    <contour>
      <point x="180.24096385542168" y="-10.626506024096384" type="curve" smooth="yes"/>
      <point x="245.21084337349396" y="-10.626506024096384"/>
      <point x="282.7951807228916" y="29.12048192771085"/>
      <point x="297.5120481927711" y="99.55421686746989" type="curve"/>
      <point x="293.10843373493975" y="99.55421686746989" type="line"/>
      <point x="293.10843373493975" y="0.0" type="line"/>
      <point x="421.37951807228916" y="0.0" type="line"/>
      <point x="421.37951807228916" y="306.82530120481925" type="line" smooth="yes"/>
      <point x="421.37951807228916" y="436.12048192771084"/>
      <point x="360.71084337349396" y="501.1927710843374"/>
      <point x="237.50602409638557" y="501.1927710843374" type="curve" smooth="yes"/>
      <point x="170.06024096385542" y="501.1927710843374"/>
      <point x="96.9578313253012" y="480.22289156626505"/>
      <point x="45.73493975903614" y="445.566265060241" type="curve"/>
      <point x="85.74698795180723" y="351.18674698795184" type="line"/>
      <point x="130.46385542168676" y="382.2469879518073"/>
      <point x="180.03012048192772" y="395.27710843373495"/>
      <point x="223.4036144578313" y="395.27710843373495" type="curve" smooth="yes"/>
      <point x="271.3614457831326" y="395.27710843373495"/>
      <point x="290.79518072289153" y="374.72289156626505"/>
      <point x="290.79518072289153" y="324.210843373494" type="curve" smooth="yes"/>
      <point x="290.79518072289153" y="180.86746987951807" type="line" smooth="yes"/>
      <point x="290.79518072289153" y="121.92168674698796"/>
      <point x="258.0602409638554" y="85.12650602409639"/>
      <point x="222.29518072289156" y="85.12650602409639" type="curve" smooth="yes"/>
      <point x="186.62048192771087" y="85.12650602409639"/>
      <point x="162.03614457831324" y="112.71084337349397"/>
      <point x="162.03614457831324" y="149.47590361445785" type="curve" smooth="yes"/>
      <point x="162.03614457831324" y="196.58433734939757"/>
      <point x="189.90361445783134" y="214.5843373493976"/>
      <point x="271.73493975903614" y="214.5843373493976" type="curve" smooth="yes"/>
      <point x="304.39156626506025" y="214.5843373493976" type="line"/>
      <point x="304.39156626506025" y="290.8493975903615" type="line"/>
      <point x="254.94578313253012" y="290.8493975903615" type="line" smooth="yes"/>
      <point x="101.5843373493976" y="290.8493975903615"/>
      <point x="30.078313253012055" y="247.19277108433735"/>
      <point x="30.078313253012055" y="148.16265060240966" type="curve" smooth="yes"/>
      <point x="30.078313253012055" y="58.74698795180723"/>
      <point x="101.49397590361447" y="-10.626506024096384"/>
    </contour>
  </outline>
</glyph>
<glyph name="b" format="2">
  <advance width="509.45783132530124"/>
  <unicode hex="0062"/>
  <anchor x="246.25301204819277" y="0.0" name="bottom"/>
  <anchor x="260.35542168674704" y="705.0" name="top"/>
  <outline>
    <contour>
      <point x="307.8132530120482" y="-10.626506024096384" type="curve" smooth="yes"/>
      <point x="414.8734939759036" y="-10.626506024096384"/>
      <point x="480.1867469879518" y="84.6566265060241"/>
      <point x="480.1867469879518" y="245.6265060240964" type="curve" smooth="yes"/>
      <point x="480.1867469879518" y="406.59638554216866"/>
      <point x="414.8734939759036" y="501.1927710843374"/>
      <point x="307.1566265060241" y="501.1927710843374" type="curve" smooth="yes"/>
      <point x="243.91566265060243" y="501.1927710843374"/>
      <point x="190.6024096385542" y="462.44578313253015"/>
      <point x="172.6024096385542" y="394.8614457831325" type="curve"/>
      <point x="185.8855421686747" y="394.8614457831325" type="line"/>
      <point x="185.8855421686747" y="705.0" type="line"/>
      <point x="48.07831325301204" y="705.0" type="line"/>
      <point x="48.07831325301204" y="0.0" type="line"/>
      <point x="183.5722891566265" y="0.0" type="line"/>
      <point x="183.5722891566265" y="96.39156626506023" type="line"/>
      <point x="172.6024096385542" y="96.39156626506023" type="line"/>
      <point x="190.6024096385542" y="28.777108433734945"/>
      <point x="243.5722891566265" y="-10.626506024096384"/>
    </contour>
    <contour>
      <point x="262.4759036144578" y="93.97590361445782" type="curve" smooth="yes"/>
      <point x="210.53012048192772" y="93.97590361445782"/>
      <point x="183.5722891566265" y="138.1144578313253"/>
      <point x="183.5722891566265" y="245.6265060240964" type="curve" smooth="yes"/>
      <point x="183.5722891566265" y="353.1385542168675"/>
      <point x="210.53012048192772" y="396.5903614457831"/>
      <point x="262.4759036144578" y="396.5903614457831" type="curve" smooth="yes"/>
      <point x="313.73493975903614" y="396.5903614457831"/>
      <point x="341.37951807228916" y="353.1385542168675"/>
      <point x="341.37951807228916" y="245.6265060240964" type="curve" smooth="yes"/>
      <point x="341.37951807228916" y="138.1144578313253"/>
      <point x="313.73493975903614" y="93.97590361445782"/>
    </contour>
  </outline>
</glyph>
<glyph name="c" format="2">
  <advance width="399.35542168674704"/>
  <unicode hex="0063"/>
  <anchor x="238.8192771084337" y="0.0" name="bottom"/>
  <anchor x="237.4457831325301" y="484.0" name="top"/>
  <outline>
    <contour>
      <point x="250.57831325301208" y="-10.626506024096384" type="curve" smooth="yes"/>
      <point x="302.89156626506025" y="-10.626506024096384"/>
      <point x="358.7409638554217" y="7.433734939759038"/>
      <point x="392.7409638554217" y="38.18072289156626" type="curve"/>
      <point x="353.35542168674704" y="134.50000000000003" type="line"/>
      <point x="327.9518072289157" y="110.66265060240963"/>
      <point x="293.9518072289157" y="95.63253012048192"/>
      <point x="263.05421686746985" y="95.63253012048192" type="curve" smooth="yes"/>
      <point x="204.5722891566265" y="95.63253012048192"/>
      <point x="170.04819277108433" y="142.0542168674699"/>
      <point x="170.04819277108433" y="244.93975903614458" type="curve" smooth="yes"/>
      <point x="170.04819277108433" y="349.8855421686747"/>
      <point x="204.2289156626506" y="394.93373493975906"/>
      <point x="262.0843373493976" y="394.93373493975906" type="curve" smooth="yes"/>
      <point x="294.2951807228916" y="394.93373493975906"/>
      <point x="326.9819277108434" y="380.56024096385545"/>
      <point x="353.6987951807229" y="356.4096385542169" type="curve"/>
      <point x="392.7409638554217" y="452.3855421686747" type="line"/>
      <point x="359.08433734939763" y="483.81927710843377"/>
      <point x="303.2349397590362" y="501.1927710843374"/>
      <point x="250.23493975903617" y="501.1927710843374" type="curve" smooth="yes"/>
      <point x="111.6566265060241" y="501.1927710843374"/>
      <point x="29.2710843373494" y="406.5963855421687"/>
      <point x="29.2710843373494" y="245.96987951807228" type="curve" smooth="yes"/>
      <point x="29.2710843373494" y="83.62650602409639"/>
      <point x="111.3132530120482" y="-10.626506024096384"/>
    </contour>
  </outline>
</glyph>
<glyph name="e" format="2">
  <advance width="457.3253012048193"/>
  <unicode hex="0065"/>
  <anchor x="238.19277108433738" y="0.0" name="bottom"/>
  <anchor x="337.08433734939763" y="0.0" name="ogonek"/>
  <anchor x="238.19277108433738" y="484.0" name="top"/>
  <outline>
    <contour>
      <point x="260.0120481927711" y="-10.626506024096384" type="curve" smooth="yes"/>
      <point x="320.2951807228916" y="-10.626506024096384"/>
      <point x="376.921686746988" y="7.746987951807229"/>
      <point x="425.3975903614458" y="45.12048192771085" type="curve"/>
      <point x="387.98192771084337" y="136.8132530120482" type="line"/>
      <point x="352.6385542168675" y="108.31927710843372"/>
      <point x="307.6686746987952" y="93.97590361445782"/>
      <point x="265.26506024096386" y="93.97590361445782" type="curve" smooth="yes"/>
      <point x="190.27710843373495" y="93.97590361445782"/>
      <point x="159.1987951807229" y="132.99397590361446"/>
      <point x="159.1987951807229" y="223.5843373493976" type="curve" smooth="yes"/>
      <point x="159.1987951807229" y="257.4759036144578" type="line" smooth="yes"/>
      <point x="159.1987951807229" y="360.67469879518075"/>
      <point x="188.27710843373495" y="406.7831325301205"/>
      <point x="243.789156626506" y="406.7831325301205" type="curve" smooth="yes"/>
      <point x="291.3614457831325" y="406.7831325301205"/>
      <point x="315.63253012048193" y="373.0783132530121"/>
      <point x="315.63253012048193" y="275.41566265060237" type="curve"/>
      <point x="330.6024096385542" y="291.13253012048193" type="line"/>
      <point x="144.2289156626506" y="291.13253012048193" type="line"/>
      <point x="144.2289156626506" y="212.24096385542168" type="line"/>
      <point x="431.71084337349396" y="212.24096385542168" type="line"/>
      <point x="431.71084337349396" y="260.0602409638554" type="line" smooth="yes"/>
      <point x="431.71084337349396" y="415.0"/>
      <point x="364.89156626506025" y="501.1927710843374"/>
      <point x="240.50602409638554" y="501.1927710843374" type="curve" smooth="yes"/>
      <point x="110.77710843373494" y="501.1927710843374"/>
      <point x="29.2710843373494" y="403.56626506024094"/>
      <point x="29.2710843373494" y="244.5963855421687" type="curve" smooth="yes"/>
      <point x="29.2710843373494" y="77.81927710843374"/>
      <point x="115.46385542168674" y="-10.626506024096384"/>
    </contour>
  </outline>
</glyph>
<glyph name="f" format="2">
  <advance width="330.2891566265061"/>
  <unicode hex="0066"/>
  <anchor x="150.3975903614458" y="0.0" name="bottom"/>
  <anchor x="150.3975903614458" y="705.0" name="top"/>
  <outline>
    <contour>
      <point x="81.15060240963855" y="0.0" type="line"/>
      <point x="218.95783132530119" y="0.0" type="line"/>
      <point x="218.95783132530119" y="388.96385542168673" type="line"/>
      <point x="320.54216867469876" y="388.96385542168673" type="line"/>
      <point x="320.54216867469876" y="490.566265060241" type="line"/>
      <point x="182.69277108433735" y="490.566265060241" type="line"/>
      <point x="218.95783132530119" y="454.644578313253" type="line"/>
      <point x="218.95783132530119" y="521.8072289156627" type="line" smooth="yes"/>
      <point x="218.95783132530119" y="582.9759036144577"/>
      <point x="243.01807228915663" y="603.3072289156626"/>
      <point x="301.88554216867465" y="607.6506024096386" type="curve" smooth="yes"/>
      <point x="339.19879518072287" y="610.6506024096386" type="line"/>
      <point x="331.91566265060237" y="710.6265060240964" type="line"/>
      <point x="284.24698795180717" y="707.9698795180723" type="line" smooth="yes"/>
      <point x="142.50602409638554" y="699.6265060240963"/>
      <point x="81.15060240963855" y="634.1807228915663"/>
      <point x="81.15060240963855" y="497.855421686747" type="curve" smooth="yes"/>
      <point x="81.15060240963855" y="454.3012048192771" type="line"/>
      <point x="117.75903614457829" y="490.566265060241" type="line"/>
      <point x="6.433734939759036" y="490.566265060241" type="line"/>
      <point x="6.433734939759036" y="388.96385542168673" type="line"/>
      <point x="81.15060240963855" y="388.96385542168673" type="line"/>
    </contour>
  </outline>
</glyph>
<glyph name="g" format="2">
  <advance width="512.7409638554218"/>
  <unicode hex="0067"/>
  <anchor x="254.01204819277106" y="484.0" name="top"/>
  <outline>
    <contour>
      <point x="239.3132530120482" y="-190.6265060240964" type="curve" smooth="yes"/>
      <point x="388.36746987951807" y="-190.6265060240964"/>
      <point x="464.66265060240966" y="-110.92771084337349"/>
      <point x="464.66265060240966" y="45.27710843373494" type="curve" smooth="yes"/>
      <point x="464.66265060240966" y="490.566265060241" type="line"/>
      <point x="329.16867469879514" y="490.566265060241" type="line"/>
      <point x="329.16867469879514" y="394.5180722891567" type="line"/>
      <point x="337.4819277108433" y="394.5180722891567" type="line"/>
      <point x="322.45180722891564" y="462.44578313253015"/>
      <point x="274.078313253012" y="501.1927710843374"/>
      <point x="203.92771084337346" y="501.1927710843374" type="curve" smooth="yes"/>
      <point x="94.5843373493976" y="501.1927710843374"/>
      <point x="29.2710843373494" y="410.59638554216866"/>
      <point x="29.2710843373494" y="257.59638554216866" type="curve" smooth="yes"/>
      <point x="29.2710843373494" y="104.59638554216868"/>
      <point x="94.5843373493976" y="13.313253012048193"/>
      <point x="203.27108433734938" y="13.313253012048193" type="curve" smooth="yes"/>
      <point x="273.078313253012" y="13.313253012048193"/>
      <point x="322.45180722891564" y="52.06024096385543"/>
      <point x="337.48192771084337" y="120.33132530120484" type="curve"/>
      <point x="330.45180722891564" y="120.33132530120484" type="line"/>
      <point x="330.45180722891564" y="30.831325301204817" type="line" smooth="yes"/>
      <point x="330.45180722891564" y="-49.216867469879524"/>
      <point x="298.7048192771084" y="-86.36746987951808"/>
      <point x="232.74698795180726" y="-86.36746987951808" type="curve" smooth="yes"/>
      <point x="185.6265060240964" y="-86.36746987951808"/>
      <point x="131.21084337349396" y="-70.36746987951808"/>
      <point x="81.46385542168674" y="-39.56024096385542" type="curve"/>
      <point x="44.07831325301205" y="-134.56626506024097" type="line"/>
      <point x="97.39156626506023" y="-170.6265060240964"/>
      <point x="165.83734939759037" y="-190.6265060240964"/>
    </contour>
    <contour>
      <point x="248.95180722891564" y="117.9156626506024" type="curve" smooth="yes"/>
      <point x="194.72289156626505" y="117.9156626506024"/>
      <point x="168.07831325301206" y="163.65060240963857"/>
      <point x="168.07831325301206" y="257.59638554216866" type="curve" smooth="yes"/>
      <point x="168.07831325301206" y="351.54216867469876"/>
      <point x="194.72289156626505" y="396.5903614457831"/>
      <point x="248.95180722891564" y="396.5903614457831" type="curve" smooth="yes"/>
      <point x="302.5240963855422" y="396.5903614457831"/>
      <point x="329.1686746987952" y="350.8855421686747"/>
      <point x="329.1686746987952" y="257.59638554216866" type="curve" smooth="yes"/>
      <point x="329.1686746987952" y="164.30722891566265"/>
      <point x="302.5240963855422" y="117.9156626506024"/>
    </contour>
  </outline>
</glyph>
<glyph name="h" format="2">
  <advance width="497.4277108433734"/>
  <unicode hex="0068"/>
  <anchor x="250.04216867469884" y="0.0" name="bottom"/>
  <anchor x="250.04216867469884" y="247.9698795180723" name="center"/>
  <anchor x="293.53614457831327" y="351.3734939759036" name="dot"/>
  <anchor x="157.98192771084337" y="588.5361445783133" name="stroke"/>
  <anchor x="249.72891566265062" y="705.0" name="top"/>
  <anchor x="205.09638554216866" y="705.0" name="topright"/>
  <outline>
    <contour>
      <point x="48.07831325301204" y="0.0" type="line"/>
      <point x="185.8855421686747" y="0.0" type="line"/>
      <point x="185.8855421686747" y="304.3433734939759" type="line" smooth="yes"/>
      <point x="185.8855421686747" y="359.6325301204819"/>
      <point x="216.6807228915663" y="393.3072289156627"/>
      <point x="259.87951807228916" y="393.3072289156627" type="curve" smooth="yes"/>
      <point x="291.9578313253012" y="393.3072289156627"/>
      <point x="313.57228915662654" y="375.46987951807233"/>
      <point x="313.57228915662654" y="316.4638554216868" type="curve" smooth="yes"/>
      <point x="313.57228915662654" y="0.0" type="line"/>
      <point x="451.3795180722892" y="0.0" type="line"/>
      <point x="451.3795180722892" y="328.6566265060241" type="line" smooth="yes"/>
      <point x="451.3795180722892" y="444.06024096385545"/>
      <point x="403.6024096385542" y="501.1927710843374"/>
      <point x="316.34939759036143" y="501.1927710843374" type="curve" smooth="yes"/>
      <point x="247.5722891566265" y="501.1927710843374"/>
      <point x="199.16867469879517" y="462.44578313253015"/>
      <point x="178.1987951807229" y="402.4156626506024" type="curve"/>
      <point x="185.8855421686747" y="402.4156626506024" type="line"/>
      <point x="185.8855421686747" y="705.0" type="line"/>
      <point x="48.07831325301204" y="705.0" type="line"/>
    </contour>
  </outline>
</glyph>
<glyph name="i" format="2">
  <advance width="233.96385542168673"/>
  <unicode hex="0069"/>
  <anchor x="116.63855421686748" y="0.0" name="bottom"/>
  <anchor x="153.710843373494" y="0.0" name="ogonek"/>
  <outline>
    <contour>
      <point x="43.644578313253014" y="589.8253012048193" type="line"/>
      <point x="189.94578313253012" y="589.8253012048193" type="line"/>
      <point x="189.94578313253012" y="721.3674698795181" type="line"/>
      <point x="43.644578313253014" y="721.3674698795181" type="line"/>
    </contour>
    <contour>
      <point x="48.07831325301204" y="0.0" type="line"/>
      <point x="185.8855421686747" y="0.0" type="line"/>
      <point x="185.8855421686747" y="490.566265060241" type="line"/>
      <point x="48.07831325301204" y="490.566265060241" type="line"/>
    </contour>
  </outline>
</glyph>
<glyph name="j" format="2">
  <advance width="238.56024096385545"/>
  <unicode hex="006A"/>
  <outline>
    <contour>
      <point x="47.61445783132531" y="589.8253012048193" type="line"/>
      <point x="193.9156626506024" y="589.8253012048193" type="line"/>
      <point x="193.9156626506024" y="721.3674698795181" type="line"/>
      <point x="47.61445783132531" y="721.3674698795181" type="line"/>
    </contour>
    <contour>
      <point x="-27.493975903614455" y="-193.0" type="line"/>
      <point x="7.819277108433735" y="-190.0" type="line" smooth="yes"/>
      <point x="153.85542168674698" y="-177.40361445783134"/>
      <point x="190.16867469879517" y="-125.15060240963855"/>
      <point x="190.16867469879517" y="-2.5722891566265096" type="curve" smooth="yes"/>
      <point x="190.16867469879517" y="490.566265060241" type="line"/>
      <point x="52.361445783132524" y="490.566265060241" type="line"/>
      <point x="52.361445783132524" y="-20.957831325301207" type="line" smooth="yes"/>
      <point x="52.361445783132524" y="-68.53012048192772"/>
      <point x="34.49397590361446" y="-83.65060240963857"/>
      <point x="2.1927710843373482" y="-88.36746987951808" type="curve" smooth="yes"/>
      <point x="-37.40361445783133" y="-93.68072289156628" type="line"/>
    </contour>
  </outline>
</glyph>
<glyph name="k" format="2">
  <advance width="471.70481927710836"/>
  <unicode hex="006B"/>
  <anchor x="236.39759036144574" y="0.0" name="bottom"/>
  <anchor x="249.72891566265062" y="705.0" name="top"/>
  <outline>
    <contour>
      <point x="48.07831325301204" y="0.0" type="line"/>
      <point x="185.8855421686747" y="0.0" type="line"/>
      <point x="185.8855421686747" y="214.70481927710844" type="line"/>
      <point x="187.8855421686747" y="214.70481927710844" type="line"/>
      <point x="327.433734939759" y="0.0" type="line"/>
      <point x="491.7469879518072" y="0.0" type="line"/>
      <point x="306.43975903614455" y="283.7590361445783" type="line"/>
      <point x="303.81325301204816" y="229.06024096385542" type="line"/>
      <point x="485.87951807228916" y="490.566265060241" type="line"/>
      <point x="327.50602409638554" y="490.566265060241" type="line"/>
      <point x="187.8855421686747" y="284.6084337349398" type="line"/>
      <point x="185.8855421686747" y="284.6084337349398" type="line"/>
      <point x="185.8855421686747" y="705.0" type="line"/>
      <point x="48.07831325301204" y="705.0" type="line"/>
    </contour>
  </outline>
</glyph>
<glyph name="l" format="2">
  <advance width="287.2168674698795"/>
  <unicode hex="006C"/>
  <anchor x="164.81927710843374" y="0.0" name="bottom"/>
  <anchor x="120.07228915662648" y="357.0" name="center"/>
  <anchor x="298.3734939759036" y="357.0" name="dot"/>
  <anchor x="116.63855421686748" y="705.0" name="top"/>
  <anchor x="214.06626506024097" y="705.0" name="topright"/>
  <outline>
    <contour>
      <point x="202.69879518072287" y="-10.626506024096384" type="curve" smooth="yes"/>
      <point x="226.48795180722894" y="-10.626506024096384"/>
      <point x="249.2771084337349" y="-7.0"/>
      <point x="271.933734939759" y="-0.7168674698795183" type="curve"/>
      <point x="272.62048192771084" y="106.54216867469879" type="line"/>
      <point x="267.24698795180717" y="103.85542168674698"/>
      <point x="252.56024096385545" y="102.19879518072288"/>
      <point x="240.53012048192772" y="102.19879518072288" type="curve" smooth="yes"/>
      <point x="197.85542168674698" y="102.19879518072288"/>
      <point x="185.8855421686747" y="130.50000000000003"/>
      <point x="185.8855421686747" y="177.6204819277108" type="curve" smooth="yes"/>
      <point x="185.8855421686747" y="705.0" type="line"/>
      <point x="48.07831325301204" y="705.0" type="line"/>
      <point x="48.07831325301204" y="174.30722891566265" type="line" smooth="yes"/>
      <point x="48.07831325301204" y="44.87951807228915"/>
      <point x="95.8975903614458" y="-10.626506024096384"/>
    </contour>
  </outline>
</glyph>
<glyph name="m" format="2">
  <advance width="748.6204819277108"/>
  <unicode hex="006D"/>
  <anchor x="375.32530120481925" y="0.0" name="bottom"/>
  <anchor x="375.32530120481925" y="484.0" name="top"/>
  <outline>
    <contour>
      <point x="50.07831325301204" y="0.0" type="line"/>
      <point x="187.8855421686747" y="0.0" type="line"/>
      <point x="187.8855421686747" y="304.3433734939759" type="line" smooth="yes"/>
      <point x="187.8855421686747" y="359.63253012048193"/>
      <point x="216.65060240963857" y="393.3072289156627"/>
      <point x="257.4759036144578" y="393.3072289156627" type="curve" smooth="yes"/>
      <point x="286.4939759036144" y="393.3072289156627"/>
      <point x="306.078313253012" y="375.46987951807233"/>
      <point x="306.078313253012" y="316.1204819277108" type="curve" smooth="yes"/>
      <point x="306.078313253012" y="0.0" type="line"/>
      <point x="443.88554216867476" y="0.0" type="line"/>
      <point x="443.88554216867476" y="304.3433734939759" type="line" smooth="yes"/>
      <point x="443.88554216867476" y="359.63253012048193"/>
      <point x="473.3373493975904" y="393.3072289156627"/>
      <point x="513.4759036144578" y="393.3072289156627" type="curve" smooth="yes"/>
      <point x="543.1807228915662" y="393.3072289156627"/>
      <point x="562.7650602409639" y="375.46987951807233"/>
      <point x="562.7650602409639" y="316.1204819277108" type="curve" smooth="yes"/>
      <point x="562.7650602409639" y="0.0" type="line"/>
      <point x="700.5722891566265" y="0.0" type="line"/>
      <point x="700.5722891566265" y="328.6566265060241" type="line" smooth="yes"/>
      <point x="700.5722891566265" y="444.06024096385545"/>
      <point x="654.4819277108434" y="501.1927710843374"/>
      <point x="570.2891566265062" y="501.1927710843374" type="curve" smooth="yes"/>
      <point x="501.0883554216867" y="501.1927710843374"/>
      <point x="447.73824698795187" y="462.72878915662653"/>
      <point x="426.3192771084337" y="402.07228915662654" type="curve"/>
      <point x="435.6024096385542" y="402.07228915662654" type="line"/>
      <point x="419.6325301204819" y="468.9096385542168"/>
      <point x="377.2590361445783" y="501.1927710843374"/>
      <point x="313.94578313253015" y="501.1927710843374" type="curve" smooth="yes"/>
      <point x="247.5421686746988" y="501.1927710843374"/>
      <point x="197.2289156626506" y="462.4457831325301"/>
      <point x="175.9156626506024" y="402.4156626506024" type="curve"/>
      <point x="183.6024096385542" y="402.4156626506024" type="line"/>
      <point x="183.6024096385542" y="490.566265060241" type="line"/>
      <point x="50.07831325301204" y="490.566265060241" type="line"/>
    </contour>
  </outline>
</glyph>
<glyph name="n" format="2">
  <advance width="497.4277108433734"/>
  <unicode hex="006E"/>
  <anchor x="247.9819277108434" y="0.0" name="bottom"/>
  <anchor x="247.9819277108434" y="484.0" name="top"/>
  <outline>
    <contour>
      <point x="48.07831325301204" y="0.0" type="line"/>
      <point x="185.8855421686747" y="0.0" type="line"/>
      <point x="185.8855421686747" y="304.3433734939759" type="line" smooth="yes"/>
      <point x="185.8855421686747" y="359.6325301204819"/>
      <point x="216.6807228915663" y="393.3072289156627"/>
      <point x="259.87951807228916" y="393.3072289156627" type="curve" smooth="yes"/>
      <point x="291.9578313253012" y="393.3072289156627"/>
      <point x="313.57228915662654" y="375.46987951807233"/>
      <point x="313.57228915662654" y="316.4638554216868" type="curve" smooth="yes"/>
      <point x="313.57228915662654" y="0.0" type="line"/>
      <point x="451.3795180722892" y="0.0" type="line"/>
      <point x="451.3795180722892" y="328.6566265060241" type="line" smooth="yes"/>
      <point x="451.3795180722892" y="444.06024096385545"/>
      <point x="403.6024096385542" y="501.1927710843374"/>
      <point x="316.34939759036143" y="501.1927710843374" type="curve" smooth="yes"/>
      <point x="247.5722891566265" y="501.1927710843374"/>
      <point x="194.8855421686747" y="462.44578313253015"/>
      <point x="173.9156626506024" y="402.4156626506024" type="curve"/>
      <point x="181.6024096385542" y="402.4156626506024" type="line"/>
      <point x="181.6024096385542" y="490.566265060241" type="line"/>
      <point x="48.07831325301204" y="490.566265060241" type="line"/>
    </contour>
  </outline>
</glyph>
<glyph name="o" format="2">
  <advance width="493.9638554216868"/>
  <unicode hex="006F"/>
  <anchor x="246.9819277108434" y="0.0" name="bottom"/>
  <anchor x="246.9819277108434" y="244.9698795180723" name="center"/>
  <anchor x="287.89156626506025" y="0.0" name="ogonek"/>
  <anchor x="246.9819277108434" y="484.0" name="top"/>
  <anchor x="300.0843373493976" y="484.0" name="topright"/>
  <outline>
    <contour>
      <point x="246.9819277108434" y="-10.626506024096384" type="curve" smooth="yes"/>
      <point x="383.5602409638554" y="-10.626506024096384"/>
      <point x="464.6927710843373" y="79.90963855421687"/>
      <point x="464.6927710843373" y="245.6265060240964" type="curve" smooth="yes"/>
      <point x="464.6927710843373" y="410.6566265060241"/>
      <point x="383.5602409638554" y="501.1927710843374"/>
      <point x="246.9819277108434" y="501.1927710843374" type="curve" smooth="yes"/>
      <point x="109.71686746987952" y="501.1927710843374"/>
      <point x="29.2710843373494" y="410.6566265060241"/>
      <point x="29.2710843373494" y="245.6265060240964" type="curve" smooth="yes"/>
      <point x="29.2710843373494" y="79.90963855421687"/>
      <point x="109.71686746987952" y="-10.626506024096384"/>
    </contour>
    <contour>
      <point x="246.9819277108434" y="93.97590361445782" type="curve" smooth="yes"/>
      <point x="196.75301204819277" y="93.97590361445782"/>
      <point x="168.07831325301206" y="134.68072289156623"/>
      <point x="168.07831325301206" y="245.6265060240964" type="curve" smooth="yes"/>
      <point x="168.07831325301206" y="356.57228915662654"/>
      <point x="196.75301204819277" y="396.5903614457831"/>
      <point x="246.9819277108434" y="396.5903614457831" type="curve" smooth="yes"/>
      <point x="296.5240963855421" y="396.5903614457831"/>
      <point x="325.8855421686747" y="356.57228915662654"/>
      <point x="325.8855421686747" y="245.6265060240964" type="curve" smooth="yes"/>
      <point x="325.8855421686747" y="134.68072289156623"/>
      <point x="296.5240963855421" y="93.97590361445782"/>
    </contour>
  </outline>
</glyph>
<glyph name="p" format="2">
  <advance width="509.45783132530124"/>
  <unicode hex="0070"/>
  <anchor x="255.44578313253012" y="0.0" name="bottom"/>
  <anchor x="255.44578313253012" y="484.0" name="top"/>
  <outline>
    <contour>
      <point x="48.07831325301204" y="-180.0" type="line"/>
      <point x="185.8855421686747" y="-180.0" type="line"/>
      <point x="185.8855421686747" y="96.39156626506025" type="line"/>
      <point x="174.5722891566265" y="96.39156626506025" type="line"/>
      <point x="189.94578313253012" y="28.777108433734938"/>
      <point x="238.00602409638557" y="-10.626506024096384"/>
      <point x="307.8132530120482" y="-10.626506024096384" type="curve" smooth="yes"/>
      <point x="414.8734939759036" y="-10.626506024096384"/>
      <point x="480.1867469879518" y="84.6566265060241"/>
      <point x="480.1867469879518" y="245.6265060240964" type="curve" smooth="yes"/>
      <point x="480.1867469879518" y="406.59638554216866"/>
      <point x="414.8734939759036" y="501.1927710843374"/>
      <point x="307.1566265060241" y="501.1927710843374" type="curve" smooth="yes"/>
      <point x="237.66265060240963" y="501.1927710843374"/>
      <point x="189.94578313253012" y="462.44578313253015"/>
      <point x="174.5722891566265" y="394.8614457831325" type="curve"/>
      <point x="183.5722891566265" y="394.8614457831325" type="line"/>
      <point x="183.5722891566265" y="490.566265060241" type="line"/>
      <point x="48.07831325301204" y="490.566265060241" type="line"/>
    </contour>
    <contour>
      <point x="262.4759036144578" y="93.97590361445782" type="curve" smooth="yes"/>
      <point x="209.21686746987953" y="93.97590361445782"/>
      <point x="183.5722891566265" y="144.02409638554215"/>
      <point x="183.5722891566265" y="245.6265060240964" type="curve" smooth="yes"/>
      <point x="183.5722891566265" y="347.22891566265065"/>
      <point x="209.21686746987953" y="396.5903614457831"/>
      <point x="262.4759036144578" y="396.5903614457831" type="curve" smooth="yes"/>
      <point x="315.0481927710843" y="396.5903614457831"/>
      <point x="341.37951807228916" y="347.8855421686747"/>
      <point x="341.37951807228916" y="245.6265060240964" type="curve" smooth="yes"/>
      <point x="341.37951807228916" y="143.36746987951804"/>
      <point x="315.0481927710843" y="93.97590361445782"/>
    </contour>
  </outline>
</glyph>
<glyph name="r" format="2">
  <advance width="355.5120481927711"/>
  <unicode hex="0072"/>
  <anchor x="117.95180722891567" y="0.0" name="bottom"/>
  <anchor x="198.60843373493975" y="484.0" name="top"/>
  <outline>
    <contour>
      <point x="48.07831325301204" y="0.0" type="line"/>
      <point x="188.5120481927711" y="0.0" type="line"/>
      <point x="188.5120481927711" y="262.2590361445783" type="line" smooth="yes"/>
      <point x="188.5120481927711" y="341.7831325301205"/>
      <point x="219.72289156626508" y="374.17469879518075"/>
      <point x="272.80120481927713" y="379.89156626506025" type="curve" smooth="yes"/>
      <point x="348.421686746988" y="387.14457831325296" type="line"/>
      <point x="341.1385542168675" y="503.87951807228916" type="line"/>
      <point x="302.7831325301205" y="500.566265060241" type="line" smooth="yes"/>
      <point x="228.00602409638557" y="493.1927710843373"/>
      <point x="187.69277108433735" y="452.9698795180723"/>
      <point x="174.9156626506024" y="377.68674698795184" type="curve"/>
      <point x="182.9156626506024" y="377.68674698795184" type="line"/>
      <point x="182.9156626506024" y="490.566265060241" type="line"/>
      <point x="48.07831325301204" y="490.566265060241" type="line"/>
    </contour>
  </outline>
</glyph>
<glyph name="s" format="2">
  <advance width="410.132530120482"/>
  <unicode hex="0073"/>
  <anchor x="205.87951807228916" y="0.0" name="bottom"/>
  <anchor x="212.56626506024097" y="484.0" name="top"/>
  <outline>
    <contour>
      <point x="205.3132530120482" y="-10.626506024096384" type="curve" smooth="yes"/>
      <point x="314.98192771084337" y="-10.626506024096384"/>
      <point x="387.3975903614458" y="50.25301204819277"/>
      <point x="387.3975903614458" y="145.98192771084337" type="curve" smooth="yes"/>
      <point x="387.3975903614458" y="220.144578313253"/>
      <point x="345.17469879518075" y="272.05421686746985"/>
      <point x="268.8614457831326" y="286.4277108433735" type="curve" smooth="yes"/>
      <point x="207.4879518072289" y="298.4879518072289" type="line" smooth="yes"/>
      <point x="173.93373493975906" y="303.8614457831325"/>
      <point x="159.15662650602408" y="323.44578313253015"/>
      <point x="159.15662650602408" y="349.4036144578313" type="curve" smooth="yes"/>
      <point x="159.15662650602408" y="384.54216867469876"/>
      <point x="185.7409638554217" y="405.1265060240964"/>
      <point x="225.10240963855424" y="405.1265060240964" type="curve" smooth="yes"/>
      <point x="263.44578313253015" y="405.1265060240964"/>
      <point x="311.60843373493975" y="386.8433734939759"/>
      <point x="343.0120481927711" y="360.66265060240966" type="curve"/>
      <point x="377.77108433734946" y="448.44578313253015" type="line"/>
      <point x="338.8614457831325" y="481.84939759036143"/>
      <point x="284.2951807228916" y="501.1927710843374"/>
      <point x="223.789156626506" y="501.1927710843374" type="curve" smooth="yes"/>
      <point x="111.21084337349397" y="501.1927710843374"/>
      <point x="36.765060240963855" y="438.0"/>
      <point x="36.765060240963855" y="341.49397590361446" type="curve" smooth="yes"/>
      <point x="36.765060240963855" y="269.33132530120486"/>
      <point x="79.33132530120483" y="218.07831325301206"/>
      <point x="154.210843373494" y="204.04819277108436" type="curve" smooth="yes"/>
      <point x="215.5843373493976" y="191.98795180722894" type="line" smooth="yes"/>
      <point x="248.16867469879514" y="185.9277108433735"/>
      <point x="265.00602409638554" y="169.6867469879518"/>
      <point x="265.00602409638554" y="140.35542168674698" type="curve" smooth="yes"/>
      <point x="265.00602409638554" y="105.68072289156626"/>
      <point x="238.79518072289153" y="86.09638554216866"/>
      <point x="196.46385542168676" y="86.09638554216866" type="curve" smooth="yes"/>
      <point x="153.03012048192772" y="86.09638554216866"/>
      <point x="103.49397590361446" y="101.72289156626506"/>
      <point x="59.80722891566265" y="130.5" type="curve"/>
      <point x="26.704819277108438" y="42.746987951807235" type="line"/>
      <point x="67.67469879518073" y="10.686746987951807"/>
      <point x="133.46385542168676" y="-10.626506024096384"/>
    </contour>
  </outline>
</glyph>
<glyph name="t" format="2">
  <advance width="348.51204819277103"/>
  <unicode hex="0074"/>
  <anchor x="202.86144578313252" y="0.0" name="bottom"/>
  <anchor x="163.17469879518075" y="258.8975903614458" name="center"/>
  <anchor x="147.08433734939757" y="635.0" name="top"/>
  <anchor x="249.43975903614455" y="705.0" name="topright"/>
  <outline>
    <contour>
      <point x="249.144578313253" y="-10.626506024096384" type="curve" smooth="yes"/>
      <point x="283.27710843373495" y="-10.626506024096384"/>
      <point x="319.1867469879518" y="-2.3132530120481927"/>
      <point x="343.9759036144579" y="10.93975903614458" type="curve"/>
      <point x="324.1265060240964" y="112.19879518072288" type="line"/>
      <point x="309.81325301204816" y="106.88554216867469"/>
      <point x="289.1867469879518" y="102.19879518072288"/>
      <point x="273.8132530120482" y="102.19879518072288" type="curve" smooth="yes"/>
      <point x="235.73493975903614" y="102.19879518072288"/>
      <point x="215.64457831325302" y="120.72289156626505"/>
      <point x="215.64457831325302" y="172.29518072289156" type="curve" smooth="yes"/>
      <point x="215.64457831325302" y="388.96385542168673" type="line"/>
      <point x="330.855421686747" y="388.96385542168673" type="line"/>
      <point x="330.855421686747" y="490.566265060241" type="line"/>
      <point x="215.64457831325302" y="490.566265060241" type="line"/>
      <point x="215.64457831325302" y="635.0" type="line"/>
      <point x="77.83734939759036" y="635.0" type="line"/>
      <point x="77.83734939759036" y="490.566265060241" type="line"/>
      <point x="3.1204819277108435" y="490.566265060241" type="line"/>
      <point x="3.1204819277108435" y="388.96385542168673" type="line"/>
      <point x="77.83734939759036" y="388.96385542168673" type="line"/>
      <point x="77.83734939759036" y="167.23493975903614" type="line" smooth="yes"/>
      <point x="77.83734939759036" y="46.19277108433735"/>
      <point x="133.6265060240964" y="-10.626506024096384"/>
    </contour>
  </outline>
</glyph>
<glyph name="u" format="2">
  <advance width="493.0843373493977"/>
  <unicode hex="0075"/>
  <anchor x="246.0421686746988" y="0.0" name="bottom"/>
  <anchor x="411.8313253012048" y="0.0" name="ogonek"/>
  <anchor x="246.0421686746988" y="484.68674698795184" name="top"/>
  <anchor x="346.62650602409644" y="484.0" name="topright"/>
  <outline>
    <contour>
      <point x="178.39156626506025" y="-10.626506024096384" type="curve" smooth="yes"/>
      <point x="246.33349397590365" y="-10.626506024096384"/>
      <point x="297.52440963855423" y="28.503000000000004"/>
      <point x="318.82530120481925" y="88.49397590361446" type="curve"/>
      <point x="311.48192771084337" y="88.49397590361446" type="line"/>
      <point x="311.48192771084337" y="0.0" type="line"/>
      <point x="445.00602409638554" y="0.0" type="line"/>
      <point x="445.00602409638554" y="490.566265060241" type="line"/>
      <point x="307.19879518072287" y="490.566265060241" type="line"/>
      <point x="307.19879518072287" y="185.53614457831327" type="line" smooth="yes"/>
      <point x="307.19879518072287" y="130.24698795180723"/>
      <point x="277.17630120481925" y="97.2590361445783"/>
      <point x="235.54819277108433" y="97.2590361445783" type="curve" smooth="yes"/>
      <point x="204.0578313253012" y="97.2590361445783"/>
      <point x="183.85542168674698" y="114.40963855421685"/>
      <point x="183.85542168674698" y="173.75903614457832" type="curve" smooth="yes"/>
      <point x="183.85542168674698" y="490.566265060241" type="line"/>
      <point x="46.04819277108433" y="490.566265060241" type="line"/>
      <point x="46.04819277108433" y="162.25301204819274" type="line" smooth="yes"/>
      <point x="46.04819277108433" y="46.84939759036145"/>
      <point x="93.09107228915661" y="-10.626506024096384"/>
    </contour>
  </outline>
</glyph>
<glyph name="v" format="2">
  <advance width="445.60843373493975"/>
  <unicode hex="0076"/>
  <anchor x="224.44578313253015" y="0.0" name="bottom"/>
  <anchor x="224.44578313253015" y="484.0" name="top"/>
  <outline>
    <contour>
      <point x="164.39156626506028" y="0.0" type="line"/>
      <point x="281.2168674698795" y="0.0" type="line"/>
      <point x="456.12650602409644" y="490.566265060241" type="line"/>
      <point x="320.9156626506024" y="490.566265060241" type="line"/>
      <point x="210.44578313253012" y="122.53614457831323" type="line"/>
      <point x="241.10240963855426" y="122.53614457831323" type="line"/>
      <point x="135.25903614457832" y="490.566265060241" type="line"/>
      <point x="-10.17469879518072" y="490.566265060241" type="line"/>
    </contour>
  </outline>
</glyph>
<glyph name="w" format="2">
  <advance width="710.2650602409639"/>
  <unicode hex="0077"/>
  <anchor x="356.13253012048193" y="0.0" name="bottom"/>
  <anchor x="356.13253012048193" y="484.0" name="top"/>
  <outline>
    <contour>
      <point x="162.24096385542168" y="0.0" type="line"/>
      <point x="276.46987951807233" y="0.0" type="line"/>
      <point x="382.5180722891566" y="371.4156626506024" type="line"/>
      <point x="329.43373493975906" y="371.4156626506024" type="line"/>
      <point x="435.4819277108434" y="0.0" type="line"/>
      <point x="549.3975903614457" y="0.0" type="line"/>
      <point x="715.3192771084338" y="490.566265060241" type="line"/>
      <point x="582.7349397590363" y="490.566265060241" type="line"/>
      <point x="481.9096385542169" y="129.4457831325301" type="line"/>
      <point x="500.65662650602405" y="129.4457831325301" type="line"/>
      <point x="402.42771084337346" y="490.566265060241" type="line"/>
      <point x="315.77710843373495" y="490.566265060241" type="line"/>
      <point x="217.20481927710844" y="129.4457831325301" type="line"/>
      <point x="235.60843373493978" y="129.4457831325301" type="line"/>
      <point x="135.4698795180723" y="490.566265060241" type="line"/>
      <point x="-4.36746987951807" y="490.566265060241" type="line"/>
    </contour>
  </outline>
</glyph>
<glyph name="x" format="2">
  <advance width="469.6204819277108"/>
  <unicode hex="0078"/>
  <anchor x="235.32530120481928" y="0.0" name="bottom"/>
  <anchor x="235.32530120481928" y="484.0" name="top"/>
  <outline>
    <contour>
      <point x="-12.054216867469876" y="0.0" type="line"/>
      <point x="144.25903614457832" y="0.0" type="line"/>
      <point x="258.0240963855422" y="188.9457831325301" type="line"/>
      <point x="211.90963855421688" y="188.9457831325301" type="line"/>
      <point x="322.078313253012" y="0.0" type="line"/>
      <point x="483.0180722891567" y="0.0" type="line"/>
      <point x="290.37951807228916" y="283.6084337349398" type="line"/>
      <point x="290.37951807228916" y="221.3012048192771" type="line"/>
      <point x="472.39156626506025" y="490.566265060241" type="line"/>
      <point x="316.078313253012" y="490.566265060241" type="line"/>
      <point x="211.90963855421688" y="313.6204819277108" type="line"/>
      <point x="260.4277108433735" y="313.6204819277108" type="line"/>
      <point x="159.85542168674698" y="490.566265060241" type="line"/>
      <point x="-1.084337349397587" y="490.566265060241" type="line"/>
      <point x="179.6144578313253" y="220.9277108433735" type="line"/>
      <point x="179.6144578313253" y="284.35542168674704" type="line"/>
    </contour>
  </outline>
</glyph>
<glyph name="y" format="2">
  <advance width="445.60843373493987"/>
  <unicode hex="0079"/>
  <anchor x="353.96385542168673" y="0.0" name="bottom"/>
  <anchor x="223.8192771084337" y="484.0" name="top"/>
  <outline>
    <contour>
      <point x="76.75301204819279" y="-180.0" type="line"/>
      <point x="217.59036144578315" y="-180.0" type="line"/>
      <point x="456.1265060240963" y="490.566265060241" type="line"/>
      <point x="320.5722891566265" y="490.566265060241" type="line"/>
      <point x="212.50602409638554" y="127.34337349397588" type="line"/>
      <point x="239.72891566265062" y="127.34337349397588" type="line"/>
      <point x="134.9156626506024" y="490.566265060241" type="line"/>
      <point x="-10.518072289156622" y="490.566265060241" type="line"/>
      <point x="170.42168674698797" y="-18.12048192771084" type="line"/>
      <point x="170.42168674698797" y="53.054216867469876" type="line"/>
    </contour>
  </outline>
</glyph>
<glyph name="z" format="2">
  <advance width="402.0120481927711"/>
  <unicode hex="007A"/>
  <anchor x="204.87951807228916" y="0.0" name="bottom"/>
  <anchor x="204.87951807228916" y="484.0" name="top"/>
  <outline>
    <contour>
      <point x="39.554216867469876" y="0.0" type="line"/>
      <point x="379.54819277108436" y="0.0" type="line"/>
      <point x="379.54819277108436" y="101.6024096385542" type="line"/>
      <point x="157.97590361445782" y="101.6024096385542" type="line"/>
      <point x="157.97590361445782" y="66.30722891566263" type="line"/>
      <point x="370.5180722891567" y="401.18674698795184" type="line"/>
      <point x="370.5180722891567" y="490.566265060241" type="line"/>
      <point x="39.554216867469876" y="490.566265060241" type="line"/>
      <point x="39.554216867469876" y="388.96385542168673" type="line"/>
      <point x="248.50000000000003" y="388.96385542168673" type="line"/>
      <point x="248.50000000000003" y="424.94578313253015" type="line"/>
      <point x="39.554216867469876" y="89.37951807228916" type="line"/>
    </contour>
  </outline>
</glyph>
<glyph name="braceleft" format="2">
  <advance width="358.3614457831325"/>
  <unicode hex="007B"/>
  <outline>
    <contour>
      <point x="233.4578313253012" y="-180.0" type="curve" smooth="yes"/>
      <point x="340.48192771084337" y="-180.0" type="line"/>
      <point x="340.48192771084337" y="-77.0843373493976" type="line"/>
      <point x="295.27108433734935" y="-77.0843373493976" type="line" smooth="yes"/>
      <point x="270.5843373493976" y="-77.0843373493976"/>
      <point x="255.2710843373494" y="-61.71084337349398"/>
      <point x="255.2710843373494" y="-32.36746987951808" type="curve" smooth="yes"/>
      <point x="255.2710843373494" y="147.3012048192771" type="line" smooth="yes"/>
      <point x="255.2710843373494" y="209.24096385542168"/>
      <point x="221.04819277108433" y="263.6867469879518"/>
      <point x="166.8855421686747" y="263.6867469879518" type="curve"/>
      <point x="166.8855421686747" y="259.6867469879518" type="line"/>
      <point x="221.04819277108433" y="259.6867469879518"/>
      <point x="255.2710843373494" y="315.13253012048193"/>
      <point x="255.2710843373494" y="377.07228915662654" type="curve" smooth="yes"/>
      <point x="255.2710843373494" y="557.367469879518" type="line" smooth="yes"/>
      <point x="255.2710843373494" y="586.710843373494"/>
      <point x="270.5843373493976" y="602.0843373493975"/>
      <point x="295.27108433734935" y="602.0843373493975" type="curve" smooth="yes"/>
      <point x="340.48192771084337" y="602.0843373493975" type="line"/>
      <point x="340.48192771084337" y="705.0" type="line"/>
      <point x="233.4578313253012" y="705.0" type="line" smooth="yes"/>
      <point x="161.19277108433735" y="705.0"/>
      <point x="117.46385542168674" y="657.6144578313252"/>
      <point x="117.46385542168674" y="578.0060240963857" type="curve" smooth="yes"/>
      <point x="117.46385542168674" y="393.8614457831325" type="line" smooth="yes"/>
      <point x="117.46385542168674" y="339.1746987951807"/>
      <point x="106.06024096385542" y="318.8012048192771"/>
      <point x="70.90963855421687" y="315.45783132530124" type="curve" smooth="yes"/>
      <point x="34.554216867469876" y="311.83132530120486" type="line"/>
      <point x="34.554216867469876" y="212.54216867469881" type="line"/>
      <point x="70.90963855421687" y="208.91566265060243" type="line" smooth="yes"/>
      <point x="106.06024096385542" y="205.57228915662648"/>
      <point x="117.46385542168674" y="184.5421686746988"/>
      <point x="117.46385542168674" y="131.1686746987952" type="curve" smooth="yes"/>
      <point x="117.46385542168674" y="-53.006024096385545" type="line" smooth="yes"/>
      <point x="117.46385542168674" y="-132.6144578313253"/>
      <point x="161.19277108433735" y="-180.0"/>
    </contour>
  </outline>
</glyph>
<glyph name="bar" format="2">
  <advance width="264.5903614457831"/>
  <unicode hex="007C"/>
  <outline>
    <contour>
      <point x="63.391566265060234" y="-180.0" type="line"/>
      <point x="201.1987951807229" y="-180.0" type="line"/>
      <point x="201.1987951807229" y="705.0" type="line"/>
      <point x="63.391566265060234" y="705.0" type="line"/>
    </contour>
  </outline>
</glyph>
<glyph name="braceright" format="2">
  <advance width="358.3614457831325"/>
  <unicode hex="007D"/>
  <outline>
    <contour>
      <point x="17.879518072289155" y="-180.0" type="line"/>
      <point x="125.24698795180721" y="-180.0" type="line" smooth="yes"/>
      <point x="197.5120481927711" y="-180.0"/>
      <point x="241.24096385542165" y="-132.6144578313253"/>
      <point x="241.24096385542165" y="-53.006024096385545" type="curve" smooth="yes"/>
      <point x="241.24096385542165" y="131.1686746987952" type="line" smooth="yes"/>
      <point x="241.24096385542165" y="184.54216867469881"/>
      <point x="252.3012048192771" y="205.5722891566265"/>
      <point x="287.45180722891564" y="208.91566265060243" type="curve" smooth="yes"/>
      <point x="324.15060240963857" y="212.54216867469881" type="line"/>
      <point x="324.15060240963857" y="311.83132530120486" type="line"/>
      <point x="287.45180722891564" y="315.45783132530124" type="line" smooth="yes"/>
      <point x="252.3012048192771" y="318.4578313253012"/>
      <point x="241.24096385542165" y="339.17469879518075"/>
      <point x="241.24096385542165" y="393.8614457831325" type="curve" smooth="yes"/>
      <point x="241.24096385542165" y="578.0060240963857" type="line" smooth="yes"/>
      <point x="241.24096385542165" y="657.6144578313252"/>
      <point x="197.5120481927711" y="705.0"/>
      <point x="125.24698795180721" y="705.0" type="curve" smooth="yes"/>
      <point x="17.879518072289155" y="705.0" type="line"/>
      <point x="17.879518072289155" y="602.0843373493975" type="line"/>
      <point x="63.77710843373494" y="602.0843373493975" type="line" smooth="yes"/>
      <point x="88.12048192771084" y="602.0843373493975"/>
      <point x="103.43373493975903" y="586.710843373494"/>
      <point x="103.43373493975903" y="557.367469879518" type="curve" smooth="yes"/>
      <point x="103.43373493975903" y="377.07228915662654" type="line" smooth="yes"/>
      <point x="103.43373493975903" y="315.13253012048193"/>
      <point x="138.0" y="259.6867469879518"/>
      <point x="191.47590361445782" y="259.6867469879518" type="curve"/>
      <point x="191.47590361445782" y="263.6867469879518" type="line"/>
      <point x="138.0" y="263.6867469879518"/>
      <point x="103.43373493975903" y="209.58433734939757"/>
      <point x="103.43373493975903" y="147.3012048192771" type="curve" smooth="yes"/>
      <point x="103.43373493975903" y="-32.36746987951808" type="line" smooth="yes"/>
      <point x="103.43373493975903" y="-61.71084337349398"/>
      <point x="88.12048192771084" y="-77.0843373493976"/>
      <point x="63.77710843373494" y="-77.0843373493976" type="curve" smooth="yes"/>
      <point x="17.879518072289155" y="-77.0843373493976" type="line"/>
    </contour>
  </outline>
</glyph>
<glyph name="asciitilde" format="2">
  <advance width="498.0"/>
  <unicode hex="007E"/>
  <outline>
    <contour>
      <point x="341.12048192771084" y="206.3012048192771" type="curve" smooth="yes"/>
      <point x="400.3433734939759" y="206.3012048192771"/>
      <point x="447.5963855421686" y="249.15060240963857"/>
      <point x="466.0" y="315.0301204819277" type="curve"/>
      <point x="399.31927710843377" y="353.23493975903614" type="line"/>
      <point x="387.9457831325301" y="314.9518072289157"/>
      <point x="366.078313253012" y="296.144578313253"/>
      <point x="338.6144578313253" y="296.144578313253" type="curve" smooth="yes"/>
      <point x="311.433734939759" y="296.144578313253"/>
      <point x="284.87951807228916" y="315.9518072289157"/>
      <point x="258.96987951807233" y="332.60843373493975" type="curve" smooth="yes"/>
      <point x="221.2831325301205" y="357.355421686747"/>
      <point x="189.9698795180723" y="367.7289156626506"/>
      <point x="158.25301204819277" y="367.7289156626506" type="curve" smooth="yes"/>
      <point x="97.6566265060241" y="367.7289156626506"/>
      <point x="50.74698795180723" y="325.22289156626505"/>
      <point x="32.0" y="258.65662650602405" type="curve"/>
      <point x="101.08433734939757" y="220.7951807228916" type="line"/>
      <point x="111.08433734939757" y="259.078313253012"/>
      <point x="131.92168674698794" y="277.54216867469876"/>
      <point x="160.41566265060243" y="277.54216867469876" type="curve" smooth="yes"/>
      <point x="186.90963855421688" y="277.54216867469876"/>
      <point x="211.74698795180723" y="259.1084337349398"/>
      <point x="238.34337349397592" y="242.7951807228916" type="curve" smooth="yes"/>
      <point x="278.43373493975906" y="217.01807228915663"/>
      <point x="309.40361445783134" y="206.3012048192771"/>
    </contour>
  </outline>
</glyph>
<glyph name="exclamdown" format="2">
  <advance width="226.36746987951807"/>
  <unicode hex="00A1"/>
  <outline>
    <contour>
      <point x="28.60240963855422" y="-180.0" type="line"/>
      <point x="198.42168674698794" y="-180.0" type="line"/>
      <point x="154.90361445783134" y="274.4096385542169" type="line"/>
      <point x="72.12048192771084" y="274.4096385542169" type="line"/>
    </contour>
    <contour>
      <point x="40.98795180722892" y="341.8614457831325" type="line"/>
      <point x="186.03614457831324" y="341.8614457831325" type="line"/>
      <point x="186.03614457831324" y="490.566265060241" type="line"/>
      <point x="40.98795180722892" y="490.566265060241" type="line"/>
    </contour>
  </outline>
</glyph>
<glyph name="cent" format="2">
  <advance width="498.0"/>
  <unicode hex="00A2"/>
  <outline>
    <contour>
      <point x="211.97590361445785" y="-115.0" type="line"/>
      <point x="318.8915662650603" y="-115.0" type="line"/>
      <point x="318.8915662650603" y="20.789156626506024" type="line"/>
      <point x="286.6987951807229" y="-6.0" type="line"/>
      <point x="348.26506024096386" y="-5.656626506024097"/>
      <point x="406.7710843373494" y="13.716867469879519"/>
      <point x="439.11445783132524" y="42.80722891566265" type="curve"/>
      <point x="400.07228915662654" y="138.7831325301205" type="line"/>
      <point x="373.3253012048193" y="115.28915662650601"/>
      <point x="334.3253012048193" y="100.2590361445783"/>
      <point x="300.144578313253" y="100.2590361445783" type="curve" smooth="yes"/>
      <point x="237.66265060240963" y="100.2590361445783"/>
      <point x="205.42168674698794" y="148.59036144578315"/>
      <point x="205.42168674698794" y="245.6265060240964" type="curve" smooth="yes"/>
      <point x="205.42168674698794" y="341.3192771084337"/>
      <point x="236.3192771084337" y="390.6506024096385"/>
      <point x="299.1746987951807" y="390.6506024096385" type="curve" smooth="yes"/>
      <point x="335.0120481927711" y="390.6506024096385"/>
      <point x="372.6987951807229" y="375.93373493975906"/>
      <point x="400.4156626506024" y="351.7831325301205" type="curve"/>
      <point x="439.11445783132524" y="447.7590361445783" type="line"/>
      <point x="407.1144578313253" y="477.53614457831327"/>
      <point x="348.2650602409639" y="496.56626506024094"/>
      <point x="286.69879518072287" y="496.566265060241" type="curve"/>
      <point x="318.8915662650603" y="465.71686746987956" type="line"/>
      <point x="318.8915662650603" y="609.5963855421687" type="line"/>
      <point x="211.97590361445785" y="609.5963855421687" type="line"/>
      <point x="211.97590361445785" y="457.5240963855422" type="line"/>
      <point x="226.79518072289156" y="488.68674698795184" type="line"/>
      <point x="124.36144578313255" y="467.9578313253012"/>
      <point x="64.64457831325302" y="380.9277108433735"/>
      <point x="64.64457831325302" y="245.96987951807228" type="curve" smooth="yes"/>
      <point x="64.64457831325302" y="108.32530120481928"/>
      <point x="125.33132530120484" y="21.63855421686747"/>
      <point x="229.42168674698794" y="0.8795180722891551" type="curve"/>
      <point x="211.97590361445785" y="27.355421686746986" type="line"/>
    </contour>
  </outline>
</glyph>
<glyph name="sterling" format="2">
  <advance width="498.0"/>
  <unicode hex="00A3"/>
  <outline>
    <contour>
      <point x="33.46385542168675" y="0.0" type="line"/>
      <point x="463.0120481927711" y="0.0" type="line"/>
      <point x="463.0120481927711" y="114.79518072289156" type="line"/>
      <point x="236.94578313253012" y="114.79518072289156" type="line"/>
      <point x="236.94578313253012" y="305.3313253012048" type="line"/>
      <point x="359.77108433734935" y="305.3313253012048" type="line"/>
      <point x="359.77108433734935" y="401.69879518072287" type="line"/>
      <point x="236.94578313253012" y="401.69879518072287" type="line"/>
      <point x="236.94578313253012" y="512.3915662650602" type="line" smooth="yes"/>
      <point x="236.94578313253012" y="563.1445783132531"/>
      <point x="250.68072289156626" y="602.8012048192772"/>
      <point x="313.921686746988" y="602.8012048192772" type="curve" smooth="yes"/>
      <point x="357.53614457831327" y="602.8012048192772"/>
      <point x="394.0301204819277" y="585.0843373493976"/>
      <point x="431.7168674698795" y="550.5602409638554" type="curve"/>
      <point x="473.3554216867469" y="652.1626506024096" type="line"/>
      <point x="430.7590361445784" y="692.2530120481927"/>
      <point x="370.3855421686747" y="715.6265060240964"/>
      <point x="299.56626506024094" y="715.6265060240964" type="curve" smooth="yes"/>
      <point x="166.61445783132532" y="715.6265060240964"/>
      <point x="94.88554216867472" y="645.8674698795181"/>
      <point x="94.88554216867472" y="507.45180722891564" type="curve" smooth="yes"/>
      <point x="94.88554216867472" y="401.69879518072287" type="line"/>
      <point x="33.46385542168675" y="401.69879518072287" type="line"/>
      <point x="33.46385542168675" y="305.3313253012048" type="line"/>
      <point x="94.88554216867472" y="305.3313253012048" type="line"/>
      <point x="94.88554216867472" y="114.79518072289156" type="line"/>
      <point x="33.46385542168675" y="114.79518072289156" type="line"/>
    </contour>
  </outline>
</glyph>
<glyph name="currency" format="2">
  <advance width="498.0"/>
  <unicode hex="00A4"/>
  <outline>
    <contour>
      <point x="59.566265060240966" y="-4.789156626506026" type="line"/>
      <point x="124.25301204819277" y="62.89759036144578" type="line"/>
      <point x="158.90963855421688" y="38.83734939759036"/>
      <point x="201.96987951807228" y="25.46385542168675"/>
      <point x="249.34337349397592" y="25.46385542168675" type="curve" smooth="yes"/>
      <point x="296.37349397590356" y="25.46385542168675"/>
      <point x="340.0903614457831" y="39.524096385542165"/>
      <point x="374.7469879518072" y="63.24096385542168" type="curve"/>
      <point x="439.12048192771084" y="-4.789156626506026" type="line"/>
      <point x="489.75903614457826" y="40.566265060240966" type="line"/>
      <point x="424.7289156626506" y="109.25301204819276" type="line"/>
      <point x="453.44578313253015" y="146.5963855421687"/>
      <point x="470.132530120482" y="194.2831325301205"/>
      <point x="470.132530120482" y="245.96987951807228" type="curve" smooth="yes"/>
      <point x="470.132530120482" y="297.99999999999994"/>
      <point x="453.44578313253015" y="344.99999999999994"/>
      <point x="425.0722891566265" y="381.65662650602405" type="curve"/>
      <point x="489.4156626506023" y="450.3433734939759" type="line"/>
      <point x="439.1204819277109" y="495.35542168674704" type="line"/>
      <point x="375.433734939759" y="427.6686746987952" type="line"/>
      <point x="340.433734939759" y="451.72891566265065"/>
      <point x="297.06024096385545" y="465.1024096385542"/>
      <point x="249.34337349397592" y="465.1024096385542" type="curve" smooth="yes"/>
      <point x="201.6265060240964" y="465.1024096385542"/>
      <point x="158.5963855421687" y="451.3855421686747"/>
      <point x="123.25301204819277" y="427.3253012048193" type="curve"/>
      <point x="59.22289156626506" y="495.0120481927711" type="line"/>
      <point x="8.584337349397595" y="450.6867469879518" type="line"/>
      <point x="74.27108433734941" y="382.0" type="line"/>
      <point x="45.554216867469876" y="344.0"/>
      <point x="28.867469879518076" y="297.6566265060241"/>
      <point x="28.867469879518076" y="245.28313253012047" type="curve" smooth="yes"/>
      <point x="28.867469879518076" y="193.25301204819277"/>
      <point x="45.89759036144578" y="146.56626506024097"/>
      <point x="74.27108433734941" y="109.90963855421687" type="curve"/>
      <point x="8.584337349397595" y="40.566265060240966" type="line"/>
    </contour>
    <contour>
      <point x="249.3433734939759" y="122.84337349397589" type="curve" smooth="yes"/>
      <point x="181.54819277108433" y="122.5"/>
      <point x="128.56024096385545" y="176.51807228915663"/>
      <point x="128.56024096385545" y="244.93975903614458" type="curve" smooth="yes"/>
      <point x="128.56024096385545" y="314.04819277108436"/>
      <point x="181.2048192771084" y="368.7530120481928"/>
      <point x="249.3433734939759" y="368.4096385542168" type="curve" smooth="yes"/>
      <point x="317.7951807228916" y="367.72289156626505"/>
      <point x="370.43975903614455" y="314.0783132530121"/>
      <point x="370.43975903614455" y="245.6265060240964" type="curve" smooth="yes"/>
      <point x="370.43975903614455" y="177.86144578313255"/>
      <point x="317.7951807228916" y="123.1867469879518"/>
    </contour>
  </outline>
</glyph>
<glyph name="yen" format="2">
  <advance width="498.0"/>
  <unicode hex="00A5"/>
  <outline>
    <contour>
      <point x="177.81325301204816" y="0.0" type="line"/>
      <point x="319.8734939759036" y="0.0" type="line"/>
      <point x="319.8734939759036" y="163.5542168674699" type="line"/>
      <point x="440.1927710843374" y="163.5542168674699" type="line"/>
      <point x="440.1927710843374" y="252.44578313253012" type="line"/>
      <point x="319.8734939759036" y="252.44578313253012" type="line"/>
      <point x="319.8734939759036" y="309.2710843373494" type="line"/>
      <point x="440.1927710843374" y="309.2710843373494" type="line"/>
      <point x="440.1927710843374" y="398.50602409638554" type="line"/>
      <point x="340.21686746987956" y="398.50602409638554" type="line"/>
      <point x="340.21686746987956" y="382.44578313253015" type="line"/>
      <point x="513.9518072289156" y="705.0" type="line"/>
      <point x="363.29518072289164" y="705.0" type="line"/>
      <point x="234.15060240963854" y="429.9156626506024" type="line"/>
      <point x="263.22289156626505" y="429.9156626506024" type="line"/>
      <point x="135.39156626506025" y="705.0" type="line"/>
      <point x="-15.951807228915662" y="705.0" type="line"/>
      <point x="158.4698795180723" y="382.44578313253015" type="line"/>
      <point x="158.4698795180723" y="398.50602409638554" type="line"/>
      <point x="57.80722891566265" y="398.50602409638554" type="line"/>
      <point x="57.80722891566265" y="309.2710843373494" type="line"/>
      <point x="177.81325301204816" y="309.2710843373494" type="line"/>
      <point x="177.81325301204816" y="252.44578313253012" type="line"/>
      <point x="57.80722891566265" y="252.44578313253012" type="line"/>
      <point x="57.80722891566265" y="163.5542168674699" type="line"/>
      <point x="177.81325301204816" y="163.5542168674699" type="line"/>
    </contour>
  </outline>
</glyph>
<glyph name="section" format="2">
  <advance width="490.8433734939759"/>
  <unicode hex="00A7"/>
  <outline>
    <contour>
      <point x="221.6686746987952" y="-190.6265060240964" type="curve" smooth="yes"/>
      <point x="350.21686746987956" y="-190.6265060240964"/>
      <point x="430.6024096385542" y="-122.3132530120482"/>
      <point x="430.6024096385542" y="-11.060240963855422" type="curve" smooth="yes"/>
      <point x="430.6024096385542" y="36.0421686746988"/>
      <point x="416.4096385542169" y="75.89156626506025"/>
      <point x="389.0240963855422" y="100.74096385542168" type="curve"/>
      <point x="379.1144578313253" y="64.10240963855422" type="line"/>
      <point x="435.06626506024094" y="102.66867469879519"/>
      <point x="464.6024096385542" y="157.29518072289156"/>
      <point x="464.6024096385542" y="222.4277108433735" type="curve" smooth="yes"/>
      <point x="464.6024096385542" y="296.99397590361446"/>
      <point x="427.00602409638554" y="356.53012048192767"/>
      <point x="350.22891566265065" y="396.65060240963857" type="curve" smooth="yes"/>
      <point x="244.96385542168673" y="451.1867469879518" type="line" smooth="yes"/>
      <point x="211.37951807228916" y="468.68072289156623"/>
      <point x="191.1987951807229" y="495.54819277108436"/>
      <point x="191.1987951807229" y="539.0301204819277" type="curve" smooth="yes"/>
      <point x="191.1987951807229" y="588.8554216867469"/>
      <point x="220.75301204819277" y="619.5301204819277"/>
      <point x="272.42771084337346" y="619.5301204819277" type="curve" smooth="yes"/>
      <point x="313.578313253012" y="619.5301204819277"/>
      <point x="362.9518072289157" y="602.4698795180724"/>
      <point x="401.4879518072289" y="574.722891566265" type="curve"/>
      <point x="433.5903614457831" y="664.5060240963855" type="line"/>
      <point x="390.7710843373494" y="696.566265060241"/>
      <point x="327.8614457831325" y="715.6265060240964"/>
      <point x="263.2951807228916" y="715.6265060240964" type="curve" smooth="yes"/>
      <point x="138.6867469879518" y="715.6265060240964"/>
      <point x="60.927710843373504" y="646.656626506024"/>
      <point x="60.927710843373504" y="536.0602409638553" type="curve" smooth="yes"/>
      <point x="60.927710843373504" y="488.9578313253012"/>
      <point x="75.12048192771084" y="449.10843373493975"/>
      <point x="102.50602409638553" y="424.2590361445783" type="curve"/>
      <point x="112.41566265060239" y="460.8975903614458" type="line"/>
      <point x="56.463855421686745" y="422.3313253012048"/>
      <point x="26.927710843373493" y="367.7048192771084"/>
      <point x="26.927710843373493" y="302.57228915662654" type="curve" smooth="yes"/>
      <point x="26.927710843373493" y="225.94578313253012"/>
      <point x="66.92771084337349" y="167.09638554216866"/>
      <point x="141.30120481927713" y="128.34939759036146" type="curve" smooth="yes"/>
      <point x="246.56626506024094" y="73.8132530120482" type="line" smooth="yes"/>
      <point x="283.8975903614458" y="53.945783132530124"/>
      <point x="300.3313253012048" y="26.674698795180724"/>
      <point x="300.3313253012048" y="-12.716867469879517" type="curve" smooth="yes"/>
      <point x="300.3313253012048" y="-64.5421686746988"/>
      <point x="268.15060240963857" y="-94.53012048192771"/>
      <point x="216.47590361445785" y="-94.53012048192771" type="curve" smooth="yes"/>
      <point x="170.7289156626506" y="-94.53012048192771"/>
      <point x="112.16265060240961" y="-72.21686746987952"/>
      <point x="77.22289156626505" y="-42.81325301204819" type="curve"/>
      <point x="46.463855421686745" y="-135.25301204819277" type="line"/>
      <point x="85.6566265060241" y="-169.93975903614458"/>
      <point x="150.19277108433732" y="-190.6265060240964"/>
    </contour>
    <contour>
      <point x="147.97590361445782" y="327.9578313253012" type="curve" smooth="yes"/>
      <point x="147.97590361445782" y="354.16867469879514"/>
      <point x="154.72289156626508" y="378.6626506024096"/>
      <point x="169.21686746987953" y="401.6927710843374" type="curve"/>
      <point x="128.54819277108436" y="397.4397590361446" type="line"/>
      <point x="140.63855421686748" y="380.5421686746988"/>
      <point x="160.84939759036143" y="362.3012048192771"/>
      <point x="183.18072289156626" y="349.7771084337349" type="curve" smooth="yes"/>
      <point x="273.4759036144578" y="302.2409638554217" type="line" smooth="yes"/>
      <point x="323.77710843373495" y="275.37349397590356"/>
      <point x="343.5542168674699" y="240.93975903614458"/>
      <point x="343.5542168674699" y="197.0421686746988" type="curve" smooth="yes"/>
      <point x="343.5542168674699" y="170.8313253012048"/>
      <point x="336.8072289156627" y="146.33734939759034"/>
      <point x="322.3132530120482" y="123.30722891566263" type="curve"/>
      <point x="362.98192771084337" y="127.5602409638554" type="line"/>
      <point x="350.8915662650602" y="144.4578313253012"/>
      <point x="330.33734939759034" y="163.0421686746988"/>
      <point x="308.34939759036143" y="175.22289156626505" type="curve" smooth="yes"/>
      <point x="218.05421686746985" y="222.7590361445783" type="line" smooth="yes"/>
      <point x="168.43975903614458" y="248.93975903614458"/>
      <point x="147.97590361445782" y="283.03012048192767"/>
    </contour>
  </outline>
</glyph>
<glyph name="copyright" format="2">
  <advance width="669.3734939759037"/>
  <unicode hex="00A9"/>
  <outline>
    <contour>
      <point x="334.68674698795184" y="-10.626506024096384" type="curve" smooth="yes"/>
      <point x="513.9698795180722" y="-10.626506024096384"/>
      <point x="637.8795180722892" y="135.3433734939759"/>
      <point x="637.8795180722892" y="353.0" type="curve" smooth="yes"/>
      <point x="637.8795180722892" y="570.3132530120481"/>
      <point x="514.3132530120481" y="715.6265060240964"/>
      <point x="334.68674698795184" y="715.6265060240964" type="curve" smooth="yes"/>
      <point x="155.40361445783134" y="715.6265060240964"/>
      <point x="31.49397590361446" y="569.656626506024"/>
      <point x="31.49397590361446" y="352.0" type="curve" smooth="yes"/>
      <point x="31.49397590361446" y="134.6867469879518"/>
      <point x="155.06024096385542" y="-10.626506024096384"/>
    </contour>
    <contour>
      <point x="345.2530120481928" y="135.6867469879518" type="curve" smooth="yes"/>
      <point x="394.93975903614455" y="135.6867469879518"/>
      <point x="437.9397590361446" y="152.06024096385542"/>
      <point x="466.87951807228916" y="179.77710843373492" type="curve"/>
      <point x="437.7168674698796" y="254.02409638554212" type="line"/>
      <point x="416.9698795180723" y="237.18674698795184"/>
      <point x="397.44578313253015" y="226.50000000000003"/>
      <point x="366.6385542168675" y="226.50000000000003" type="curve" smooth="yes"/>
      <point x="308.90361445783134" y="226.50000000000003"/>
      <point x="282.37951807228916" y="265.4277108433735"/>
      <point x="282.37951807228916" y="353.0" type="curve" smooth="yes"/>
      <point x="282.37951807228916" y="439.2289156626506"/>
      <point x="309.2469879518072" y="478.5"/>
      <point x="368.98192771084337" y="478.5" type="curve" smooth="yes"/>
      <point x="394.1927710843374" y="478.5"/>
      <point x="415.31325301204816" y="470.0963855421687"/>
      <point x="438.3734939759037" y="451.9457831325301" type="curve"/>
      <point x="466.87951807228916" y="527.222891566265" type="line"/>
      <point x="439.2530120481928" y="554.2831325301205"/>
      <point x="396.59638554216866" y="569.3132530120482"/>
      <point x="347.9096385542169" y="569.3132530120482" type="curve" smooth="yes"/>
      <point x="235.03012048192772" y="569.3132530120482"/>
      <point x="169.83734939759037" y="491.06024096385545"/>
      <point x="169.83734939759037" y="352.6566265060241" type="curve" smooth="yes"/>
      <point x="169.83734939759037" y="214.6265060240964"/>
      <point x="234.6867469879518" y="135.6867469879518"/>
    </contour>
    <contour>
      <point x="334.68674698795184" y="42.102409638554214" type="curve" smooth="yes"/>
      <point x="185.2831325301205" y="42.102409638554214"/>
      <point x="88.50602409638553" y="160.5963855421687"/>
      <point x="88.50602409638553" y="352.0" type="curve" smooth="yes"/>
      <point x="88.50602409638553" y="543.4036144578313"/>
      <point x="185.2831325301205" y="662.8975903614459"/>
      <point x="334.68674698795184" y="662.8975903614459" type="curve" smooth="yes"/>
      <point x="484.77710843373484" y="662.8975903614459"/>
      <point x="580.8674698795181" y="544.4036144578313"/>
      <point x="580.8674698795181" y="353.0" type="curve" smooth="yes"/>
      <point x="580.8674698795181" y="161.5963855421687"/>
      <point x="484.77710843373484" y="42.102409638554214"/>
    </contour>
  </outline>
</glyph>
<glyph name="ordfeminine" format="2">
  <advance width="289.9518072289157"/>
  <unicode hex="00AA"/>
  <outline>
    <contour>
      <point x="111.46385542168674" y="408.0903614457831" type="curve" smooth="yes"/>
      <point x="150.83734939759037" y="408.0903614457831"/>
      <point x="174.9578313253012" y="429.5542168674699"/>
      <point x="185.9879518072289" y="477.61445783132535" type="curve"/>
      <point x="185.55421686746988" y="477.61445783132535" type="line"/>
      <point x="185.55421686746988" y="413.40361445783134" type="line"/>
      <point x="266.7710843373494" y="413.40361445783134" type="line"/>
      <point x="266.7710843373494" y="599.8373493975904" type="line" smooth="yes"/>
      <point x="266.7710843373494" y="677.4036144578313"/>
      <point x="227.29518072289156" y="715.6265060240964"/>
      <point x="148.56626506024097" y="715.6265060240964" type="curve" smooth="yes"/>
      <point x="104.06024096385542" y="715.6265060240964"/>
      <point x="55.83734939759036" y="702.9698795180723"/>
      <point x="23.867469879518076" y="681.9698795180723" type="curve"/>
      <point x="49.373493975903614" y="624.4819277108434" type="line"/>
      <point x="72.03012048192771" y="640.1686746987951"/>
      <point x="106.03012048192771" y="649.8554216867469"/>
      <point x="135.03012048192772" y="649.8554216867469" type="curve" smooth="yes"/>
      <point x="168.55421686746988" y="649.8554216867469"/>
      <point x="181.9578313253012" y="639.7349397590361"/>
      <point x="181.9578313253012" y="605.7469879518071" type="curve" smooth="yes"/>
      <point x="181.9578313253012" y="526.5240963855422" type="line" smooth="yes"/>
      <point x="181.9578313253012" y="491.22289156626505"/>
      <point x="163.7168674698795" y="465.2951807228916"/>
      <point x="138.41566265060243" y="465.2951807228916" type="curve" smooth="yes"/>
      <point x="116.20481927710843" y="465.2951807228916"/>
      <point x="101.05421686746988" y="482.1024096385542"/>
      <point x="101.05421686746988" y="504.9698795180723" type="curve" smooth="yes"/>
      <point x="101.05421686746988" y="532.867469879518"/>
      <point x="119.54819277108435" y="543.2409638554217"/>
      <point x="171.2710843373494" y="543.2409638554217" type="curve" smooth="yes"/>
      <point x="192.2710843373494" y="543.2409638554217" type="line"/>
      <point x="192.2710843373494" y="589.2530120481928" type="line"/>
      <point x="160.07831325301206" y="589.2530120481928" type="line" smooth="yes"/>
      <point x="60.52409638554218" y="589.2530120481928"/>
      <point x="15.554216867469883" y="562.9698795180723"/>
      <point x="15.554216867469883" y="505.2831325301205" type="curve" smooth="yes"/>
      <point x="15.554216867469883" y="450.34337349397595"/>
      <point x="58.150602409638566" y="408.0903614457831"/>
    </contour>
  </outline>
</glyph>
<glyph name="logicalnot" format="2">
  <advance width="498.0"/>
  <unicode hex="00AC"/>
  <outline>
    <contour>
      <point x="366.90361445783134" y="162.15060240963857" type="line"/>
      <point x="466.0" y="162.15060240963857" type="line"/>
      <point x="466.0" y="434.921686746988" type="line"/>
      <point x="32.0" y="434.921686746988" type="line"/>
      <point x="32.0" y="341.1385542168675" type="line"/>
      <point x="366.90361445783134" y="341.1385542168675" type="line"/>
    </contour>
  </outline>
</glyph>
<glyph name="registered" format="2">
  <advance width="669.3734939759037"/>
  <unicode hex="00AE"/>
  <outline>
    <contour>
      <point x="334.68674698795184" y="-10.626506024096384" type="curve" smooth="yes"/>
      <point x="515.6265060240963" y="-10.626506024096384"/>
      <point x="637.8795180722892" y="137.0"/>
      <point x="637.8795180722892" y="353.0" type="curve" smooth="yes"/>
      <point x="637.8795180722892" y="568.9999999999999"/>
      <point x="515.6265060240963" y="715.6265060240964"/>
      <point x="334.68674698795184" y="715.6265060240964" type="curve" smooth="yes"/>
      <point x="153.74698795180723" y="715.6265060240964"/>
      <point x="31.49397590361446" y="567.9999999999999"/>
      <point x="31.49397590361446" y="352.0" type="curve" smooth="yes"/>
      <point x="31.49397590361446" y="136.0"/>
      <point x="153.74698795180723" y="-10.626506024096384"/>
    </contour>
    <contour>
      <point x="334.68674698795184" y="42.102409638554214" type="curve" smooth="yes"/>
      <point x="183.9698795180723" y="42.102409638554214"/>
      <point x="88.50602409638553" y="161.90963855421688"/>
      <point x="88.50602409638553" y="352.0" type="curve" smooth="yes"/>
      <point x="88.50602409638553" y="542.0903614457832"/>
      <point x="183.9698795180723" y="662.8975903614459"/>
      <point x="334.68674698795184" y="662.8975903614459" type="curve" smooth="yes"/>
      <point x="486.09036144578306" y="662.8975903614459"/>
      <point x="580.8674698795181" y="543.0903614457832"/>
      <point x="580.8674698795181" y="353.0" type="curve" smooth="yes"/>
      <point x="580.8674698795181" y="162.90963855421688"/>
      <point x="486.09036144578306" y="42.102409638554214"/>
    </contour>
    <contour>
      <point x="197.7650602409639" y="141.34337349397592" type="line"/>
      <point x="295.1746987951807" y="141.34337349397592" type="line"/>
      <point x="295.1746987951807" y="316.867469879518" type="line"/>
      <point x="283.6084337349397" y="305.3012048192771" type="line"/>
      <point x="318.0602409638554" y="305.3012048192771" type="line" smooth="yes"/>
      <point x="339.2710843373494" y="305.3012048192771"/>
      <point x="349.7048192771084" y="297.55421686746985"/>
      <point x="357.16867469879514" y="271.65662650602405" type="curve" smooth="yes"/>
      <point x="390.4096385542169" y="141.34337349397592" type="line"/>
      <point x="495.132530120482" y="141.34337349397592" type="line"/>
      <point x="460.11445783132535" y="264.9277108433735" type="line" smooth="yes"/>
      <point x="450.3674698795181" y="299.6144578313253"/>
      <point x="429.7710843373494" y="317.2710843373494"/>
      <point x="397.98192771084337" y="317.2710843373494" type="curve"/>
      <point x="358.22289156626505" y="307.644578313253" type="line"/>
      <point x="434.7891566265059" y="307.644578313253"/>
      <point x="486.3855421686747" y="357.5542168674699"/>
      <point x="486.3855421686747" y="437.7771084337349" type="curve" smooth="yes"/>
      <point x="486.3855421686747" y="516.7168674698795"/>
      <point x="435.1927710843373" y="565.3132530120482"/>
      <point x="356.566265060241" y="565.3132530120482" type="curve" smooth="yes"/>
      <point x="197.7650602409639" y="565.3132530120482" type="line"/>
    </contour>
    <contour>
      <point x="295.1746987951807" y="375.6987951807229" type="line"/>
      <point x="295.1746987951807" y="491.289156626506" type="line"/>
      <point x="342.433734939759" y="491.289156626506" type="line" smooth="yes"/>
      <point x="373.0783132530121" y="491.289156626506"/>
      <point x="391.6024096385542" y="470.1385542168675"/>
      <point x="391.6024096385542" y="434.5240963855422" type="curve" smooth="yes"/>
      <point x="391.6024096385542" y="397.87951807228916"/>
      <point x="373.078313253012" y="375.6987951807229"/>
      <point x="342.433734939759" y="375.6987951807229" type="curve" smooth="yes"/>
    </contour>
  </outline>
</glyph>
<glyph name="degree" format="2">
  <advance width="358.38554216867476"/>
  <unicode hex="00B0"/>
  <outline>
    <contour>
      <point x="179.53614457831327" y="424.7349397590361" type="curve" smooth="yes"/>
      <point x="264.355421686747" y="424.7349397590361"/>
      <point x="328.89156626506025" y="487.644578313253"/>
      <point x="328.89156626506025" y="570.5240963855421" type="curve" smooth="yes"/>
      <point x="328.89156626506025" y="653.0602409638554"/>
      <point x="264.69879518072287" y="715.9698795180723"/>
      <point x="179.53614457831327" y="715.9698795180723" type="curve" smooth="yes"/>
      <point x="94.03012048192771" y="715.9698795180723"/>
      <point x="29.837349397590366" y="652.7168674698795"/>
      <point x="29.837349397590366" y="570.5240963855421" type="curve" smooth="yes"/>
      <point x="29.837349397590366" y="487.9879518072289"/>
      <point x="94.37349397590361" y="424.7349397590361"/>
    </contour>
    <contour>
      <point x="179.53614457831327" y="497.50602409638554" type="curve" smooth="yes"/>
      <point x="138.66867469879517" y="497.50602409638554"/>
      <point x="110.20481927710844" y="528.6566265060242"/>
      <point x="110.20481927710844" y="570.5240963855421" type="curve" smooth="yes"/>
      <point x="110.20481927710844" y="612.0481927710844"/>
      <point x="138.66867469879517" y="643.198795180723"/>
      <point x="179.53614457831327" y="643.198795180723" type="curve" smooth="yes"/>
      <point x="220.06024096385542" y="643.198795180723"/>
      <point x="248.18072289156623" y="612.0481927710844"/>
      <point x="248.18072289156623" y="570.5240963855421" type="curve" smooth="yes"/>
      <point x="248.18072289156623" y="528.6566265060242"/>
      <point x="220.06024096385542" y="497.50602409638554"/>
    </contour>
  </outline>
</glyph>
<glyph name="plusminus" format="2">
  <advance width="498.0"/>
  <unicode hex="00B1"/>
  <outline>
    <contour>
      <point x="199.45180722891567" y="139.45783132530119" type="line"/>
      <point x="298.5481927710843" y="139.45783132530119" type="line"/>
      <point x="298.5481927710843" y="292.5240963855422" type="line"/>
      <point x="466.0" y="292.5240963855422" type="line"/>
      <point x="466.0" y="385.62048192771084" type="line"/>
      <point x="298.5481927710843" y="385.62048192771084" type="line"/>
      <point x="298.5481927710843" y="534.4036144578314" type="line"/>
      <point x="199.45180722891567" y="534.4036144578314" type="line"/>
      <point x="199.45180722891567" y="385.62048192771084" type="line"/>
      <point x="32.0" y="385.62048192771084" type="line"/>
      <point x="32.0" y="292.5240963855422" type="line"/>
      <point x="199.45180722891567" y="292.5240963855422" type="line"/>
    </contour>
    <contour>
      <point x="32.0" y="0.0" type="line"/>
      <point x="466.0" y="0.0" type="line"/>
      <point x="466.0" y="93.78313253012048" type="line"/>
      <point x="32.0" y="93.78313253012048" type="line"/>
    </contour>
  </outline>
</glyph>
<glyph name="micro" format="2">
  <advance width="493.0843373493976"/>
  <unicode hex="00B5"/>
  <outline>
    <contour>
      <point x="46.734939759036145" y="-180.0" type="line"/>
      <point x="184.54216867469881" y="-180.0" type="line"/>
      <point x="170.69277108433735" y="45.915662650602414" type="line"/>
      <point x="167.13855421686748" y="45.915662650602414" type="line"/>
      <point x="179.5722891566265" y="6.180722891566267"/>
      <point x="201.87349397590359" y="-10.626506024096384"/>
      <point x="231.95180722891564" y="-10.626506024096384" type="curve" smooth="yes"/>
      <point x="273.12048192771084" y="-10.626506024096384"/>
      <point x="298.85542168674704" y="21.24096385542169"/>
      <point x="312.63253012048193" y="88.49397590361446" type="curve"/>
      <point x="312.16867469879514" y="88.49397590361446" type="line"/>
      <point x="312.16867469879514" y="0.0" type="line"/>
      <point x="445.6927710843374" y="0.0" type="line"/>
      <point x="445.6927710843374" y="490.566265060241" type="line"/>
      <point x="307.8855421686747" y="490.566265060241" type="line"/>
      <point x="307.8855421686747" y="186.22289156626508" type="line" smooth="yes"/>
      <point x="307.8855421686747" y="130.27710843373492"/>
      <point x="277.40361445783134" y="97.94578313253011"/>
      <point x="236.2349397590361" y="97.94578313253011" type="curve" smooth="yes"/>
      <point x="203.5" y="97.94578313253011"/>
      <point x="184.54216867469881" y="117.06626506024095"/>
      <point x="184.54216867469881" y="174.44578313253012" type="curve" smooth="yes"/>
      <point x="184.54216867469881" y="490.566265060241" type="line"/>
      <point x="46.734939759036145" y="490.566265060241" type="line"/>
    </contour>
  </outline>
</glyph>
<glyph name="paragraph" format="2">
  <advance width="548.1084337349398"/>
  <unicode hex="00B6"/>
  <outline>
    <contour>
      <point x="206.53614457831327" y="-180.0" type="line"/>
      <point x="304.94578313253015" y="-180.0" type="line"/>
      <point x="304.94578313253015" y="609.277108433735" type="line"/>
      <point x="391.3072289156627" y="609.277108433735" type="line"/>
      <point x="391.3072289156627" y="-180.0" type="line"/>
      <point x="489.7168674698795" y="-180.0" type="line"/>
      <point x="489.7168674698795" y="705.0" type="line"/>
      <point x="209.16265060240966" y="705.0" type="line" smooth="yes"/>
      <point x="95.83734939759036" y="705.0"/>
      <point x="18.30120481927711" y="619.1807228915662"/>
      <point x="18.30120481927711" y="489.82530120481925" type="curve" smooth="yes"/>
      <point x="18.30120481927711" y="361.46987951807233"/>
      <point x="95.83734939759036" y="273.99397590361446"/>
      <point x="206.53614457831327" y="273.99397590361446" type="curve"/>
    </contour>
  </outline>
</glyph>
<glyph name="periodcentered" format="2">
  <advance width="226.36746987951807"/>
  <unicode hex="00B7"/>
  <outline>
    <contour>
      <point x="40.98795180722892" y="193.60240963855424" type="line"/>
      <point x="186.03614457831324" y="193.60240963855424" type="line"/>
      <point x="186.03614457831324" y="342.3072289156627" type="line"/>
      <point x="40.98795180722892" y="342.3072289156627" type="line"/>
    </contour>
  </outline>
</glyph>
<glyph name="ordmasculine" format="2">
  <advance width="302.20481927710847"/>
  <unicode hex="00BA"/>
  <outline>
    <contour>
      <point x="151.44578313253012" y="409.0602409638554" type="curve" smooth="yes"/>
      <point x="230.9518072289157" y="409.0602409638554"/>
      <point x="287.39759036144574" y="459.37349397590356"/>
      <point x="287.39759036144574" y="562.6867469879518" type="curve" smooth="yes"/>
      <point x="287.39759036144574" y="665.3132530120482"/>
      <point x="230.9518072289157" y="715.6265060240964"/>
      <point x="151.44578313253012" y="715.6265060240964" type="curve" smooth="yes"/>
      <point x="71.25301204819277" y="715.6265060240964"/>
      <point x="14.807228915662652" y="665.3132530120482"/>
      <point x="14.807228915662652" y="562.6867469879518" type="curve" smooth="yes"/>
      <point x="14.807228915662652" y="459.37349397590356"/>
      <point x="71.25301204819277" y="409.0602409638554"/>
    </contour>
    <contour>
      <point x="151.44578313253012" y="476.8012048192771" type="curve" smooth="yes"/>
      <point x="121.5364638554217" y="476.8012048192771"/>
      <point x="102.27710843373492" y="497.0421686746988"/>
      <point x="102.27710843373492" y="562.6867469879518" type="curve" smooth="yes"/>
      <point x="102.27710843373492" y="627.9879518072289"/>
      <point x="121.5364638554217" y="648.2289156626506"/>
      <point x="151.44578313253012" y="648.2289156626506" type="curve" smooth="yes"/>
      <point x="180.66835542168675" y="648.2289156626506"/>
      <point x="199.9277108433735" y="627.9879518072288"/>
      <point x="199.9277108433735" y="562.6867469879518" type="curve" smooth="yes"/>
      <point x="199.9277108433735" y="497.04216867469876"/>
      <point x="180.66835542168675" y="476.8012048192771"/>
    </contour>
  </outline>
</glyph>
<glyph name="questiondown" format="2">
  <advance width="394.48795180722885"/>
  <unicode hex="00BF"/>
  <outline>
    <contour>
      <point x="191.7289156626506" y="-189.3132530120482" type="curve" smooth="yes"/>
      <point x="267.98192771084337" y="-189.3132530120482"/>
      <point x="341.23493975903614" y="-161.2831325301205"/>
      <point x="388.80120481927713" y="-116.19277108433734" type="curve"/>
      <point x="348.16265060240966" y="-11.337349397590366" type="line"/>
      <point x="301.16265060240966" y="-52.144578313253014"/>
      <point x="259.6686746987952" y="-70.57831325301206"/>
      <point x="217.08433734939757" y="-70.57831325301206" type="curve" smooth="yes"/>
      <point x="172.03614457831327" y="-70.57831325301206"/>
      <point x="150.13855421686748" y="-48.993975903614455"/>
      <point x="150.13855421686748" y="-7.885542168674699" type="curve" smooth="yes"/>
      <point x="150.13855421686748" y="23.66867469879518"/>
      <point x="163.5120481927711" y="49.90963855421687"/>
      <point x="193.7831325301205" y="93.3012048192771" type="curve" smooth="yes"/>
      <point x="239.45783132530124" y="161.49999999999997"/>
      <point x="240.83132530120483" y="199.12650602409636"/>
      <point x="240.83132530120483" y="237.3975903614458" type="curve" smooth="yes"/>
      <point x="240.83132530120483" y="275.09638554216866" type="line"/>
      <point x="159.70481927710847" y="275.09638554216866" type="line"/>
      <point x="156.39156626506025" y="250.49999999999997" type="line" smooth="yes"/>
      <point x="151.36144578313255" y="210.82530120481925"/>
      <point x="140.10843373493978" y="187.19879518072293"/>
      <point x="95.52409638554218" y="137.65662650602408" type="curve" smooth="yes"/>
      <point x="32.2710843373494" y="73.7590361445783"/>
      <point x="10.33132530120482" y="29.759036144578314"/>
      <point x="10.33132530120482" y="-28.58433734939759" type="curve" smooth="yes"/>
      <point x="10.33132530120482" y="-128.77710843373495"/>
      <point x="80.03012048192771" y="-189.3132530120482"/>
    </contour>
    <contour>
      <point x="127.91566265060243" y="341.8614457831325" type="line"/>
      <point x="272.62048192771084" y="341.8614457831325" type="line"/>
      <point x="272.62048192771084" y="490.566265060241" type="line"/>
      <point x="127.91566265060243" y="490.566265060241" type="line"/>
    </contour>
  </outline>
</glyph>
<glyph name="AE" format="2">
  <advance width="831.144578313253"/>
  <unicode hex="00C6"/>
  <anchor x="399.6566265060241" y="0.0" name="bottom"/>
  <anchor x="399.9698795180723" y="705.0" name="top"/>
  <outline>
    <contour>
      <point x="-39.963855421686745" y="0.0" type="line"/>
      <point x="107.40963855421687" y="0.0" type="line"/>
      <point x="195.90361445783134" y="193.8975903614458" type="line"/>
      <point x="147.7289156626506" y="158.25903614457832" type="line"/>
      <point x="456.5361445783132" y="158.25903614457832" type="line"/>
      <point x="413.92771084337346" y="198.80722891566265" type="line"/>
      <point x="447.6144578313253" y="0.0" type="line"/>
      <point x="784.4879518072289" y="0.0" type="line"/>
      <point x="784.4879518072289" y="111.51204819277108" type="line"/>
      <point x="519.3975903614457" y="111.51204819277108" type="line"/>
      <point x="567.289156626506" y="71.8433734939759" type="line"/>
      <point x="522.7951807228915" y="340.12048192771084" type="line"/>
      <point x="493.37951807228916" y="301.9156626506024" type="line"/>
      <point x="766.8614457831326" y="301.9156626506024" type="line"/>
      <point x="766.8614457831326" y="413.42771084337346" type="line"/>
      <point x="468.9939759036145" y="413.42771084337346" type="line"/>
      <point x="517.1686746987951" y="374.5361445783132" type="line"/>
      <point x="474.3012048192771" y="628.9939759036146" type="line"/>
      <point x="440.06626506024094" y="593.4879518072289" type="line"/>
      <point x="784.4879518072289" y="593.4879518072289" type="line"/>
      <point x="784.4879518072289" y="705.0" type="line"/>
      <point x="304.2590361445783" y="705.0" type="line"/>
    </contour>
    <contour>
      <point x="355.0" y="543.0" type="line"/>
      <point x="356.0" y="543.0" type="line"/>
      <point x="408.6445783132531" y="231.56626506024097" type="line"/>
      <point x="434.0" y="269.7710843373494" type="line"/>
      <point x="213.97590361445782" y="269.7710843373494" type="line"/>
      <point x="214.37951807228916" y="236.47590361445782" type="line"/>
    </contour>
  </outline>
</glyph>
<glyph name="multiply" format="2">
  <advance width="498.0"/>
  <unicode hex="00D7"/>
  <outline>
    <contour>
      <point x="107.0843373493976" y="78.6867469879518" type="line"/>
      <point x="249.0" y="221.60240963855424" type="line"/>
      <point x="390.9156626506024" y="78.6867469879518" type="line"/>
      <point x="455.31325301204816" y="142.3975903614458" type="line"/>
      <point x="312.39759036144574" y="285.6265060240964" type="line"/>
      <point x="455.31325301204816" y="429.54216867469876" type="line"/>
      <point x="390.9156626506024" y="493.9397590361446" type="line"/>
      <point x="249.0" y="351.36746987951807" type="line"/>
      <point x="107.0843373493976" y="493.9397590361446" type="line"/>
      <point x="42.68674698795181" y="429.54216867469876" type="line"/>
      <point x="185.60240963855424" y="285.6265060240964" type="line"/>
      <point x="42.68674698795181" y="142.3975903614458" type="line"/>
    </contour>
  </outline>
</glyph>
<glyph name="Thorn" format="2">
  <advance width="555.9939759036145"/>
  <unicode hex="00DE"/>
  <anchor x="283.355421686747" y="0.0" name="bottom"/>
  <anchor x="283.69879518072287" y="705.0" name="top"/>
  <outline>
    <contour>
      <point x="58.391566265060234" y="0.0" type="line"/>
      <point x="200.45180722891567" y="0.0" type="line"/>
      <point x="200.45180722891567" y="143.61445783132532" type="line"/>
      <point x="324.42771084337346" y="143.61445783132532" type="line" smooth="yes"/>
      <point x="453.30722891566256" y="143.61445783132532"/>
      <point x="530.5301204819277" y="227.15060240963857"/>
      <point x="530.5301204819277" y="366.65662650602405" type="curve" smooth="yes"/>
      <point x="530.5301204819277" y="506.8192771084337"/>
      <point x="453.6506024096385" y="589.6686746987953"/>
      <point x="324.42771084337346" y="589.6686746987953" type="curve" smooth="yes"/>
      <point x="200.45180722891567" y="589.6686746987953" type="line"/>
      <point x="200.45180722891567" y="705.0" type="line"/>
      <point x="58.391566265060234" y="705.0" type="line"/>
    </contour>
    <contour>
      <point x="200.45180722891567" y="254.4397590361446" type="line"/>
      <point x="200.45180722891567" y="478.8433734939759" type="line"/>
      <point x="299.78915662650604" y="478.8433734939759" type="line" smooth="yes"/>
      <point x="361.04819277108436" y="478.8433734939759"/>
      <point x="394.6626506024097" y="438.2289156626506"/>
      <point x="394.6626506024097" y="366.65662650602405" type="curve" smooth="yes"/>
      <point x="394.6626506024097" y="295.08433734939763"/>
      <point x="361.04819277108436" y="254.4397590361446"/>
      <point x="299.78915662650604" y="254.4397590361446" type="curve" smooth="yes"/>
    </contour>
  </outline>
</glyph>
<glyph name="germandbls" format="2">
  <advance width="570.3614457831325"/>
  <unicode hex="00DF"/>
  <outline>
    <contour>
      <point x="379.9156626506024" y="-10.626506024096384" type="curve" smooth="yes"/>
      <point x="485.27108433734935" y="-10.626506024096384"/>
      <point x="553.777108433735" y="52.84939759036144"/>
      <point x="553.777108433735" y="155.92168674698794" type="curve" smooth="yes"/>
      <point x="553.777108433735" y="227.35016265060239"/>
      <point x="517.129656626506" y="276.4044578313253"/>
      <point x="441.3433734939759" y="302.42771084337346" type="curve" smooth="yes"/>
      <point x="388.48404819277107" y="320.8084156626506"/>
      <point x="371.6385542168675" y="335.1518975903615"/>
      <point x="371.6385542168675" y="365.9397590361446" type="curve" smooth="yes"/>
      <point x="371.6385542168675" y="386.15060240963857"/>
      <point x="381.369843373494" y="402.24680120481923"/>
      <point x="411.8192771084337" y="445.21084337349396" type="curve" smooth="yes"/>
      <point x="441.1505361445783" y="488.0166325301205"/>
      <point x="461.1204819277109" y="520.2370783132529"/>
      <point x="461.1204819277109" y="569.0180722891565" type="curve" smooth="yes"/>
      <point x="461.1204819277109" y="663.0903614457832"/>
      <point x="395.7951807228916" y="715.6265060240964"/>
      <point x="275.6807228915663" y="715.6265060240964" type="curve" smooth="yes"/>
      <point x="128.06024096385542" y="715.6265060240964"/>
      <point x="48.07831325301204" y="635.5240963855421"/>
      <point x="48.07831325301204" y="485.57228915662654" type="curve" smooth="yes"/>
      <point x="48.07831325301204" y="0.0" type="line"/>
      <point x="185.8855421686747" y="0.0" type="line"/>
      <point x="185.8855421686747" y="507.8975903614458" type="line" smooth="yes"/>
      <point x="185.8855421686747" y="580.0361445783133"/>
      <point x="213.72289156626508" y="615.933734939759"/>
      <point x="271.0843373493976" y="615.933734939759" type="curve" smooth="yes"/>
      <point x="312.82103614457833" y="615.933734939759"/>
      <point x="332.5060240963856" y="597.4698795180723"/>
      <point x="332.5060240963856" y="556.5421686746987" type="curve" smooth="yes"/>
      <point x="332.5060240963856" y="527.082325301205"/>
      <point x="321.4089879518072" y="508.5492590361445"/>
      <point x="301.48795180722897" y="481.0602409638554" type="curve" smooth="yes"/>
      <point x="268.39057228915664" y="434.60881325301204"/>
      <point x="247.96385542168673" y="396.30120481927713"/>
      <point x="247.96385542168673" y="347.83734939759034" type="curve" smooth="yes"/>
      <point x="247.96385542168673" y="287.9460481927711"/>
      <point x="280.330578313253" y="240.60656024096386"/>
      <point x="362.68072289156623" y="209.9578313253012" type="curve" smooth="yes"/>
      <point x="413.20075301204827" y="191.12671686746987"/>
      <point x="430.7590361445783" y="174.71686746987953"/>
      <point x="430.7590361445783" y="144.04216867469881" type="curve" smooth="yes"/>
      <point x="430.7590361445783" y="109.62048192771084"/>
      <point x="408.8012048192771" y="91.00602409638553"/>
      <point x="369.7530120481928" y="91.00602409638553" type="curve" smooth="yes"/>
      <point x="331.63253012048193" y="91.00602409638553"/>
      <point x="288.9759036144579" y="107.69277108433734"/>
      <point x="248.72289156626505" y="138.40963855421688" type="curve"/>
      <point x="218.27710843373495" y="45.403614457831324" type="line"/>
      <point x="255.1867469879518" y="11.716867469879519"/>
      <point x="318.0060240963855" y="-10.626506024096384"/>
    </contour>
  </outline>
</glyph>
<glyph name="ae" format="2">
  <advance width="713.222891566265"/>
  <unicode hex="00E6"/>
  <anchor x="342.433734939759" y="0.0" name="bottom"/>
  <anchor x="342.433734939759" y="484.0" name="top"/>
  <outline>
    <contour>
      <point x="193.40361445783134" y="-10.626506024096384" type="curve" smooth="yes"/>
      <point x="276.0" y="-10.626506024096384"/>
      <point x="338.5963855421687" y="42.493975903614455"/>
      <point x="348.68674698795184" y="121.16867469879517" type="curve"/>
      <point x="331.0602409638554" y="121.16867469879517" type="line"/>
      <point x="358.8795180722892" y="33.83734939759036"/>
      <point x="425.2228915662651" y="-10.626506024096384"/>
      <point x="515.9096385542168" y="-10.626506024096384" type="curve" smooth="yes"/>
      <point x="572.2530120481928" y="-10.626506024096384"/>
      <point x="628.5361445783133" y="8.403614457831326"/>
      <point x="681.2951807228916" y="45.12048192771085" type="curve"/>
      <point x="643.8795180722891" y="137.50000000000003" type="line"/>
      <point x="609.566265060241" y="110.03614457831324"/>
      <point x="564.5963855421686" y="94.31927710843372"/>
      <point x="521.1626506024096" y="94.31927710843372" type="curve" smooth="yes"/>
      <point x="450.0843373493976" y="94.31927710843372"/>
      <point x="420.1265060240964" y="133.144578313253"/>
      <point x="420.1265060240964" y="223.5843373493976" type="curve" smooth="yes"/>
      <point x="420.1265060240964" y="257.4759036144578" type="line" smooth="yes"/>
      <point x="420.1265060240964" y="358.9578313253012"/>
      <point x="445.144578313253" y="406.7831325301205"/>
      <point x="501.7168674698795" y="406.7831325301205" type="curve" smooth="yes"/>
      <point x="549.9156626506025" y="406.7831325301205"/>
      <point x="571.5301204819277" y="367.421686746988"/>
      <point x="571.5301204819277" y="275.41566265060237" type="curve"/>
      <point x="586.156626506024" y="291.1927710843373" type="line"/>
      <point x="403.56024096385545" y="291.1927710843373" type="line"/>
      <point x="403.56024096385545" y="214.9277108433735" type="line"/>
      <point x="687.6084337349398" y="214.9277108433735" type="line"/>
      <point x="687.6084337349398" y="260.0602409638554" type="line" smooth="yes"/>
      <point x="687.6084337349398" y="415.0"/>
      <point x="619.7891566265059" y="501.1927710843374"/>
      <point x="501.0602409638554" y="501.1927710843374" type="curve" smooth="yes"/>
      <point x="436.40361445783134" y="501.1927710843374"/>
      <point x="381.0722891566265" y="467.23493975903614"/>
      <point x="353.22289156626505" y="398.7530120481928" type="curve"/>
      <point x="377.6686746987952" y="398.7530120481928" type="line"/>
      <point x="358.31325301204816" y="468.2951807228916"/>
      <point x="312.7469879518072" y="501.1927710843374"/>
      <point x="232.2831325301205" y="501.1927710843374" type="curve" smooth="yes"/>
      <point x="166.77710843373495" y="501.1927710843374"/>
      <point x="93.01807228915662" y="480.22289156626505"/>
      <point x="45.73493975903614" y="445.566265060241" type="curve"/>
      <point x="85.74698795180723" y="350.8433734939759" type="line"/>
      <point x="123.52409638554217" y="378.62048192771084"/>
      <point x="174.09036144578315" y="395.27710843373495"/>
      <point x="217.12048192771084" y="395.27710843373495" type="curve" smooth="yes"/>
      <point x="267.5120481927711" y="395.27710843373495"/>
      <point x="288.8855421686747" y="369.31927710843377"/>
      <point x="288.8855421686747" y="326.9578313253012" type="curve" smooth="yes"/>
      <point x="288.8855421686747" y="180.52409638554218" type="line" smooth="yes"/>
      <point x="288.8855421686747" y="126.29518072289157"/>
      <point x="260.1506024096385" y="85.12650602409639"/>
      <point x="220.29518072289153" y="85.12650602409639" type="curve" smooth="yes"/>
      <point x="187.27710843373495" y="85.12650602409639"/>
      <point x="162.03614457831324" y="112.71084337349397"/>
      <point x="162.03614457831324" y="151.13253012048193" type="curve" smooth="yes"/>
      <point x="162.03614457831324" y="197.58433734939757"/>
      <point x="195.710843373494" y="214.9277108433735"/>
      <point x="263.49397590361446" y="214.9277108433735" type="curve" smooth="yes"/>
      <point x="302.82530120481925" y="214.9277108433735" type="line"/>
      <point x="302.82530120481925" y="291.1927710843373" type="line"/>
      <point x="248.42168674698794" y="291.1927710843373" type="line" smooth="yes"/>
      <point x="105.51204819277109" y="291.1927710843373"/>
      <point x="30.078313253012055" y="247.2831325301205"/>
      <point x="30.078313253012055" y="150.19277108433735" type="curve" smooth="yes"/>
      <point x="30.078313253012055" y="57.93975903614458"/>
      <point x="99.30120481927712" y="-10.626506024096384"/>
    </contour>
  </outline>
</glyph>
<glyph name="eth" format="2">
  <advance width="496.3072289156627"/>
  <unicode hex="00F0"/>
  <outline>
    <contour>
      <point x="246.63855421686748" y="-10.626506024096384" type="curve" smooth="yes"/>
      <point x="393.5602409638554" y="-10.626506024096384"/>
      <point x="469.31927710843377" y="82.28313253012047"/>
      <point x="469.31927710843377" y="262.53614457831327" type="curve" smooth="yes"/>
      <point x="469.31927710843377" y="414.9578313253012"/>
      <point x="421.37951807228916" y="528.2409638554217"/>
      <point x="345.33734939759034" y="605.4638554216868" type="curve"/>
      <point x="346.0240963855421" y="593.8975903614457" type="line"/>
      <point x="445.09638554216866" y="647.8072289156627" type="line"/>
      <point x="411.2168674698795" y="715.9698795180723" type="line"/>
      <point x="274.7710843373494" y="642.4036144578313" type="line"/>
      <point x="304.51807228915663" y="639.3433734939758" type="line"/>
      <point x="257.1927710843374" y="673.8192771084338"/>
      <point x="194.80722891566265" y="702.5361445783133"/>
      <point x="118.3012048192771" y="715.9698795180723" type="curve"/>
      <point x="97.13855421686748" y="636.066265060241" type="line"/>
      <point x="142.5722891566265" y="626.9457831325301"/>
      <point x="184.34939759036146" y="608.7951807228916"/>
      <point x="205.67469879518075" y="593.5722891566265" type="curve"/>
      <point x="205.9578313253012" y="606.5421686746988" type="line"/>
      <point x="88.67469879518073" y="543.1987951807229" type="line"/>
      <point x="122.55421686746988" y="475.0361445783132" type="line"/>
      <point x="267.9698795180723" y="553.6024096385543" type="line"/>
      <point x="255.18072289156626" y="555.6325301204819" type="line"/>
      <point x="303.7469879518072" y="505.63253012048193"/>
      <point x="343.64457831325296" y="426.3614457831325"/>
      <point x="344.3012048192771" y="317.48795180722897" type="curve"/>
      <point x="373.12048192771084" y="317.48795180722897" type="line"/>
      <point x="345.5421686746988" y="417.2228915662651"/>
      <point x="292.46385542168673" y="453.0301204819277"/>
      <point x="217.34337349397592" y="453.0301204819277" type="curve" smooth="yes"/>
      <point x="101.77710843373494" y="453.0301204819277"/>
      <point x="29.2710843373494" y="364.43373493975906"/>
      <point x="29.2710843373494" y="222.0" type="curve" smooth="yes"/>
      <point x="29.2710843373494" y="74.0"/>
      <point x="108.03012048192771" y="-10.626506024096384"/>
    </contour>
    <contour>
      <point x="246.6385542168675" y="91.34939759036143" type="curve" smooth="yes"/>
      <point x="193.06626506024097" y="91.34939759036143"/>
      <point x="168.07831325301206" y="133.08433734939757"/>
      <point x="168.07831325301206" y="221.3734939759036" type="curve" smooth="yes"/>
      <point x="168.07831325301206" y="309.31927710843377"/>
      <point x="193.40963855421688" y="350.71084337349396"/>
      <point x="246.63855421686748" y="350.71084337349396" type="curve" smooth="yes"/>
      <point x="300.5542168674699" y="350.71084337349396"/>
      <point x="325.8855421686747" y="309.31927710843377"/>
      <point x="325.8855421686747" y="221.3734939759036" type="curve" smooth="yes"/>
      <point x="325.8855421686747" y="132.7409638554217"/>
      <point x="300.5542168674699" y="91.34939759036143"/>
    </contour>
  </outline>
</glyph>
<glyph name="divide" format="2">
  <advance width="498.0"/>
  <unicode hex="00F7"/>
  <outline>
    <contour>
      <point x="32.0" y="239.42168674698797" type="line"/>
      <point x="466.0" y="239.42168674698797" type="line"/>
      <point x="466.0" y="333.20481927710847" type="line"/>
      <point x="32.0" y="333.20481927710847" type="line"/>
    </contour>
    <contour>
      <point x="195.36144578313255" y="36.6144578313253" type="line"/>
      <point x="302.9819277108434" y="36.6144578313253" type="line"/>
      <point x="302.9819277108434" y="145.2349397590361" type="line"/>
      <point x="195.36144578313255" y="145.2349397590361" type="line"/>
    </contour>
    <contour>
      <point x="195.36144578313255" y="427.39156626506025" type="line"/>
      <point x="302.9819277108434" y="427.39156626506025" type="line"/>
      <point x="302.9819277108434" y="536.0120481927711" type="line"/>
      <point x="195.36144578313255" y="536.0120481927711" type="line"/>
    </contour>
  </outline>
</glyph>
